SplineFontDB: 3.0
FontName: TEL-ElurBold
FullName: TEL Elur Bold
FamilyName: TEL Elur
Weight: Bold
Copyright: Copyright (c) 2009-2015, NLCI (http://www.nlci.in/fonts/)
Version: 1.0 Wed Aug 17 09:40:50 1994
ItalicAngle: 0
UnderlinePosition: -594
UnderlineWidth: 41
Ascent: 1638
Descent: 410
LayerCount: 2
Layer: 0 1 "Back"  1
Layer: 1 1 "Fore"  0
XUID: [1021 166 776089904 2456767]
FSType: 0
OS2Version: 0
OS2_WeightWidthSlopeOnly: 0
OS2_UseTypoMetrics: 1
CreationTime: 1257736741
ModificationTime: 1257736741
PfmFamily: 81
TTFWeight: 700
TTFWidth: 5
LineGap: 0
VLineGap: 0
Panose: 5 0 0 0 0 0 0 0 0 0
OS2TypoAscent: -335
OS2TypoAOffset: 1
OS2TypoDescent: -493
OS2TypoDOffset: 1
OS2TypoLinegap: 0
OS2WinAscent: -517
OS2WinAOffset: 1
OS2WinDescent: -361
OS2WinDOffset: 1
HheadAscent: -517
HheadAOffset: 1
HheadDescent: 361
HheadDOffset: 1
OS2SubXSize: 1434
OS2SubYSize: 1331
OS2SubXOff: 0
OS2SubYOff: 293
OS2SupXSize: 1434
OS2SupYSize: 1331
OS2SupXOff: 0
OS2SupYOff: 928
OS2StrikeYSize: 102
OS2StrikeYPos: 530
OS2Vendor: 'Alts'
OS2UnicodeRanges: 00000000.00000000.00000000.00000000
DEI: 91125
TtTable: prep
NPUSHB
 1
 1
SCANTYPE
PUSHW_1
 511
SCANCTRL
EndTTInstrs
ShortTable: maxp 16
  1
  0
  315
  193
  12
  146
  6
  2
  8
  64
  10
  0
  3
  417
  5
  2
EndShort
LangName: 1033 "" "" "Bold" "NLCI:TEL Elur Bold" "" "1.0 Wed Aug 17 09:40:50 1994" 
Encoding: UnicodeBmp
UnicodeInterp: none
NameList: Adobe Glyph List
DisplaySize: -24
AntiAlias: 1
FitToEm: 1
Lookup: 4 0 0 "'akhn' Akhand in Telugu lookup 0"  {"'akhn' Akhand (ligatures)"  } ['akhn' ('telu' <'dflt' > ) ]
Lookup: 4 0 0 "'blwf' Below Base Forms in Telugu lookup 1"  {"'blwf' Below Base Form (sub)"  } ['blwf' ('telu' <'dflt' > ) ]

StartChar: .notdef
Encoding: 65536 -1 0
Width: 1024
Flags: W
LayerCount: 2
Fore
SplineSet
64 0 m 1,0,-1
 64 1303 l 1,1,-1
 960 1303 l 1,2,-1
 960 0 l 1,3,-1
 64 0 l 1,0,-1
896 64 m 1,4,-1
 896 1239 l 1,5,-1
 128 1239 l 1,6,-1
 128 64 l 1,7,-1
 896 64 l 1,4,-1
EndSplineSet
EndChar

StartChar: exclam
Encoding: 33 33 4
Width: 696
Flags: W
LayerCount: 2
Fore
SplineSet
514 143 m 0,0,1
 514 108 514 108 500.5 77 c 128,-1,2
 487 46 487 46 464.5 23.5 c 128,-1,3
 442 1 442 1 412.5 -12 c 128,-1,4
 383 -25 383 -25 350 -25 c 0,5,6
 325 -25 325 -25 296 -15.5 c 128,-1,7
 267 -6 267 -6 242 14 c 128,-1,8
 217 34 217 34 200.5 66 c 128,-1,9
 184 98 184 98 184 143 c 0,10,11
 184 183 184 183 199 213.5 c 128,-1,12
 214 244 214 244 238 264 c 128,-1,13
 262 284 262 284 291.5 294.5 c 128,-1,14
 321 305 321 305 350 305 c 0,15,16
 378 305 378 305 407.5 294 c 128,-1,17
 437 283 437 283 460.5 262 c 128,-1,18
 484 241 484 241 499 211 c 128,-1,19
 514 181 514 181 514 143 c 0,0,1
406 426 m 1,20,-1
 295 426 l 1,21,-1
 182 1241 l 1,22,23
 182 1284 182 1284 195.5 1315.5 c 128,-1,24
 209 1347 209 1347 231.5 1367 c 128,-1,25
 254 1387 254 1387 284.5 1397 c 128,-1,26
 315 1407 315 1407 350 1407 c 0,27,28
 384 1407 384 1407 414.5 1397.5 c 128,-1,29
 445 1388 445 1388 467.5 1368 c 128,-1,30
 490 1348 490 1348 503 1316.5 c 128,-1,31
 516 1285 516 1285 516 1241 c 1,32,-1
 406 426 l 1,20,-1
EndSplineSet
EndChar

StartChar: quotedbl
Encoding: 34 34 5
Width: 803
Flags: W
LayerCount: 2
Fore
SplineSet
162 854 m 1,0,-1
 82 1333 l 1,1,2
 82 1390 82 1390 109.5 1426 c 128,-1,3
 137 1462 137 1462 199 1462 c 256,4,5
 261 1462 261 1462 289 1426 c 128,-1,6
 317 1390 317 1390 317 1333 c 1,7,-1
 238 854 l 1,8,-1
 162 854 l 1,0,-1
563 854 m 1,9,-1
 483 1333 l 1,10,11
 483 1390 483 1390 510.5 1426 c 128,-1,12
 538 1462 538 1462 600 1462 c 0,13,14
 663 1462 663 1462 692 1426 c 128,-1,15
 721 1390 721 1390 721 1333 c 1,16,-1
 639 854 l 1,17,-1
 563 854 l 1,9,-1
EndSplineSet
EndChar

StartChar: numbersign
Encoding: 35 35 6
Width: 1518
Flags: W
LayerCount: 2
Fore
SplineSet
678 848 m 1,0,-1
 588 578 l 1,1,-1
 842 578 l 1,2,-1
 936 848 l 1,3,-1
 678 848 l 1,0,-1
1079 848 m 1,4,-1
 991 578 l 1,5,-1
 1309 578 l 1,6,-1
 1309 449 l 1,7,-1
 946 449 l 1,8,-1
 791 -49 l 1,9,-1
 649 -14 l 1,10,-1
 801 449 l 1,11,-1
 545 449 l 1,12,-1
 385 -49 l 1,13,-1
 248 -12 l 1,14,-1
 401 449 l 1,15,-1
 127 449 l 1,16,-1
 127 578 l 1,17,-1
 442 578 l 1,18,-1
 530 848 l 1,19,-1
 227 848 l 1,20,-1
 227 983 l 1,21,-1
 573 983 l 1,22,-1
 731 1454 l 1,23,-1
 868 1417 l 1,24,-1
 717 983 l 1,25,-1
 983 983 l 1,26,-1
 1135 1454 l 1,27,-1
 1276 1415 l 1,28,-1
 1122 983 l 1,29,-1
 1391 983 l 1,30,-1
 1391 848 l 1,31,-1
 1079 848 l 1,4,-1
EndSplineSet
EndChar

StartChar: dollar
Encoding: 36 36 7
Width: 1202
Flags: W
LayerCount: 2
Fore
SplineSet
834 346 m 0,0,1
 834 397 834 397 815 432 c 128,-1,2
 796 467 796 467 768.5 490 c 128,-1,3
 741 513 741 513 709 526.5 c 128,-1,4
 677 540 677 540 651 547 c 1,5,-1
 651 133 l 1,6,7
 702 140 702 140 742 165 c 0,8,9
 759 175 759 175 775.5 191 c 128,-1,10
 792 207 792 207 805 228.5 c 128,-1,11
 818 250 818 250 826 279 c 128,-1,12
 834 308 834 308 834 346 c 0,0,1
530 1237 m 1,13,14
 489 1231 489 1231 456 1210 c 0,15,16
 428 1191 428 1191 405.5 1154 c 128,-1,17
 383 1117 383 1117 383 1051 c 0,18,19
 383 988 383 988 405.5 949 c 128,-1,20
 428 910 428 910 456 888 c 0,21,22
 489 862 489 862 530 850 c 1,23,-1
 530 1237 l 1,13,14
1094 420 m 0,24,25
 1094 332 1094 332 1061.5 261 c 128,-1,26
 1029 190 1029 190 970 137 c 128,-1,27
 911 84 911 84 829.5 50 c 128,-1,28
 748 16 748 16 651 2 c 1,29,-1
 651 -209 l 1,30,-1
 530 -209 l 1,31,-1
 530 0 l 1,32,33
 459 3 459 3 386 12 c 0,34,35
 323 20 323 20 250 33 c 128,-1,36
 177 46 177 46 111 68 c 1,37,-1
 111 422 l 1,38,-1
 256 422 l 1,39,-1
 299 182 l 1,40,41
 331 162 331 162 371 151 c 128,-1,42
 411 140 411 140 446 135 c 0,43,44
 487 129 487 129 530 127 c 1,45,-1
 530 578 l 1,46,47
 492 589 492 589 447 604 c 128,-1,48
 402 619 402 619 356.5 640 c 128,-1,49
 311 661 311 661 269 690.5 c 128,-1,50
 227 720 227 720 194.5 760.5 c 128,-1,51
 162 801 162 801 142.5 854.5 c 128,-1,52
 123 908 123 908 123 977 c 0,53,54
 123 1047 123 1047 140.5 1101 c 128,-1,55
 158 1155 158 1155 186.5 1196 c 128,-1,56
 215 1237 215 1237 251.5 1265.5 c 128,-1,57
 288 1294 288 1294 326 1313 c 0,58,59
 416 1358 416 1358 530 1368 c 1,60,-1
 530 1520 l 1,61,-1
 651 1520 l 1,62,-1
 651 1368 l 1,63,64
 714 1368 714 1368 779.5 1358.5 c 128,-1,65
 845 1349 845 1349 899 1338 c 0,66,67
 962 1325 962 1325 1022 1309 c 1,68,-1
 1022 967 l 1,69,-1
 881 967 l 1,70,-1
 842 1194 l 2,71,72
 840 1201 840 1201 814.5 1209.5 c 128,-1,73
 789 1218 789 1218 756.5 1225.5 c 128,-1,74
 724 1233 724 1233 693.5 1238 c 128,-1,75
 663 1243 663 1243 651 1243 c 1,76,-1
 651 821 l 1,77,78
 685 812 685 812 731 798.5 c 128,-1,79
 777 785 777 785 826 764.5 c 128,-1,80
 875 744 875 744 923 714.5 c 128,-1,81
 971 685 971 685 1009 643.5 c 128,-1,82
 1047 602 1047 602 1070.5 547 c 128,-1,83
 1094 492 1094 492 1094 420 c 0,24,25
EndSplineSet
EndChar

StartChar: percent
Encoding: 37 37 8
Width: 1831
Flags: W
LayerCount: 2
Fore
SplineSet
541 979 m 0,0,1
 541 1073 541 1073 531 1137 c 128,-1,2
 521 1201 521 1201 504 1239.5 c 128,-1,3
 487 1278 487 1278 463 1294.5 c 128,-1,4
 439 1311 439 1311 412 1311 c 0,5,6
 383 1311 383 1311 357 1294.5 c 128,-1,7
 331 1278 331 1278 310.5 1239.5 c 128,-1,8
 290 1201 290 1201 278 1137 c 128,-1,9
 266 1073 266 1073 266 979 c 0,10,11
 266 884 266 884 278 820 c 128,-1,12
 290 756 290 756 310.5 717 c 128,-1,13
 331 678 331 678 357 661.5 c 128,-1,14
 383 645 383 645 412 645 c 0,15,16
 439 645 439 645 463 661.5 c 128,-1,17
 487 678 487 678 504 717 c 128,-1,18
 521 756 521 756 531 820 c 128,-1,19
 541 884 541 884 541 979 c 0,0,1
1548 395 m 0,20,21
 1548 489 1548 489 1538.5 553 c 128,-1,22
 1529 617 1529 617 1512 655.5 c 128,-1,23
 1495 694 1495 694 1471 710.5 c 128,-1,24
 1447 727 1447 727 1419 727 c 0,25,26
 1392 727 1392 727 1366.5 710.5 c 128,-1,27
 1341 694 1341 694 1322 655.5 c 128,-1,28
 1303 617 1303 617 1291.5 553 c 128,-1,29
 1280 489 1280 489 1280 395 c 0,30,31
 1280 300 1280 300 1291.5 236.5 c 128,-1,32
 1303 173 1303 173 1322 134.5 c 128,-1,33
 1341 96 1341 96 1366.5 79.5 c 128,-1,34
 1392 63 1392 63 1419 63 c 0,35,36
 1447 63 1447 63 1471 79.5 c 128,-1,37
 1495 96 1495 96 1512 134.5 c 128,-1,38
 1529 173 1529 173 1538.5 236.5 c 128,-1,39
 1548 300 1548 300 1548 395 c 0,20,21
762 979 m 256,40,41
 762 879 762 879 740 799.5 c 128,-1,42
 718 720 718 720 674.5 664.5 c 128,-1,43
 631 609 631 609 565 579 c 128,-1,44
 499 549 499 549 412 549 c 0,45,46
 324 549 324 549 258 579 c 128,-1,47
 192 609 192 609 147.5 664.5 c 128,-1,48
 103 720 103 720 81 799.5 c 128,-1,49
 59 879 59 879 59 979 c 256,50,51
 59 1079 59 1079 81 1158 c 128,-1,52
 103 1237 103 1237 147.5 1292.5 c 128,-1,53
 192 1348 192 1348 258 1377.5 c 128,-1,54
 324 1407 324 1407 412 1407 c 0,55,56
 499 1407 499 1407 565 1377.5 c 128,-1,57
 631 1348 631 1348 674.5 1292.5 c 128,-1,58
 718 1237 718 1237 740 1158 c 128,-1,59
 762 1079 762 1079 762 979 c 256,40,41
563 0 m 1,60,-1
 418 0 l 1,61,-1
 1268 1374 l 1,62,-1
 1415 1374 l 1,63,-1
 563 0 l 1,60,-1
1772 395 m 256,64,65
 1772 295 1772 295 1749.5 216 c 128,-1,66
 1727 137 1727 137 1683 81.5 c 128,-1,67
 1639 26 1639 26 1573 -3.5 c 128,-1,68
 1507 -33 1507 -33 1419 -33 c 0,69,70
 1332 -33 1332 -33 1266.5 -3.5 c 128,-1,71
 1201 26 1201 26 1157.5 81.5 c 128,-1,72
 1114 137 1114 137 1092.5 216 c 128,-1,73
 1071 295 1071 295 1071 395 c 256,74,75
 1071 495 1071 495 1092.5 574.5 c 128,-1,76
 1114 654 1114 654 1157.5 709 c 128,-1,77
 1201 764 1201 764 1266.5 793.5 c 128,-1,78
 1332 823 1332 823 1419 823 c 0,79,80
 1507 823 1507 823 1573 793.5 c 128,-1,81
 1639 764 1639 764 1683 709 c 128,-1,82
 1727 654 1727 654 1749.5 574.5 c 128,-1,83
 1772 495 1772 495 1772 395 c 256,64,65
EndSplineSet
EndChar

StartChar: glyph9
Encoding: 38 38 9
Width: 1505
Flags: W
LayerCount: 2
Fore
SplineSet
1026 0 m 1,0,-1
 1026 49 l 1,1,-1
 940 145 l 1,2,3
 892 97 892 97 829 60 c 0,4,5
 802 44 802 44 769 28.5 c 128,-1,6
 736 13 736 13 697 1 c 128,-1,7
 658 -11 658 -11 613.5 -18 c 128,-1,8
 569 -25 569 -25 520 -25 c 0,9,10
 421 -25 421 -25 339.5 4 c 128,-1,11
 258 33 258 33 200 85.5 c 128,-1,12
 142 138 142 138 110 212 c 128,-1,13
 78 286 78 286 78 377 c 0,14,15
 78 450 78 450 98.5 506 c 128,-1,16
 119 562 119 562 157 605 c 128,-1,17
 195 648 195 648 248 678 c 128,-1,18
 301 708 301 708 365 729 c 1,19,20
 362 731 362 731 349 741 c 0,21,22
 334 752 334 752 313 771.5 c 128,-1,23
 292 791 292 791 268 818.5 c 128,-1,24
 244 846 244 846 223.5 881.5 c 128,-1,25
 203 917 203 917 189.5 960 c 128,-1,26
 176 1003 176 1003 176 1053 c 0,27,28
 176 1138 176 1138 211.5 1203 c 128,-1,29
 247 1268 247 1268 307.5 1312 c 128,-1,30
 368 1356 368 1356 449 1378.5 c 128,-1,31
 530 1401 530 1401 621 1401 c 0,32,33
 661 1401 661 1401 706.5 1395 c 128,-1,34
 752 1389 752 1389 797 1374 c 128,-1,35
 842 1359 842 1359 883.5 1335 c 128,-1,36
 925 1311 925 1311 956.5 1275.5 c 128,-1,37
 988 1240 988 1240 1007 1191 c 128,-1,38
 1026 1142 1026 1142 1026 1079 c 0,39,40
 1026 1010 1026 1010 1005 959 c 128,-1,41
 984 908 984 908 952 870.5 c 128,-1,42
 920 833 920 833 882 808.5 c 128,-1,43
 844 784 844 784 810 769.5 c 128,-1,44
 776 755 776 755 750.5 748.5 c 128,-1,45
 725 742 725 742 719 741 c 1,46,-1
 1034 414 l 1,47,48
 1058 445 1058 445 1079 481 c 0,49,50
 1097 512 1097 512 1115 553.5 c 128,-1,51
 1133 595 1133 595 1143 643 c 0,52,53
 1144 652 1144 652 1136 664 c 128,-1,54
 1128 676 1128 676 1122 678 c 2,55,-1
 1016 696 l 1,56,-1
 1016 793 l 1,57,-1
 1446 793 l 1,58,-1
 1446 696 l 1,59,-1
 1305 668 l 1,60,61
 1280 587 1280 587 1247 524 c 128,-1,62
 1214 461 1214 461 1185 417 c 0,63,64
 1150 366 1150 366 1114 328 c 1,65,-1
 1307 121 l 1,66,-1
 1473 104 l 1,67,-1
 1473 0 l 1,68,-1
 1026 0 l 1,0,-1
451 657 m 1,69,70
 423 638 423 638 402 612 c 0,71,72
 384 589 384 589 369 554 c 128,-1,73
 354 519 354 519 354 471 c 0,74,75
 354 384 354 384 380.5 323 c 128,-1,76
 407 262 407 262 450 224 c 128,-1,77
 493 186 493 186 547 169 c 128,-1,78
 601 152 601 152 655 152 c 0,79,80
 707 152 707 152 744.5 164.5 c 128,-1,81
 782 177 782 177 807 192 c 0,82,83
 836 210 836 210 856 233 c 1,84,-1
 451 657 l 1,69,70
772 1075 m 0,85,86
 772 1117 772 1117 761 1154 c 128,-1,87
 750 1191 750 1191 729 1218.5 c 128,-1,88
 708 1246 708 1246 678 1262 c 128,-1,89
 648 1278 648 1278 610 1278 c 0,90,91
 575 1278 575 1278 545 1266 c 128,-1,92
 515 1254 515 1254 493 1233 c 128,-1,93
 471 1212 471 1212 458.5 1182.5 c 128,-1,94
 446 1153 446 1153 446 1118 c 0,95,96
 446 1084 446 1084 456.5 1050.5 c 128,-1,97
 467 1017 467 1017 490.5 981 c 128,-1,98
 514 945 514 945 551 904 c 128,-1,99
 588 863 588 863 641 815 c 1,100,101
 672 843 672 843 696.5 871 c 128,-1,102
 721 899 721 899 738 929.5 c 128,-1,103
 755 960 755 960 763.5 995.5 c 128,-1,104
 772 1031 772 1031 772 1075 c 0,85,86
EndSplineSet
EndChar

StartChar: quotesingle
Encoding: 39 39 10
Width: 360
Flags: W
LayerCount: 2
Fore
SplineSet
143 854 m 1,0,-1
 63 1333 l 1,1,2
 63 1390 63 1390 90 1426 c 128,-1,3
 117 1462 117 1462 180 1462 c 0,4,5
 242 1462 242 1462 270.5 1426 c 128,-1,6
 299 1390 299 1390 299 1333 c 1,7,-1
 217 854 l 1,8,-1
 143 854 l 1,0,-1
EndSplineSet
EndChar

StartChar: parenleft
Encoding: 40 40 11
Width: 803
Flags: W
LayerCount: 2
Fore
SplineSet
733 -291 m 1,0,1
 582 -287 582 -287 467.5 -224 c 128,-1,2
 353 -161 353 -161 276 -47 c 128,-1,3
 199 67 199 67 160 228 c 128,-1,4
 121 389 121 389 121 590 c 0,5,6
 121 790 121 790 160 950.5 c 128,-1,7
 199 1111 199 1111 276 1224.5 c 128,-1,8
 353 1338 353 1338 467.5 1400.5 c 128,-1,9
 582 1463 582 1463 733 1468 c 1,10,-1
 733 1358 l 1,11,12
 625 1343 625 1343 556.5 1280.5 c 128,-1,13
 488 1218 488 1218 449 1117 c 128,-1,14
 410 1016 410 1016 395.5 881.5 c 128,-1,15
 381 747 381 747 381 590 c 0,16,17
 381 432 381 432 395.5 297.5 c 128,-1,18
 410 163 410 163 449 62 c 128,-1,19
 488 -39 488 -39 556.5 -102 c 128,-1,20
 625 -165 625 -165 733 -180 c 1,21,-1
 733 -291 l 1,0,1
EndSplineSet
EndChar

StartChar: parenright
Encoding: 41 41 12
Width: 803
Flags: W
LayerCount: 2
Fore
SplineSet
682 590 m 0,0,1
 682 389 682 389 643 228 c 128,-1,2
 604 67 604 67 526.5 -47 c 128,-1,3
 449 -161 449 -161 334.5 -224 c 128,-1,4
 220 -287 220 -287 70 -291 c 1,5,-1
 70 -180 l 1,6,7
 177 -165 177 -165 245.5 -102 c 128,-1,8
 314 -39 314 -39 353 62 c 128,-1,9
 392 163 392 163 407 297.5 c 128,-1,10
 422 432 422 432 422 590 c 0,11,12
 422 747 422 747 407 881.5 c 128,-1,13
 392 1016 392 1016 353 1117 c 128,-1,14
 314 1218 314 1218 245.5 1280.5 c 128,-1,15
 177 1343 177 1343 70 1358 c 1,16,-1
 70 1468 l 1,17,18
 220 1463 220 1463 334.5 1400.5 c 128,-1,19
 449 1338 449 1338 526.5 1224.5 c 128,-1,20
 604 1111 604 1111 643 950.5 c 128,-1,21
 682 790 682 790 682 590 c 0,0,1
EndSplineSet
EndChar

StartChar: asterisk
Encoding: 42 42 13
Width: 1024
Flags: W
LayerCount: 2
Fore
SplineSet
418 733 m 1,0,-1
 262 692 l 1,1,-1
 256 852 l 1,2,-1
 475 1012 l 1,3,-1
 500 987 l 1,4,-1
 418 733 l 1,0,-1
463 1038 m 1,5,-1
 197 1036 l 1,6,-1
 109 1169 l 1,7,-1
 256 1229 l 1,8,-1
 475 1067 l 1,9,-1
 463 1038 l 1,5,-1
762 692 m 1,10,-1
 606 733 l 1,11,-1
 524 987 l 1,12,-1
 549 1012 l 1,13,-1
 768 852 l 1,14,-1
 762 692 l 1,10,-1
528 1092 m 1,15,-1
 494 1092 l 1,16,-1
 410 1348 l 1,17,-1
 512 1470 l 1,18,-1
 614 1348 l 1,19,-1
 528 1092 l 1,15,-1
825 1036 m 1,20,-1
 561 1038 l 1,21,-1
 547 1069 l 1,22,-1
 764 1229 l 1,23,-1
 915 1169 l 1,24,-1
 825 1036 l 1,20,-1
EndSplineSet
EndChar

StartChar: plus
Encoding: 43 43 14
Width: 2048
Flags: W
LayerCount: 2
Fore
SplineSet
1087 551 m 1,0,-1
 1087 0 l 1,1,-1
 961 0 l 1,2,-1
 961 551 l 1,3,-1
 410 551 l 1,4,-1
 410 678 l 1,5,-1
 961 678 l 1,6,-1
 961 1229 l 1,7,-1
 1087 1229 l 1,8,-1
 1087 678 l 1,9,-1
 1638 678 l 1,10,-1
 1638 551 l 1,11,-1
 1087 551 l 1,0,-1
EndSplineSet
EndChar

StartChar: comma
Encoding: 44 44 15
Width: 651
Flags: W
LayerCount: 2
Fore
SplineSet
496 121 m 0,0,1
 496 57 496 57 478 -2 c 128,-1,2
 460 -61 460 -61 429.5 -113.5 c 128,-1,3
 399 -166 399 -166 357.5 -209.5 c 128,-1,4
 316 -253 316 -253 269 -285.5 c 128,-1,5
 222 -318 222 -318 171.5 -337.5 c 128,-1,6
 121 -357 121 -357 72 -360 c 1,7,-1
 72 -260 l 1,8,9
 111 -254 111 -254 155.5 -237.5 c 128,-1,10
 200 -221 200 -221 237 -189 c 128,-1,11
 274 -157 274 -157 297 -107.5 c 128,-1,12
 320 -58 320 -58 317 14 c 1,13,-1
 193 14 l 1,14,15
 174 29 174 29 162 45.5 c 128,-1,16
 150 62 150 62 142.5 79 c 128,-1,17
 135 96 135 96 132 113 c 128,-1,18
 129 130 129 130 129 145 c 0,19,20
 129 184 129 184 143.5 215.5 c 128,-1,21
 158 247 158 247 182 269.5 c 128,-1,22
 206 292 206 292 237 304.5 c 128,-1,23
 268 317 268 317 301 317 c 0,24,25
 394 317 394 317 445 264 c 128,-1,26
 496 211 496 211 496 121 c 0,0,1
EndSplineSet
EndChar

StartChar: hyphen
Encoding: 45 45 16
Width: 672
Flags: W
LayerCount: 2
Fore
SplineSet
68 385 m 1,0,-1
 68 602 l 1,1,-1
 604 602 l 1,2,-1
 604 385 l 1,3,-1
 68 385 l 1,0,-1
EndSplineSet
EndChar

StartChar: period
Encoding: 46 46 17
Width: 651
Flags: W
LayerCount: 2
Fore
SplineSet
471 145 m 0,0,1
 471 110 471 110 458 79 c 128,-1,2
 445 48 445 48 422 25 c 128,-1,3
 399 2 399 2 368 -11.5 c 128,-1,4
 337 -25 337 -25 301 -25 c 0,5,6
 266 -25 266 -25 234.5 -11.5 c 128,-1,7
 203 2 203 2 179.5 25 c 128,-1,8
 156 48 156 48 142.5 79 c 128,-1,9
 129 110 129 110 129 145 c 0,10,11
 129 181 129 181 142.5 212 c 128,-1,12
 156 243 156 243 179.5 266.5 c 128,-1,13
 203 290 203 290 234.5 303.5 c 128,-1,14
 266 317 266 317 301 317 c 0,15,16
 337 317 337 317 368 303.5 c 128,-1,17
 399 290 399 290 422 266.5 c 128,-1,18
 445 243 445 243 458 212 c 128,-1,19
 471 181 471 181 471 145 c 0,0,1
EndSplineSet
EndChar

StartChar: slash
Encoding: 47 47 18
Width: 1026
Flags: W
LayerCount: 2
Fore
SplineSet
160 -190 m 1,0,-1
 0 -190 l 1,1,-1
 864 1374 l 1,2,-1
 1026 1374 l 1,3,-1
 160 -190 l 1,0,-1
EndSplineSet
EndChar

StartChar: zero
Encoding: 48 48 19
Width: 1202
Flags: W
LayerCount: 2
Fore
SplineSet
831 686 m 256,0,1
 831 730 831 730 829 791.5 c 128,-1,2
 827 853 827 853 820 919 c 128,-1,3
 813 985 813 985 798.5 1049.5 c 128,-1,4
 784 1114 784 1114 758 1165.5 c 128,-1,5
 732 1217 732 1217 693.5 1248.5 c 128,-1,6
 655 1280 655 1280 600 1280 c 256,7,8
 545 1280 545 1280 507 1248.5 c 128,-1,9
 469 1217 469 1217 444 1165.5 c 128,-1,10
 419 1114 419 1114 404.5 1049.5 c 128,-1,11
 390 985 390 985 383 919 c 128,-1,12
 376 853 376 853 374.5 792 c 128,-1,13
 373 731 373 731 373 686 c 256,14,15
 373 641 373 641 374.5 580 c 128,-1,16
 376 519 376 519 383 453.5 c 128,-1,17
 390 388 390 388 404.5 324 c 128,-1,18
 419 260 419 260 444 209.5 c 128,-1,19
 469 159 469 159 507 127.5 c 128,-1,20
 545 96 545 96 600 96 c 256,21,22
 655 96 655 96 693.5 127.5 c 128,-1,23
 732 159 732 159 758 209.5 c 128,-1,24
 784 260 784 260 798.5 324 c 128,-1,25
 813 388 813 388 820 453.5 c 128,-1,26
 827 519 827 519 829 580.5 c 128,-1,27
 831 642 831 642 831 686 c 256,0,1
1130 686 m 256,28,29
 1130 542 1130 542 1099.5 412.5 c 128,-1,30
 1069 283 1069 283 1004.5 186 c 128,-1,31
 940 89 940 89 840 32 c 128,-1,32
 740 -25 740 -25 600 -25 c 0,33,34
 461 -25 461 -25 361.5 32 c 128,-1,35
 262 89 262 89 198 186 c 128,-1,36
 134 283 134 283 104 412.5 c 128,-1,37
 74 542 74 542 74 686 c 256,38,39
 74 830 74 830 104 959 c 128,-1,40
 134 1088 134 1088 198 1186 c 128,-1,41
 262 1284 262 1284 361.5 1341.5 c 128,-1,42
 461 1399 461 1399 600 1399 c 0,43,44
 740 1399 740 1399 840 1341.5 c 128,-1,45
 940 1284 940 1284 1004.5 1186 c 128,-1,46
 1069 1088 1069 1088 1099.5 959 c 128,-1,47
 1130 830 1130 830 1130 686 c 256,28,29
EndSplineSet
EndChar

StartChar: one
Encoding: 49 49 20
Width: 1202
Flags: W
LayerCount: 2
Fore
SplineSet
236 0 m 1,0,-1
 236 106 l 1,1,-1
 412 113 l 1,2,3
 430 115 430 115 443.5 127 c 128,-1,4
 457 139 457 139 457 158 c 2,5,-1
 457 1182 l 1,6,-1
 152 1139 l 1,7,-1
 152 1247 l 1,8,-1
 594 1407 l 1,9,-1
 745 1407 l 1,10,-1
 745 158 l 2,11,12
 745 139 745 139 758.5 127 c 128,-1,13
 772 115 772 115 791 113 c 1,14,-1
 952 106 l 1,15,-1
 952 0 l 1,16,-1
 236 0 l 1,0,-1
EndSplineSet
EndChar

StartChar: two
Encoding: 50 50 21
Width: 1202
Flags: W
LayerCount: 2
Fore
SplineSet
88 0 m 1,0,-1
 88 170 l 1,1,2
 129 204 129 204 195.5 252.5 c 128,-1,3
 262 301 262 301 337.5 361.5 c 128,-1,4
 413 422 413 422 489.5 493 c 128,-1,5
 566 564 566 564 628 643 c 128,-1,6
 690 722 690 722 729 807.5 c 128,-1,7
 768 893 768 893 768 983 c 0,8,9
 768 1044 768 1044 750 1096.5 c 128,-1,10
 732 1149 732 1149 699 1187.5 c 128,-1,11
 666 1226 666 1226 619 1248 c 128,-1,12
 572 1270 572 1270 514 1270 c 0,13,14
 493 1270 493 1270 478.5 1267.5 c 128,-1,15
 464 1265 464 1265 451.5 1261.5 c 128,-1,16
 439 1258 439 1258 426.5 1253 c 128,-1,17
 414 1248 414 1248 397 1243 c 1,18,-1
 397 967 l 1,19,20
 375 956 375 956 352 947 c 0,21,22
 332 939 332 939 307.5 933.5 c 128,-1,23
 283 928 283 928 258 928 c 0,24,25
 183 928 183 928 143.5 969.5 c 128,-1,26
 104 1011 104 1011 104 1079 c 0,27,28
 104 1143 104 1143 128.5 1192.5 c 128,-1,29
 153 1242 153 1242 194 1278.5 c 128,-1,30
 235 1315 235 1315 287.5 1339.5 c 128,-1,31
 340 1364 340 1364 395.5 1379 c 128,-1,32
 451 1394 451 1394 505.5 1400.5 c 128,-1,33
 560 1407 560 1407 604 1407 c 0,34,35
 701 1407 701 1407 786 1378 c 128,-1,36
 871 1349 871 1349 934 1296 c 128,-1,37
 997 1243 997 1243 1033 1168 c 128,-1,38
 1069 1093 1069 1093 1069 1001 c 0,39,40
 1069 891 1069 891 1015.5 793 c 128,-1,41
 962 695 962 695 867 601 c 128,-1,42
 772 507 772 507 642 414 c 128,-1,43
 512 321 512 321 360 221 c 1,44,-1
 942 221 l 1,45,-1
 981 401 l 1,46,-1
 1112 401 l 1,47,-1
 1112 0 l 1,48,-1
 88 0 l 1,0,-1
EndSplineSet
EndChar

StartChar: three
Encoding: 51 51 22
Width: 1202
Flags: W
LayerCount: 2
Fore
SplineSet
1112 393 m 0,0,1
 1112 326 1112 326 1089.5 269 c 128,-1,2
 1067 212 1067 212 1027 164.5 c 128,-1,3
 987 117 987 117 931.5 80 c 128,-1,4
 876 43 876 43 810.5 18 c 128,-1,5
 745 -7 745 -7 671.5 -20 c 128,-1,6
 598 -33 598 -33 522 -33 c 0,7,8
 422 -33 422 -33 342 -10 c 128,-1,9
 262 13 262 13 205.5 51.5 c 128,-1,10
 149 90 149 90 118.5 138.5 c 128,-1,11
 88 187 88 187 88 238 c 0,12,13
 88 281 88 281 102.5 308 c 128,-1,14
 117 335 117 335 139.5 351 c 128,-1,15
 162 367 162 367 189 373 c 128,-1,16
 216 379 216 379 240 379 c 0,17,18
 267 379 267 379 289 373.5 c 128,-1,19
 311 368 311 368 328 360 c 1,20,-1
 393 129 l 1,21,22
 427 120 427 120 464 107 c 128,-1,23
 501 94 501 94 543 94 c 0,24,25
 596 94 596 94 644.5 116.5 c 128,-1,26
 693 139 693 139 730 177.5 c 128,-1,27
 767 216 767 216 789 268.5 c 128,-1,28
 811 321 811 321 811 381 c 0,29,30
 811 429 811 429 793 474.5 c 128,-1,31
 775 520 775 520 739 554.5 c 128,-1,32
 703 589 703 589 649.5 610 c 128,-1,33
 596 631 596 631 524 631 c 0,34,35
 501 631 501 631 476 629.5 c 128,-1,36
 451 628 451 628 430 626 c 0,37,38
 405 623 405 623 381 621 c 1,39,-1
 381 774 l 1,40,41
 398 772 398 772 411 772 c 2,42,-1
 438 772 l 2,43,44
 496 772 496 772 554 783.5 c 128,-1,45
 612 795 612 795 658.5 824 c 128,-1,46
 705 853 705 853 734.5 901.5 c 128,-1,47
 764 950 764 950 764 1024 c 0,48,49
 764 1073 764 1073 744 1117.5 c 128,-1,50
 724 1162 724 1162 689 1196 c 128,-1,51
 654 1230 654 1230 606 1250 c 128,-1,52
 558 1270 558 1270 502 1270 c 0,53,54
 487 1270 487 1270 468.5 1266 c 128,-1,55
 450 1262 450 1262 433 1257 c 0,56,57
 414 1252 414 1252 393 1245 c 1,58,-1
 393 993 l 1,59,60
 365 975 365 975 336 970 c 128,-1,61
 307 965 307 965 283 965 c 0,62,63
 251 965 251 965 222 974 c 128,-1,64
 193 983 193 983 171 1001 c 128,-1,65
 149 1019 149 1019 136 1046.5 c 128,-1,66
 123 1074 123 1074 123 1112 c 0,67,68
 123 1176 123 1176 161 1230 c 128,-1,69
 199 1284 199 1284 264 1323.5 c 128,-1,70
 329 1363 329 1363 415 1385 c 128,-1,71
 501 1407 501 1407 598 1407 c 0,72,73
 682 1407 682 1407 765 1385 c 128,-1,74
 848 1363 848 1363 914 1318.5 c 128,-1,75
 980 1274 980 1274 1021.5 1206.5 c 128,-1,76
 1063 1139 1063 1139 1063 1047 c 0,77,78
 1063 982 1063 982 1041 933 c 128,-1,79
 1019 884 1019 884 985 848.5 c 128,-1,80
 951 813 951 813 909.5 789.5 c 128,-1,81
 868 766 868 766 829.5 751.5 c 128,-1,82
 791 737 791 737 760 730 c 0,83,84
 732 724 732 724 718 723 c 1,85,86
 731 722 731 722 762 720 c 0,87,88
 797 717 797 717 841.5 705.5 c 128,-1,89
 886 694 886 694 933.5 672 c 128,-1,90
 981 650 981 650 1021 613 c 128,-1,91
 1061 576 1061 576 1086.5 522 c 128,-1,92
 1112 468 1112 468 1112 393 c 0,0,1
EndSplineSet
EndChar

StartChar: four
Encoding: 52 52 23
Width: 1202
Flags: W
LayerCount: 2
Fore
SplineSet
702 1090 m 1,0,-1
 272 551 l 1,1,-1
 702 551 l 1,2,-1
 702 1090 l 1,0,-1
963 385 m 1,3,-1
 963 -33 l 1,4,-1
 702 -33 l 1,5,-1
 702 383 l 1,6,-1
 74 383 l 1,7,-1
 74 559 l 1,8,-1
 741 1407 l 1,9,-1
 963 1407 l 1,10,-1
 963 551 l 1,11,-1
 1130 551 l 1,12,-1
 1130 385 l 1,13,-1
 963 385 l 1,3,-1
EndSplineSet
EndChar

StartChar: five
Encoding: 53 53 24
Width: 1202
Flags: W
LayerCount: 2
Fore
SplineSet
1120 465 m 0,0,1
 1120 349 1120 349 1068.5 257 c 128,-1,2
 1017 165 1017 165 931.5 100.5 c 128,-1,3
 846 36 846 36 735.5 1.5 c 128,-1,4
 625 -33 625 -33 508 -33 c 0,5,6
 430 -33 430 -33 354 -16 c 128,-1,7
 278 1 278 1 218 35 c 128,-1,8
 158 69 158 69 121 119.5 c 128,-1,9
 84 170 84 170 84 236 c 0,10,11
 84 259 84 259 93.5 282.5 c 128,-1,12
 103 306 103 306 121.5 325.5 c 128,-1,13
 140 345 140 345 168 357 c 128,-1,14
 196 369 196 369 233 369 c 0,15,16
 253 369 253 369 275.5 364 c 128,-1,17
 298 359 298 359 326 350 c 1,18,-1
 391 106 l 1,19,20
 416 102 416 102 437 98 c 0,21,22
 455 95 455 95 472.5 92.5 c 128,-1,23
 490 90 490 90 498 90 c 0,24,25
 587 90 587 90 649.5 124 c 128,-1,26
 712 158 712 158 751.5 206.5 c 128,-1,27
 791 255 791 255 809 307 c 128,-1,28
 827 359 827 359 827 395 c 0,29,30
 827 464 827 464 798.5 518.5 c 128,-1,31
 770 573 770 573 720.5 611 c 128,-1,32
 671 649 671 649 604.5 669.5 c 128,-1,33
 538 690 538 690 463 690 c 0,34,35
 410 690 410 690 357 684.5 c 128,-1,36
 304 679 304 679 260 673 c 0,37,38
 209 666 209 666 162 657 c 1,39,-1
 162 1374 l 1,40,-1
 1042 1374 l 1,41,-1
 1042 1147 l 1,42,-1
 336 1147 l 1,43,-1
 336 817 l 1,44,45
 379 830 379 830 426 841 c 0,46,47
 466 850 466 850 516 858 c 128,-1,48
 566 866 566 866 618 866 c 0,49,50
 728 866 728 866 820 836.5 c 128,-1,51
 912 807 912 807 979 754 c 128,-1,52
 1046 701 1046 701 1083 627.5 c 128,-1,53
 1120 554 1120 554 1120 465 c 0,0,1
EndSplineSet
EndChar

StartChar: six
Encoding: 54 54 25
Width: 1202
Flags: W
LayerCount: 2
Fore
SplineSet
838 432 m 0,0,1
 838 499 838 499 822 555 c 128,-1,2
 806 611 806 611 773 651 c 128,-1,3
 740 691 740 691 689 713 c 128,-1,4
 638 735 638 735 569 735 c 0,5,6
 525 735 525 735 488.5 728 c 128,-1,7
 452 721 452 721 426 713 c 0,8,9
 395 703 395 703 371 692 c 1,10,11
 367 657 367 657 366.5 625.5 c 128,-1,12
 366 594 366 594 367 571 c 0,13,14
 368 543 368 543 369 520 c 1,15,16
 369 449 369 449 383 374.5 c 128,-1,17
 397 300 397 300 428 239 c 128,-1,18
 459 178 459 178 507 139 c 128,-1,19
 555 100 555 100 623 100 c 0,20,21
 677 100 677 100 717 127.5 c 128,-1,22
 757 155 757 155 784 201 c 128,-1,23
 811 247 811 247 824.5 307 c 128,-1,24
 838 367 838 367 838 432 c 0,0,1
1130 494 m 0,25,26
 1130 375 1130 375 1089.5 277.5 c 128,-1,27
 1049 180 1049 180 979 111 c 128,-1,28
 909 42 909 42 816.5 4.5 c 128,-1,29
 724 -33 724 -33 621 -33 c 0,30,31
 492 -33 492 -33 390 8 c 128,-1,32
 288 49 288 49 218 129 c 128,-1,33
 148 209 148 209 111 326.5 c 128,-1,34
 74 444 74 444 74 596 c 0,35,36
 74 797 74 797 137.5 950 c 128,-1,37
 201 1103 201 1103 317 1205 c 128,-1,38
 433 1307 433 1307 595.5 1358 c 128,-1,39
 758 1409 758 1409 956 1407 c 1,40,-1
 956 1247 l 1,41,-1
 866 1257 l 1,42,43
 755 1249 755 1249 671 1215.5 c 128,-1,44
 587 1182 587 1182 528.5 1124.5 c 128,-1,45
 470 1067 470 1067 434 987 c 128,-1,46
 398 907 398 907 383 807 c 1,47,48
 425 835 425 835 476 858 c 0,49,50
 519 877 519 877 576.5 893 c 128,-1,51
 634 909 634 909 700 909 c 0,52,53
 808 909 808 909 888.5 871.5 c 128,-1,54
 969 834 969 834 1022.5 774.5 c 128,-1,55
 1076 715 1076 715 1103 641 c 128,-1,56
 1130 567 1130 567 1130 494 c 0,25,26
EndSplineSet
EndChar

StartChar: seven
Encoding: 55 55 26
Width: 1202
Flags: W
LayerCount: 2
Fore
SplineSet
436 29 m 1,0,-1
 436 -33 l 1,1,-1
 174 -33 l 1,2,-1
 842 1128 l 1,3,-1
 250 1128 l 1,4,-1
 219 938 l 1,5,-1
 76 938 l 1,6,-1
 76 1374 l 1,7,-1
 1126 1374 l 1,8,-1
 1126 1229 l 1,9,-1
 436 29 l 1,0,-1
EndSplineSet
EndChar

StartChar: eight
Encoding: 56 56 27
Width: 1202
Flags: W
LayerCount: 2
Fore
SplineSet
850 305 m 256,0,1
 850 355 850 355 829.5 395 c 128,-1,2
 809 435 809 435 776 466.5 c 128,-1,3
 743 498 743 498 700.5 523 c 128,-1,4
 658 548 658 548 614 567.5 c 128,-1,5
 570 587 570 587 528.5 603.5 c 128,-1,6
 487 620 487 620 455 635 c 1,7,8
 446 623 446 623 426 602.5 c 128,-1,9
 406 582 406 582 386 552 c 128,-1,10
 366 522 366 522 351 482 c 128,-1,11
 336 442 336 442 336 391 c 0,12,13
 336 331 336 331 357 277.5 c 128,-1,14
 378 224 378 224 414.5 184.5 c 128,-1,15
 451 145 451 145 500 121.5 c 128,-1,16
 549 98 549 98 604 98 c 0,17,18
 652 98 652 98 696 111.5 c 128,-1,19
 740 125 740 125 774.5 151.5 c 128,-1,20
 809 178 809 178 829.5 216.5 c 128,-1,21
 850 255 850 255 850 305 c 256,0,1
823 1030 m 0,22,23
 823 1078 823 1078 807.5 1122.5 c 128,-1,24
 792 1167 792 1167 763.5 1201.5 c 128,-1,25
 735 1236 735 1236 695 1257 c 128,-1,26
 655 1278 655 1278 606 1278 c 0,27,28
 565 1278 565 1278 529.5 1262.5 c 128,-1,29
 494 1247 494 1247 467.5 1220.5 c 128,-1,30
 441 1194 441 1194 425.5 1158 c 128,-1,31
 410 1122 410 1122 410 1081 c 0,32,33
 410 1020 410 1020 437 975 c 128,-1,34
 464 930 464 930 508.5 895 c 128,-1,35
 553 860 553 860 609 832.5 c 128,-1,36
 665 805 665 805 723 780 c 1,37,38
 738 796 738 796 755.5 820 c 128,-1,39
 773 844 773 844 788 875.5 c 128,-1,40
 803 907 803 907 813 946 c 128,-1,41
 823 985 823 985 823 1030 c 0,22,23
1128 377 m 0,42,43
 1128 272 1128 272 1082.5 195 c 128,-1,44
 1037 118 1037 118 961.5 67.5 c 128,-1,45
 886 17 886 17 788.5 -8 c 128,-1,46
 691 -33 691 -33 588 -33 c 0,47,48
 477 -33 477 -33 382.5 -2.5 c 128,-1,49
 288 28 288 28 219.5 82 c 128,-1,50
 151 136 151 136 112.5 210 c 128,-1,51
 74 284 74 284 74 371 c 0,52,53
 74 454 74 454 104 509 c 128,-1,54
 134 564 134 564 177.5 599.5 c 128,-1,55
 221 635 221 635 270.5 654.5 c 128,-1,56
 320 674 320 674 358 686 c 1,57,58
 327 698 327 698 287.5 723.5 c 128,-1,59
 248 749 248 749 212.5 787.5 c 128,-1,60
 177 826 177 826 153 877.5 c 128,-1,61
 129 929 129 929 129 993 c 0,62,63
 129 1109 129 1109 173.5 1188.5 c 128,-1,64
 218 1268 218 1268 290 1316.5 c 128,-1,65
 362 1365 362 1365 451.5 1386 c 128,-1,66
 541 1407 541 1407 631 1407 c 0,67,68
 712 1407 712 1407 791.5 1385 c 128,-1,69
 871 1363 871 1363 934 1318 c 128,-1,70
 997 1273 997 1273 1036 1205.5 c 128,-1,71
 1075 1138 1075 1138 1075 1047 c 0,72,73
 1075 974 1075 974 1050 922.5 c 128,-1,74
 1025 871 1025 871 987 834.5 c 128,-1,75
 949 798 949 798 904.5 773.5 c 128,-1,76
 860 749 860 749 821 731 c 1,77,78
 835 726 835 726 863 716.5 c 128,-1,79
 891 707 891 707 925.5 689.5 c 128,-1,80
 960 672 960 672 995.5 646 c 128,-1,81
 1031 620 1031 620 1060.5 582.5 c 128,-1,82
 1090 545 1090 545 1109 494 c 128,-1,83
 1128 443 1128 443 1128 377 c 0,42,43
EndSplineSet
EndChar

StartChar: nine
Encoding: 57 57 28
Width: 1202
Flags: W
LayerCount: 2
Fore
SplineSet
836 852 m 1,0,1
 836 925 836 925 821.5 1000 c 128,-1,2
 807 1075 807 1075 776 1136 c 128,-1,3
 745 1197 745 1197 697 1235.5 c 128,-1,4
 649 1274 649 1274 582 1274 c 0,5,6
 528 1274 528 1274 487.5 1246.5 c 128,-1,7
 447 1219 447 1219 420.5 1172.5 c 128,-1,8
 394 1126 394 1126 380.5 1065.5 c 128,-1,9
 367 1005 367 1005 367 940 c 0,10,11
 367 872 367 872 383 816.5 c 128,-1,12
 399 761 399 761 432 721 c 128,-1,13
 465 681 465 681 515.5 659 c 128,-1,14
 566 637 566 637 635 637 c 0,15,16
 678 637 678 637 715 643.5 c 128,-1,17
 752 650 752 650 778 658 c 0,18,19
 809 668 809 668 834 680 c 1,20,21
 836 714 836 714 836.5 745 c 128,-1,22
 837 776 837 776 837 800 c 0,23,24
 837 828 837 828 836 852 c 1,0,1
1130 776 m 0,25,26
 1130 575 1130 575 1066.5 422.5 c 128,-1,27
 1003 270 1003 270 887 168 c 128,-1,28
 771 66 771 66 608.5 15.5 c 128,-1,29
 446 -35 446 -35 248 -33 c 1,30,-1
 248 127 l 1,31,-1
 338 117 l 1,32,33
 449 124 449 124 532.5 158 c 128,-1,34
 616 192 616 192 674.5 249 c 128,-1,35
 733 306 733 306 768.5 385.5 c 128,-1,36
 804 465 804 465 819 565 c 1,37,38
 777 536 777 536 727 514 c 0,39,40
 684 494 684 494 627 478.5 c 128,-1,41
 570 463 570 463 504 463 c 0,42,43
 396 463 396 463 315 500.5 c 128,-1,44
 234 538 234 538 180.5 598 c 128,-1,45
 127 658 127 658 100.5 732 c 128,-1,46
 74 806 74 806 74 879 c 0,47,48
 74 998 74 998 114.5 1095.5 c 128,-1,49
 155 1193 155 1193 225 1262 c 128,-1,50
 295 1331 295 1331 387.5 1369 c 128,-1,51
 480 1407 480 1407 584 1407 c 0,52,53
 712 1407 712 1407 813.5 1365.5 c 128,-1,54
 915 1324 915 1324 985.5 1243.5 c 128,-1,55
 1056 1163 1056 1163 1093 1045.5 c 128,-1,56
 1130 928 1130 928 1130 776 c 0,25,26
EndSplineSet
EndChar

StartChar: colon
Encoding: 58 58 29
Width: 651
Flags: W
LayerCount: 2
Fore
SplineSet
471 852 m 0,0,1
 471 816 471 816 458 785 c 128,-1,2
 445 754 445 754 422 731 c 128,-1,3
 399 708 399 708 368 695 c 128,-1,4
 337 682 337 682 301 682 c 0,5,6
 266 682 266 682 234.5 695 c 128,-1,7
 203 708 203 708 179.5 731 c 128,-1,8
 156 754 156 754 142.5 785 c 128,-1,9
 129 816 129 816 129 852 c 0,10,11
 129 887 129 887 142.5 918.5 c 128,-1,12
 156 950 156 950 179.5 973.5 c 128,-1,13
 203 997 203 997 234.5 1010.5 c 128,-1,14
 266 1024 266 1024 301 1024 c 0,15,16
 337 1024 337 1024 368 1010.5 c 128,-1,17
 399 997 399 997 422 973.5 c 128,-1,18
 445 950 445 950 458 918.5 c 128,-1,19
 471 887 471 887 471 852 c 0,0,1
471 145 m 0,20,21
 471 110 471 110 458 79 c 128,-1,22
 445 48 445 48 422 25 c 128,-1,23
 399 2 399 2 368 -11.5 c 128,-1,24
 337 -25 337 -25 301 -25 c 0,25,26
 266 -25 266 -25 234.5 -11.5 c 128,-1,27
 203 2 203 2 179.5 25 c 128,-1,28
 156 48 156 48 142.5 79 c 128,-1,29
 129 110 129 110 129 145 c 0,30,31
 129 181 129 181 142.5 212 c 128,-1,32
 156 243 156 243 179.5 266.5 c 128,-1,33
 203 290 203 290 234.5 303.5 c 128,-1,34
 266 317 266 317 301 317 c 0,35,36
 337 317 337 317 368 303.5 c 128,-1,37
 399 290 399 290 422 266.5 c 128,-1,38
 445 243 445 243 458 212 c 128,-1,39
 471 181 471 181 471 145 c 0,20,21
EndSplineSet
EndChar

StartChar: semicolon
Encoding: 59 59 30
Width: 651
Flags: W
LayerCount: 2
Fore
SplineSet
471 852 m 0,0,1
 471 816 471 816 458 785 c 128,-1,2
 445 754 445 754 422 731 c 128,-1,3
 399 708 399 708 368 695 c 128,-1,4
 337 682 337 682 301 682 c 0,5,6
 266 682 266 682 234.5 695 c 128,-1,7
 203 708 203 708 179.5 731 c 128,-1,8
 156 754 156 754 142.5 785 c 128,-1,9
 129 816 129 816 129 852 c 0,10,11
 129 887 129 887 142.5 918.5 c 128,-1,12
 156 950 156 950 179.5 973.5 c 128,-1,13
 203 997 203 997 234.5 1010.5 c 128,-1,14
 266 1024 266 1024 301 1024 c 0,15,16
 337 1024 337 1024 368 1010.5 c 128,-1,17
 399 997 399 997 422 973.5 c 128,-1,18
 445 950 445 950 458 918.5 c 128,-1,19
 471 887 471 887 471 852 c 0,0,1
496 121 m 0,20,21
 496 57 496 57 478 -2 c 128,-1,22
 460 -61 460 -61 429.5 -113.5 c 128,-1,23
 399 -166 399 -166 357.5 -209.5 c 128,-1,24
 316 -253 316 -253 269 -285.5 c 128,-1,25
 222 -318 222 -318 171.5 -337.5 c 128,-1,26
 121 -357 121 -357 72 -360 c 1,27,-1
 72 -260 l 1,28,29
 111 -254 111 -254 155.5 -237.5 c 128,-1,30
 200 -221 200 -221 237 -189 c 128,-1,31
 274 -157 274 -157 297 -107.5 c 128,-1,32
 320 -58 320 -58 317 14 c 1,33,-1
 193 14 l 1,34,35
 174 29 174 29 162 45.5 c 128,-1,36
 150 62 150 62 142.5 79 c 128,-1,37
 135 96 135 96 132 113 c 128,-1,38
 129 130 129 130 129 145 c 0,39,40
 129 184 129 184 143.5 215.5 c 128,-1,41
 158 247 158 247 182 269.5 c 128,-1,42
 206 292 206 292 237 304.5 c 128,-1,43
 268 317 268 317 301 317 c 0,44,45
 394 317 394 317 445 264 c 128,-1,46
 496 211 496 211 496 121 c 0,20,21
EndSplineSet
EndChar

StartChar: less
Encoding: 60 60 31
Width: 2048
Flags: W
LayerCount: 2
Fore
SplineSet
410 551 m 1,0,-1
 410 678 l 1,1,-1
 1638 1149 l 1,2,-1
 1638 1022 l 1,3,-1
 541 614 l 1,4,-1
 1638 207 l 1,5,-1
 1638 80 l 1,6,-1
 410 551 l 1,0,-1
EndSplineSet
EndChar

StartChar: equal
Encoding: 61 61 32
Width: 2048
Flags: W
LayerCount: 2
Fore
SplineSet
410 365 m 1,0,-1
 410 492 l 1,1,-1
 1638 492 l 1,2,-1
 1638 365 l 1,3,-1
 410 365 l 1,0,-1
410 737 m 1,4,-1
 410 864 l 1,5,-1
 1638 864 l 1,6,-1
 1638 737 l 1,7,-1
 410 737 l 1,4,-1
EndSplineSet
EndChar

StartChar: greater
Encoding: 62 62 33
Width: 2048
Flags: W
LayerCount: 2
Fore
SplineSet
410 80 m 1,0,-1
 410 207 l 1,1,-1
 1507 614 l 1,2,-1
 410 1022 l 1,3,-1
 410 1149 l 1,4,-1
 1638 678 l 1,5,-1
 1638 551 l 1,6,-1
 410 80 l 1,0,-1
EndSplineSet
EndChar

StartChar: question
Encoding: 63 63 34
Width: 1069
Flags: W
LayerCount: 2
Fore
SplineSet
592 133 m 256,0,1
 592 99 592 99 578.5 70 c 128,-1,2
 565 41 565 41 542 20 c 128,-1,3
 519 -1 519 -1 488.5 -13 c 128,-1,4
 458 -25 458 -25 424 -25 c 0,5,6
 391 -25 391 -25 362.5 -11.5 c 128,-1,7
 334 2 334 2 313 25 c 128,-1,8
 292 48 292 48 280 78 c 128,-1,9
 268 108 268 108 268 141 c 0,10,11
 268 175 268 175 280.5 204.5 c 128,-1,12
 293 234 293 234 314 256.5 c 128,-1,13
 335 279 335 279 364 292 c 128,-1,14
 393 305 393 305 426 305 c 0,15,16
 463 305 463 305 493.5 291 c 128,-1,17
 524 277 524 277 546 253.5 c 128,-1,18
 568 230 568 230 580 198.5 c 128,-1,19
 592 167 592 167 592 133 c 256,0,1
938 1018 m 0,20,21
 938 953 938 953 919 899.5 c 128,-1,22
 900 846 900 846 868.5 802.5 c 128,-1,23
 837 759 837 759 797.5 726 c 128,-1,24
 758 693 758 693 716 668 c 0,25,26
 618 610 618 610 494 580 c 1,27,-1
 494 406 l 1,28,-1
 354 406 l 1,29,-1
 354 678 l 1,30,31
 437 700 437 700 502 745 c 0,32,33
 530 764 530 764 556.5 790 c 128,-1,34
 583 816 583 816 604 850 c 128,-1,35
 625 884 625 884 638 926.5 c 128,-1,36
 651 969 651 969 651 1022 c 0,37,38
 651 1080 651 1080 634.5 1127.5 c 128,-1,39
 618 1175 618 1175 584.5 1209.5 c 128,-1,40
 551 1244 551 1244 500.5 1263 c 128,-1,41
 450 1282 450 1282 383 1282 c 1,42,-1
 291 1036 l 2,43,44
 290 1035 290 1035 286 1034 c 0,45,46
 283 1033 283 1033 278.5 1032.5 c 128,-1,47
 274 1032 274 1032 266 1032 c 0,48,49
 246 1032 246 1032 216 1034.5 c 128,-1,50
 186 1037 186 1037 158 1050 c 128,-1,51
 130 1063 130 1063 110 1089 c 128,-1,52
 90 1115 90 1115 90 1163 c 0,53,54
 90 1230 90 1230 126.5 1276.5 c 128,-1,55
 163 1323 163 1323 219 1352 c 128,-1,56
 275 1381 275 1381 343 1394 c 128,-1,57
 411 1407 411 1407 473 1407 c 0,58,59
 572 1407 572 1407 657 1379.5 c 128,-1,60
 742 1352 742 1352 804.5 1301.5 c 128,-1,61
 867 1251 867 1251 902.5 1179 c 128,-1,62
 938 1107 938 1107 938 1018 c 0,20,21
EndSplineSet
EndChar

StartChar: at
Encoding: 64 64 35
Width: 1917
Flags: W
LayerCount: 2
Fore
SplineSet
1798 754 m 0,0,1
 1798 652 1798 652 1775.5 564.5 c 128,-1,2
 1753 477 1753 477 1714.5 404.5 c 128,-1,3
 1676 332 1676 332 1624.5 275.5 c 128,-1,4
 1573 219 1573 219 1514 180.5 c 128,-1,5
 1455 142 1455 142 1392.5 122 c 128,-1,6
 1330 102 1330 102 1270 102 c 0,7,8
 1223 102 1223 102 1191.5 114 c 128,-1,9
 1160 126 1160 126 1139.5 145.5 c 128,-1,10
 1119 165 1119 165 1108.5 191 c 128,-1,11
 1098 217 1098 217 1094 246 c 1,12,13
 1062 219 1062 219 1029 193.5 c 128,-1,14
 996 168 996 168 961 148 c 128,-1,15
 926 128 926 128 889 116 c 128,-1,16
 852 104 852 104 813 104 c 0,17,18
 743 104 743 104 690 129.5 c 128,-1,19
 637 155 637 155 601 200.5 c 128,-1,20
 565 246 565 246 546.5 308 c 128,-1,21
 528 370 528 370 528 444 c 0,22,23
 528 559 528 559 570.5 660.5 c 128,-1,24
 613 762 613 762 686 838.5 c 128,-1,25
 759 915 759 915 857.5 959.5 c 128,-1,26
 956 1004 956 1004 1067 1004 c 0,27,28
 1091 1004 1091 1004 1115.5 998 c 128,-1,29
 1140 992 1140 992 1164 982.5 c 128,-1,30
 1188 973 1188 973 1210.5 962 c 128,-1,31
 1233 951 1233 951 1253 942 c 1,32,-1
 1280 993 l 1,33,-1
 1452 993 l 1,34,-1
 1442 955 l 2,35,36
 1435 925 1435 925 1424.5 881 c 128,-1,37
 1414 837 1414 837 1401.5 783 c 128,-1,38
 1389 729 1389 729 1376 674 c 0,39,40
 1346 545 1346 545 1309 385 c 0,41,42
 1301 351 1301 351 1297 323 c 128,-1,43
 1293 295 1293 295 1297 275 c 128,-1,44
 1301 255 1301 255 1314.5 244 c 128,-1,45
 1328 233 1328 233 1356 233 c 0,46,47
 1376 233 1376 233 1405.5 248.5 c 128,-1,48
 1435 264 1435 264 1466.5 294 c 128,-1,49
 1498 324 1498 324 1529 368.5 c 128,-1,50
 1560 413 1560 413 1584.5 470.5 c 128,-1,51
 1609 528 1609 528 1624.5 598.5 c 128,-1,52
 1640 669 1640 669 1640 752 c 0,53,54
 1640 849 1640 849 1617 927.5 c 128,-1,55
 1594 1006 1594 1006 1555 1067 c 128,-1,56
 1516 1128 1516 1128 1462.5 1172.5 c 128,-1,57
 1409 1217 1409 1217 1349 1246 c 128,-1,58
 1289 1275 1289 1275 1224 1289 c 128,-1,59
 1159 1303 1159 1303 1096 1303 c 0,60,61
 988 1303 988 1303 889.5 1276.5 c 128,-1,62
 791 1250 791 1250 705.5 1201.5 c 128,-1,63
 620 1153 620 1153 550 1083 c 128,-1,64
 480 1013 480 1013 430 925.5 c 128,-1,65
 380 838 380 838 353 735.5 c 128,-1,66
 326 633 326 633 326 518 c 0,67,68
 326 360 326 360 375 227.5 c 128,-1,69
 424 95 424 95 514 -2 c 128,-1,70
 604 -99 604 -99 731 -153 c 128,-1,71
 858 -207 858 -207 1014 -207 c 0,72,73
 1095 -207 1095 -207 1168 -193.5 c 128,-1,74
 1241 -180 1241 -180 1309 -157 c 128,-1,75
 1377 -134 1377 -134 1442.5 -102.5 c 128,-1,76
 1508 -71 1508 -71 1573 -35 c 1,77,-1
 1616 -137 l 1,78,79
 1547 -173 1547 -173 1473 -206.5 c 128,-1,80
 1399 -240 1399 -240 1319 -265.5 c 128,-1,81
 1239 -291 1239 -291 1150.5 -306.5 c 128,-1,82
 1062 -322 1062 -322 965 -322 c 0,83,84
 845 -322 845 -322 736 -296.5 c 128,-1,85
 627 -271 627 -271 533 -222 c 128,-1,86
 439 -173 439 -173 362.5 -103 c 128,-1,87
 286 -33 286 -33 232 56.5 c 128,-1,88
 178 146 178 146 148.5 252.5 c 128,-1,89
 119 359 119 359 119 481 c 0,90,91
 119 630 119 630 155 757 c 128,-1,92
 191 884 191 884 255.5 987 c 128,-1,93
 320 1090 320 1090 409 1168.5 c 128,-1,94
 498 1247 498 1247 603.5 1300 c 128,-1,95
 709 1353 709 1353 827.5 1380 c 128,-1,96
 946 1407 946 1407 1069 1407 c 0,97,98
 1235 1407 1235 1407 1370 1363 c 128,-1,99
 1505 1319 1505 1319 1600 1235.5 c 128,-1,100
 1695 1152 1695 1152 1746.5 1030.5 c 128,-1,101
 1798 909 1798 909 1798 754 c 0,0,1
1167 795 m 2,102,103
 1170 807 1170 807 1165.5 825.5 c 128,-1,104
 1161 844 1161 844 1150 861 c 128,-1,105
 1139 878 1139 878 1120 890.5 c 128,-1,106
 1101 903 1101 903 1075 903 c 0,107,108
 1013 903 1013 903 958.5 870 c 128,-1,109
 904 837 904 837 863 778.5 c 128,-1,110
 822 720 822 720 798 639 c 128,-1,111
 774 558 774 558 774 463 c 0,112,113
 774 405 774 405 785.5 364.5 c 128,-1,114
 797 324 797 324 816 298.5 c 128,-1,115
 835 273 835 273 858 261.5 c 128,-1,116
 881 250 881 250 905 250 c 0,117,118
 938 250 938 250 964.5 262.5 c 128,-1,119
 991 275 991 275 1012.5 294 c 128,-1,120
 1034 313 1034 313 1052 335 c 128,-1,121
 1070 357 1070 357 1085 375 c 1,122,-1
 1167 795 l 2,102,103
EndSplineSet
EndChar

StartChar: A
Encoding: 65 65 36
Width: 1405
Flags: W
LayerCount: 2
Fore
SplineSet
631 1092 m 1,0,-1
 459 600 l 1,1,-1
 807 600 l 1,2,-1
 631 1092 l 1,0,-1
829 0 m 1,3,-1
 829 104 l 1,4,-1
 950 119 l 2,5,6
 960 121 960 121 967 132 c 128,-1,7
 974 143 974 143 969 154 c 1,8,-1
 858 479 l 1,9,-1
 420 479 l 1,10,-1
 307 162 l 2,11,12
 301 146 301 146 313 133 c 128,-1,13
 325 120 325 120 336 119 c 2,14,-1
 451 104 l 1,15,-1
 451 0 l 1,16,-1
 10 0 l 1,17,-1
 10 104 l 1,18,-1
 125 121 l 1,19,-1
 584 1407 l 1,20,-1
 817 1407 l 1,21,-1
 1272 158 l 1,22,23
 1280 139 1280 139 1287.5 131.5 c 128,-1,24
 1295 124 1295 124 1317 119 c 2,25,-1
 1395 104 l 1,26,-1
 1395 0 l 1,27,-1
 829 0 l 1,3,-1
EndSplineSet
EndChar

StartChar: B
Encoding: 66 66 37
Width: 1309
Flags: W
LayerCount: 2
Fore
SplineSet
1233 399 m 0,0,1
 1233 303 1233 303 1212 236.5 c 128,-1,2
 1191 170 1191 170 1155.5 125.5 c 128,-1,3
 1120 81 1120 81 1072.5 56 c 128,-1,4
 1025 31 1025 31 972.5 18.5 c 128,-1,5
 920 6 920 6 865.5 3 c 128,-1,6
 811 0 811 0 760 0 c 2,7,-1
 57 0 l 1,8,-1
 57 104 l 1,9,-1
 168 115 l 2,10,11
 187 117 187 117 200 128.5 c 128,-1,12
 213 140 213 140 213 160 c 2,13,-1
 213 1214 l 2,14,15
 213 1234 213 1234 200 1246 c 128,-1,16
 187 1258 187 1258 168 1260 c 2,17,-1
 57 1270 l 1,18,-1
 57 1374 l 1,19,-1
 717 1374 l 2,20,21
 754 1374 754 1374 800.5 1370.5 c 128,-1,22
 847 1367 847 1367 895.5 1355.5 c 128,-1,23
 944 1344 944 1344 990 1323 c 128,-1,24
 1036 1302 1036 1302 1072.5 1266.5 c 128,-1,25
 1109 1231 1109 1231 1131 1179.5 c 128,-1,26
 1153 1128 1153 1128 1153 1057 c 0,27,28
 1153 995 1153 995 1136 948 c 128,-1,29
 1119 901 1119 901 1092 866 c 128,-1,30
 1065 831 1065 831 1032 807 c 128,-1,31
 999 783 999 783 966.5 767 c 128,-1,32
 934 751 934 751 906 742.5 c 128,-1,33
 878 734 878 734 863 731 c 1,34,35
 900 730 900 730 942.5 724 c 128,-1,36
 985 718 985 718 1026 703.5 c 128,-1,37
 1067 689 1067 689 1104.5 665 c 128,-1,38
 1142 641 1142 641 1170.5 604.5 c 128,-1,39
 1199 568 1199 568 1216 517.5 c 128,-1,40
 1233 467 1233 467 1233 399 c 0,0,1
926 385 m 0,41,42
 926 517 926 517 850 581 c 128,-1,43
 774 645 774 645 608 645 c 2,44,-1
 571 645 l 2,45,46
 549 645 549 645 506 643 c 1,47,-1
 506 121 l 1,48,49
 529 120 529 120 549 119 c 0,50,51
 566 118 566 118 581.5 117.5 c 128,-1,52
 597 117 597 117 602 117 c 0,53,54
 680 117 680 117 740.5 131 c 128,-1,55
 801 145 801 145 842.5 177 c 128,-1,56
 884 209 884 209 905 260 c 128,-1,57
 926 311 926 311 926 385 c 0,41,42
852 1024 m 0,58,59
 852 1069 852 1069 842 1111.5 c 128,-1,60
 832 1154 832 1154 803.5 1187 c 128,-1,61
 775 1220 775 1220 723.5 1240 c 128,-1,62
 672 1260 672 1260 590 1260 c 2,63,-1
 580 1260 l 2,64,65
 577 1260 577 1260 569.5 1259.5 c 128,-1,66
 562 1259 562 1259 547.5 1258 c 128,-1,67
 533 1257 533 1257 506 1255 c 1,68,-1
 506 768 l 1,69,70
 517 767 517 767 528 767 c 1,71,72
 537 766 537 766 545 766 c 2,73,-1
 557 766 l 2,74,75
 645 766 645 766 702 786 c 128,-1,76
 759 806 759 806 792.5 840.5 c 128,-1,77
 826 875 826 875 839 922.5 c 128,-1,78
 852 970 852 970 852 1024 c 0,58,59
EndSplineSet
EndChar

StartChar: C
Encoding: 67 67 38
Width: 1303
Flags: W
LayerCount: 2
Fore
SplineSet
1229 49 m 1,0,1
 1210 41 1210 41 1169.5 27.5 c 128,-1,2
 1129 14 1129 14 1072 0.5 c 128,-1,3
 1015 -13 1015 -13 944.5 -23 c 128,-1,4
 874 -33 874 -33 795 -33 c 0,5,6
 690 -33 690 -33 596 -9 c 128,-1,7
 502 15 502 15 422 60 c 128,-1,8
 342 105 342 105 278 169 c 128,-1,9
 214 233 214 233 169 313.5 c 128,-1,10
 124 394 124 394 100 488.5 c 128,-1,11
 76 583 76 583 76 688 c 0,12,13
 76 848 76 848 131.5 980 c 128,-1,14
 187 1112 187 1112 284 1207 c 128,-1,15
 381 1302 381 1302 513 1354.5 c 128,-1,16
 645 1407 645 1407 797 1407 c 0,17,18
 855 1407 855 1407 903 1402 c 128,-1,19
 951 1397 951 1397 999.5 1386.5 c 128,-1,20
 1048 1376 1048 1376 1102.5 1360 c 128,-1,21
 1157 1344 1157 1344 1229 1321 c 1,22,-1
 1229 973 l 1,23,-1
 1069 973 l 1,24,-1
 1024 1202 l 2,25,26
 1024 1207 1024 1207 1016 1218.5 c 128,-1,27
 1008 1230 1008 1230 997 1235 c 0,28,29
 989 1239 989 1239 972.5 1244.5 c 128,-1,30
 956 1250 956 1250 935.5 1255 c 128,-1,31
 915 1260 915 1260 893 1264 c 128,-1,32
 871 1268 871 1268 852 1268 c 0,33,34
 747 1268 747 1268 662.5 1226.5 c 128,-1,35
 578 1185 578 1185 519 1108.5 c 128,-1,36
 460 1032 460 1032 428.5 924.5 c 128,-1,37
 397 817 397 817 397 684 c 0,38,39
 397 612 397 612 408 541 c 128,-1,40
 419 470 419 470 442.5 405 c 128,-1,41
 466 340 466 340 503.5 284.5 c 128,-1,42
 541 229 541 229 593 188 c 128,-1,43
 645 147 645 147 713.5 123.5 c 128,-1,44
 782 100 782 100 868 100 c 0,45,46
 906 100 906 100 938 109.5 c 128,-1,47
 970 119 970 119 987 127 c 0,48,49
 995 130 995 130 1007 143.5 c 128,-1,50
 1019 157 1019 157 1022 166 c 1,51,-1
 1067 408 l 1,52,-1
 1229 408 l 1,53,-1
 1229 49 l 1,0,1
EndSplineSet
EndChar

StartChar: D
Encoding: 68 68 39
Width: 1483
Flags: W
LayerCount: 2
Fore
SplineSet
1077 680 m 0,0,1
 1077 798 1077 798 1059 886.5 c 128,-1,2
 1041 975 1041 975 1009.5 1038.5 c 128,-1,3
 978 1102 978 1102 935 1144 c 128,-1,4
 892 1186 892 1186 843 1210.5 c 128,-1,5
 794 1235 794 1235 741 1245 c 128,-1,6
 688 1255 688 1255 635 1255 c 2,7,-1
 506 1255 l 1,8,-1
 506 121 l 1,9,-1
 676 125 l 2,10,11
 720 126 720 126 767 137 c 128,-1,12
 814 148 814 148 858.5 173 c 128,-1,13
 903 198 903 198 942.5 239.5 c 128,-1,14
 982 281 982 281 1012 342.5 c 128,-1,15
 1042 404 1042 404 1059.5 487.5 c 128,-1,16
 1077 571 1077 571 1077 680 c 0,0,1
1407 702 m 0,17,18
 1407 526 1407 526 1356.5 394.5 c 128,-1,19
 1306 263 1306 263 1212.5 175 c 128,-1,20
 1119 87 1119 87 987 43.5 c 128,-1,21
 855 0 855 0 692 0 c 2,22,-1
 53 0 l 1,23,-1
 53 104 l 1,24,-1
 166 115 l 2,25,26
 184 117 184 117 198.5 128.5 c 128,-1,27
 213 140 213 140 213 160 c 2,28,-1
 213 1214 l 2,29,30
 213 1234 213 1234 198.5 1246 c 128,-1,31
 184 1258 184 1258 166 1260 c 2,32,-1
 53 1270 l 1,33,-1
 53 1374 l 1,34,-1
 680 1374 l 2,35,36
 855 1374 855 1374 990.5 1325 c 128,-1,37
 1126 1276 1126 1276 1218.5 1187.5 c 128,-1,38
 1311 1099 1311 1099 1359 975.5 c 128,-1,39
 1407 852 1407 852 1407 702 c 0,17,18
EndSplineSet
EndChar

StartChar: E
Encoding: 69 69 40
Width: 1225
Flags: W
LayerCount: 2
Fore
SplineSet
53 0 m 1,0,-1
 53 104 l 1,1,-1
 166 115 l 2,2,3
 184 117 184 117 198.5 128.5 c 128,-1,4
 213 140 213 140 213 160 c 2,5,-1
 213 1214 l 2,6,7
 213 1234 213 1234 198.5 1246 c 128,-1,8
 184 1258 184 1258 166 1260 c 2,9,-1
 53 1270 l 1,10,-1
 53 1374 l 1,11,-1
 1098 1374 l 1,12,-1
 1098 1047 l 1,13,-1
 950 1047 l 1,14,-1
 918 1217 l 1,15,16
 914 1232 914 1232 904.5 1243.5 c 128,-1,17
 895 1255 895 1255 881 1255 c 2,18,-1
 500 1255 l 1,19,-1
 500 774 l 1,20,-1
 743 774 l 2,21,22
 757 774 757 774 766.5 787 c 128,-1,23
 776 800 776 800 778 811 c 2,24,-1
 797 950 l 1,25,-1
 924 950 l 1,26,-1
 924 469 l 1,27,-1
 797 469 l 1,28,-1
 778 608 l 2,29,30
 776 619 776 619 766.5 632 c 128,-1,31
 757 645 757 645 743 645 c 2,32,-1
 500 645 l 1,33,-1
 500 123 l 1,34,-1
 946 123 l 2,35,36
 959 123 959 123 970 137 c 128,-1,37
 981 151 981 151 983 162 c 2,38,-1
 1014 375 l 1,39,-1
 1163 375 l 1,40,-1
 1163 0 l 1,41,-1
 53 0 l 1,0,-1
EndSplineSet
EndChar

StartChar: F
Encoding: 70 70 41
Width: 1145
Flags: W
LayerCount: 2
Fore
SplineSet
942 1024 m 1,0,-1
 913 1210 l 2,1,2
 910 1226 910 1226 900.5 1237.5 c 128,-1,3
 891 1249 891 1249 877 1249 c 2,4,-1
 506 1249 l 1,5,-1
 506 745 l 1,6,-1
 760 745 l 2,7,8
 774 745 774 745 783.5 758 c 128,-1,9
 793 771 793 771 795 782 c 2,10,-1
 815 922 l 1,11,-1
 942 922 l 1,12,-1
 942 438 l 1,13,-1
 815 438 l 1,14,-1
 795 578 l 2,15,16
 793 589 793 589 782.5 601.5 c 128,-1,17
 772 614 772 614 760 614 c 2,18,-1
 506 614 l 1,19,-1
 506 160 l 2,20,21
 506 140 506 140 519 128.5 c 128,-1,22
 532 117 532 117 551 115 c 2,23,-1
 684 104 l 1,24,-1
 684 0 l 1,25,-1
 55 0 l 1,26,-1
 55 104 l 1,27,-1
 166 115 l 2,28,29
 184 117 184 117 198.5 128.5 c 128,-1,30
 213 140 213 140 213 160 c 2,31,-1
 213 1214 l 2,32,33
 213 1234 213 1234 198.5 1246 c 128,-1,34
 184 1258 184 1258 166 1260 c 2,35,-1
 49 1270 l 1,36,-1
 49 1374 l 1,37,-1
 1090 1374 l 1,38,-1
 1090 1024 l 1,39,-1
 942 1024 l 1,0,-1
EndSplineSet
EndChar

StartChar: G
Encoding: 71 71 42
Width: 1466
Flags: W
LayerCount: 2
Fore
SplineSet
1315 565 m 2,0,1
 1296 563 1296 563 1282 551.5 c 128,-1,2
 1268 540 1268 540 1268 520 c 2,3,-1
 1268 63 l 1,4,5
 1207 36 1207 36 1133 15 c 0,6,7
 1069 -3 1069 -3 982.5 -18 c 128,-1,8
 896 -33 896 -33 793 -33 c 0,9,10
 639 -33 639 -33 508 18.5 c 128,-1,11
 377 70 377 70 281 165 c 128,-1,12
 185 260 185 260 130.5 393 c 128,-1,13
 76 526 76 526 76 690 c 0,14,15
 76 856 76 856 131 989 c 128,-1,16
 186 1122 186 1122 283.5 1215 c 128,-1,17
 381 1308 381 1308 515.5 1357.5 c 128,-1,18
 650 1407 650 1407 809 1407 c 0,19,20
 910 1407 910 1407 994 1394.5 c 128,-1,21
 1078 1382 1078 1382 1140 1367 c 0,22,23
 1212 1349 1212 1349 1270 1327 c 1,24,-1
 1270 973 l 1,25,-1
 1110 973 l 1,26,-1
 1069 1194 l 2,27,28
 1067 1205 1067 1205 1056 1218.5 c 128,-1,29
 1045 1232 1045 1232 1032 1237 c 0,30,31
 984 1255 984 1255 943 1263.5 c 128,-1,32
 902 1272 902 1272 885 1272 c 0,33,34
 796 1272 796 1272 724.5 1249.5 c 128,-1,35
 653 1227 653 1227 598.5 1187.5 c 128,-1,36
 544 1148 544 1148 505 1094 c 128,-1,37
 466 1040 466 1040 441 976 c 128,-1,38
 416 912 416 912 404.5 841.5 c 128,-1,39
 393 771 393 771 393 698 c 0,40,41
 393 566 393 566 426 459.5 c 128,-1,42
 459 353 459 353 522.5 277.5 c 128,-1,43
 586 202 586 202 679 161.5 c 128,-1,44
 772 121 772 121 893 121 c 0,45,46
 907 121 907 121 927.5 119.5 c 128,-1,47
 948 118 948 118 985 121 c 1,48,-1
 985 520 l 2,49,50
 985 540 985 540 971 552.5 c 128,-1,51
 957 565 957 565 938 565 c 1,52,-1
 801 575 l 1,53,-1
 801 680 l 1,54,-1
 1419 680 l 1,55,-1
 1419 575 l 1,56,-1
 1315 565 l 2,0,1
EndSplineSet
EndChar

StartChar: H
Encoding: 72 72 43
Width: 1575
Flags: W
LayerCount: 2
Fore
SplineSet
918 0 m 1,0,-1
 918 104 l 1,1,-1
 1024 115 l 2,2,3
 1043 117 1043 117 1056 128.5 c 128,-1,4
 1069 140 1069 140 1069 160 c 2,5,-1
 1069 655 l 1,6,-1
 506 655 l 1,7,-1
 506 160 l 2,8,9
 506 140 506 140 519 128.5 c 128,-1,10
 532 117 532 117 551 115 c 2,11,-1
 659 104 l 1,12,-1
 659 0 l 1,13,-1
 61 0 l 1,14,-1
 61 104 l 1,15,-1
 168 115 l 2,16,17
 187 117 187 117 200 128.5 c 128,-1,18
 213 140 213 140 213 160 c 2,19,-1
 213 1214 l 2,20,21
 213 1234 213 1234 200 1246 c 128,-1,22
 187 1258 187 1258 168 1260 c 2,23,-1
 61 1270 l 1,24,-1
 61 1374 l 1,25,-1
 659 1374 l 1,26,-1
 659 1270 l 1,27,-1
 551 1260 l 2,28,29
 532 1258 532 1258 519 1246 c 128,-1,30
 506 1234 506 1234 506 1214 c 2,31,-1
 506 786 l 1,32,-1
 1069 786 l 1,33,-1
 1069 1214 l 2,34,35
 1069 1234 1069 1234 1056 1246 c 128,-1,36
 1043 1258 1043 1258 1024 1260 c 2,37,-1
 918 1270 l 1,38,-1
 918 1374 l 1,39,-1
 1513 1374 l 1,40,-1
 1513 1270 l 1,41,-1
 1407 1260 l 2,42,43
 1390 1258 1390 1258 1376 1246 c 128,-1,44
 1362 1234 1362 1234 1362 1214 c 2,45,-1
 1362 160 l 2,46,47
 1362 140 1362 140 1375 128.5 c 128,-1,48
 1388 117 1388 117 1407 115 c 2,49,-1
 1513 104 l 1,50,-1
 1513 0 l 1,51,-1
 918 0 l 1,0,-1
EndSplineSet
EndChar

StartChar: I
Encoding: 73 73 44
Width: 735
Flags: W
LayerCount: 2
Fore
SplineSet
47 0 m 1,0,-1
 47 104 l 1,1,-1
 174 115 l 2,2,3
 193 117 193 117 206 128.5 c 128,-1,4
 219 140 219 140 219 160 c 2,5,-1
 219 1214 l 2,6,7
 219 1234 219 1234 206 1246 c 128,-1,8
 193 1258 193 1258 174 1260 c 2,9,-1
 47 1270 l 1,10,-1
 47 1374 l 1,11,-1
 686 1374 l 1,12,-1
 686 1270 l 1,13,-1
 559 1260 l 2,14,15
 542 1258 542 1258 527 1246 c 128,-1,16
 512 1234 512 1234 512 1214 c 2,17,-1
 512 160 l 2,18,19
 512 140 512 140 527 128.5 c 128,-1,20
 542 117 542 117 559 115 c 2,21,-1
 686 104 l 1,22,-1
 686 0 l 1,23,-1
 47 0 l 1,0,-1
EndSplineSet
EndChar

StartChar: J
Encoding: 74 74 45
Width: 1049
Flags: W
LayerCount: 2
Fore
SplineSet
879 1260 m 2,0,1
 860 1258 860 1258 847 1246 c 128,-1,2
 834 1234 834 1234 834 1214 c 2,3,-1
 834 496 l 2,4,5
 834 377 834 377 806 280 c 128,-1,6
 778 183 778 183 719.5 113 c 128,-1,7
 661 43 661 43 570.5 5 c 128,-1,8
 480 -33 480 -33 354 -33 c 0,9,10
 312 -33 312 -33 268 -27 c 128,-1,11
 224 -21 224 -21 183.5 -12.5 c 128,-1,12
 143 -4 143 -4 108 6 c 128,-1,13
 73 16 73 16 49 25 c 1,14,-1
 49 399 l 1,15,-1
 209 399 l 1,16,-1
 256 125 l 1,17,18
 259 115 259 115 266 107 c 0,19,20
 272 100 272 100 282 95 c 128,-1,21
 292 90 292 90 309 90 c 0,22,23
 366 90 366 90 409.5 111 c 128,-1,24
 453 132 453 132 483 180 c 128,-1,25
 513 228 513 228 528 307 c 128,-1,26
 543 386 543 386 543 502 c 2,27,-1
 543 1214 l 2,28,29
 543 1234 543 1234 529 1246 c 128,-1,30
 515 1258 515 1258 498 1260 c 2,31,-1
 371 1270 l 1,32,-1
 371 1374 l 1,33,-1
 1004 1374 l 1,34,-1
 1004 1270 l 1,35,-1
 879 1260 l 2,0,1
EndSplineSet
EndChar

StartChar: K
Encoding: 75 75 46
Width: 1397
Flags: W
LayerCount: 2
Fore
SplineSet
952 0 m 1,0,-1
 952 76 l 1,1,-1
 618 600 l 1,2,-1
 506 600 l 1,3,-1
 506 160 l 2,4,5
 506 140 506 140 519 128.5 c 128,-1,6
 532 117 532 117 551 115 c 2,7,-1
 659 104 l 1,8,-1
 659 0 l 1,9,-1
 59 0 l 1,10,-1
 59 104 l 1,11,-1
 168 115 l 2,12,13
 187 117 187 117 200 128.5 c 128,-1,14
 213 140 213 140 213 160 c 2,15,-1
 213 1214 l 2,16,17
 213 1234 213 1234 200 1246 c 128,-1,18
 187 1258 187 1258 168 1260 c 2,19,-1
 59 1270 l 1,20,-1
 59 1374 l 1,21,-1
 659 1374 l 1,22,-1
 659 1270 l 1,23,-1
 551 1260 l 2,24,25
 532 1258 532 1258 519 1246 c 128,-1,26
 506 1234 506 1234 506 1214 c 2,27,-1
 506 698 l 1,28,-1
 563 698 l 1,29,-1
 1004 1235 l 2,30,31
 1009 1241 1009 1241 1006.5 1250.5 c 128,-1,32
 1004 1260 1004 1260 993 1260 c 2,33,-1
 877 1270 l 1,34,-1
 877 1374 l 1,35,-1
 1346 1374 l 1,36,-1
 1346 1270 l 1,37,38
 1324 1268 1324 1268 1299 1266 c 0,39,40
 1278 1264 1278 1264 1252.5 1261.5 c 128,-1,41
 1227 1259 1227 1259 1202 1257 c 1,42,-1
 821 803 l 1,43,-1
 1251 117 l 1,44,-1
 1397 104 l 1,45,-1
 1397 0 l 1,46,-1
 952 0 l 1,0,-1
EndSplineSet
EndChar

StartChar: L
Encoding: 76 76 47
Width: 1135
Flags: W
LayerCount: 2
Fore
SplineSet
55 0 m 1,0,-1
 55 104 l 1,1,-1
 168 115 l 2,2,3
 187 117 187 117 200 128.5 c 128,-1,4
 213 140 213 140 213 160 c 2,5,-1
 213 1214 l 2,6,7
 213 1234 213 1234 200 1246 c 128,-1,8
 187 1258 187 1258 168 1260 c 2,9,-1
 55 1270 l 1,10,-1
 55 1374 l 1,11,-1
 666 1374 l 1,12,-1
 666 1270 l 1,13,-1
 551 1260 l 2,14,15
 532 1258 532 1258 519 1246 c 128,-1,16
 506 1234 506 1234 506 1214 c 2,17,-1
 506 125 l 1,18,-1
 862 125 l 2,19,20
 873 125 873 125 881.5 130 c 128,-1,21
 890 135 890 135 896.5 142.5 c 128,-1,22
 903 150 903 150 906.5 158 c 128,-1,23
 910 166 910 166 911 172 c 2,24,-1
 938 408 l 1,25,-1
 1102 408 l 1,26,-1
 1102 0 l 1,27,-1
 55 0 l 1,0,-1
EndSplineSet
EndChar

StartChar: M
Encoding: 77 77 48
Width: 1849
Flags: W
LayerCount: 2
Fore
SplineSet
1196 0 m 1,0,-1
 1196 104 l 1,1,-1
 1296 115 l 2,2,3
 1313 117 1313 117 1327 128.5 c 128,-1,4
 1341 140 1341 140 1341 160 c 2,5,-1
 1341 1235 l 1,6,-1
 930 0 l 1,7,-1
 772 0 l 1,8,-1
 369 1227 l 1,9,-1
 369 160 l 2,10,11
 369 140 369 140 383 128.5 c 128,-1,12
 397 117 397 117 414 115 c 2,13,-1
 524 104 l 1,14,-1
 524 0 l 1,15,-1
 51 0 l 1,16,-1
 51 104 l 1,17,-1
 166 115 l 2,18,19
 184 117 184 117 198.5 128.5 c 128,-1,20
 213 140 213 140 213 160 c 2,21,-1
 213 1214 l 2,22,23
 213 1234 213 1234 198.5 1246 c 128,-1,24
 184 1258 184 1258 166 1260 c 2,25,-1
 51 1270 l 1,26,-1
 51 1374 l 1,27,-1
 639 1374 l 1,28,-1
 639 1317 l 1,29,-1
 928 440 l 1,30,-1
 1214 1317 l 1,31,-1
 1214 1374 l 1,32,-1
 1796 1374 l 1,33,-1
 1796 1270 l 1,34,-1
 1679 1260 l 2,35,36
 1661 1258 1661 1258 1647.5 1246 c 128,-1,37
 1634 1234 1634 1234 1634 1214 c 2,38,-1
 1634 160 l 2,39,40
 1634 140 1634 140 1647.5 128.5 c 128,-1,41
 1661 117 1661 117 1679 115 c 2,42,-1
 1796 104 l 1,43,-1
 1796 0 l 1,44,-1
 1196 0 l 1,0,-1
EndSplineSet
EndChar

StartChar: N
Encoding: 78 78 49
Width: 1524
Flags: W
LayerCount: 2
Fore
SplineSet
1354 1260 m 2,0,1
 1337 1258 1337 1258 1323 1246 c 128,-1,2
 1309 1234 1309 1234 1309 1214 c 2,3,-1
 1309 0 l 1,4,-1
 1059 0 l 1,5,-1
 369 1083 l 1,6,-1
 369 160 l 2,7,8
 369 140 369 140 383 128.5 c 128,-1,9
 397 117 397 117 414 115 c 2,10,-1
 528 104 l 1,11,-1
 528 0 l 1,12,-1
 55 0 l 1,13,-1
 55 104 l 1,14,-1
 168 115 l 2,15,16
 187 117 187 117 200 128.5 c 128,-1,17
 213 140 213 140 213 160 c 2,18,-1
 213 1214 l 2,19,20
 213 1234 213 1234 200 1246 c 128,-1,21
 187 1258 187 1258 168 1260 c 2,22,-1
 57 1270 l 1,23,-1
 57 1374 l 1,24,-1
 563 1374 l 1,25,-1
 563 1319 l 1,26,-1
 1153 395 l 1,27,-1
 1153 1214 l 2,28,29
 1153 1234 1153 1234 1138.5 1246 c 128,-1,30
 1124 1258 1124 1258 1106 1260 c 2,31,-1
 989 1270 l 1,32,-1
 989 1374 l 1,33,-1
 1464 1374 l 1,34,-1
 1464 1270 l 1,35,-1
 1354 1260 l 2,0,1
EndSplineSet
EndChar

StartChar: O
Encoding: 79 79 50
Width: 1548
Flags: W
LayerCount: 2
Fore
SplineSet
1145 672 m 0,0,1
 1145 792 1145 792 1122.5 900.5 c 128,-1,2
 1100 1009 1100 1009 1055 1091 c 128,-1,3
 1010 1173 1010 1173 942.5 1221.5 c 128,-1,4
 875 1270 875 1270 786 1270 c 0,5,6
 715 1270 715 1270 659 1246 c 128,-1,7
 603 1222 603 1222 560.5 1180.5 c 128,-1,8
 518 1139 518 1139 488 1083 c 128,-1,9
 458 1027 458 1027 439 962.5 c 128,-1,10
 420 898 420 898 411.5 828.5 c 128,-1,11
 403 759 403 759 403 690 c 0,12,13
 403 617 403 617 412.5 545 c 128,-1,14
 422 473 422 473 441 407 c 128,-1,15
 460 341 460 341 490 284 c 128,-1,16
 520 227 520 227 560 185.5 c 128,-1,17
 600 144 600 144 651.5 120 c 128,-1,18
 703 96 703 96 766 96 c 0,19,20
 834 96 834 96 889 120.5 c 128,-1,21
 944 145 944 145 986 187 c 128,-1,22
 1028 229 1028 229 1058 285 c 128,-1,23
 1088 341 1088 341 1107.5 405 c 128,-1,24
 1127 469 1127 469 1136 537.5 c 128,-1,25
 1145 606 1145 606 1145 672 c 0,0,1
1475 680 m 0,26,27
 1475 533 1475 533 1425.5 403.5 c 128,-1,28
 1376 274 1376 274 1285 177 c 128,-1,29
 1194 80 1194 80 1067 23.5 c 128,-1,30
 940 -33 940 -33 786 -33 c 0,31,32
 633 -33 633 -33 502.5 15.5 c 128,-1,33
 372 64 372 64 277.5 157 c 128,-1,34
 183 250 183 250 129.5 386 c 128,-1,35
 76 522 76 522 76 696 c 0,36,37
 76 847 76 847 123 977.5 c 128,-1,38
 170 1108 170 1108 258.5 1203 c 128,-1,39
 347 1298 347 1298 475.5 1352.5 c 128,-1,40
 604 1407 604 1407 768 1407 c 0,41,42
 874 1407 874 1407 968 1380.5 c 128,-1,43
 1062 1354 1062 1354 1140.5 1306.5 c 128,-1,44
 1219 1259 1219 1259 1281 1192.5 c 128,-1,45
 1343 1126 1343 1126 1386 1045 c 128,-1,46
 1429 964 1429 964 1452 871.5 c 128,-1,47
 1475 779 1475 779 1475 680 c 0,26,27
EndSplineSet
EndChar

StartChar: P
Encoding: 80 80 51
Width: 1253
Flags: W
LayerCount: 2
Fore
SplineSet
1178 958 m 0,0,1
 1178 870 1178 870 1156.5 802.5 c 128,-1,2
 1135 735 1135 735 1097 684.5 c 128,-1,3
 1059 634 1059 634 1007.5 599.5 c 128,-1,4
 956 565 956 565 896.5 544 c 128,-1,5
 837 523 837 523 771.5 513.5 c 128,-1,6
 706 504 706 504 641 504 c 0,7,8
 612 504 612 504 580 503.5 c 128,-1,9
 548 503 548 503 506 508 c 1,10,-1
 506 160 l 2,11,12
 506 140 506 140 519 128.5 c 128,-1,13
 532 117 532 117 551 115 c 2,14,-1
 680 104 l 1,15,-1
 680 0 l 1,16,-1
 53 0 l 1,17,-1
 53 104 l 1,18,-1
 166 115 l 2,19,20
 184 117 184 117 198.5 128.5 c 128,-1,21
 213 140 213 140 213 160 c 2,22,-1
 213 1214 l 2,23,24
 213 1234 213 1234 198.5 1246 c 128,-1,25
 184 1258 184 1258 166 1260 c 2,26,-1
 47 1270 l 1,27,-1
 47 1374 l 1,28,-1
 621 1374 l 2,29,30
 690 1374 690 1374 758 1368.5 c 128,-1,31
 826 1363 826 1363 888 1346.5 c 128,-1,32
 950 1330 950 1330 1003 1301.5 c 128,-1,33
 1056 1273 1056 1273 1095 1226.5 c 128,-1,34
 1134 1180 1134 1180 1156 1114 c 128,-1,35
 1178 1048 1178 1048 1178 958 c 0,0,1
872 948 m 0,36,37
 872 1020 872 1020 854 1076 c 128,-1,38
 836 1132 836 1132 803 1170.5 c 128,-1,39
 770 1209 770 1209 724 1229 c 128,-1,40
 678 1249 678 1249 621 1249 c 2,41,-1
 506 1249 l 1,42,-1
 506 631 l 1,43,44
 518 630 518 630 525.5 629.5 c 128,-1,45
 533 629 533 629 538 629 c 2,46,-1
 561 629 l 1,47,48
 632 630 632 630 689.5 647 c 128,-1,49
 747 664 747 664 787.5 702 c 128,-1,50
 828 740 828 740 850 800.5 c 128,-1,51
 872 861 872 861 872 948 c 0,36,37
EndSplineSet
EndChar

StartChar: Q
Encoding: 81 81 52
Width: 1548
Flags: W
LayerCount: 2
Fore
SplineSet
1145 672 m 0,0,1
 1145 792 1145 792 1122.5 900.5 c 128,-1,2
 1100 1009 1100 1009 1055 1091 c 128,-1,3
 1010 1173 1010 1173 942.5 1221.5 c 128,-1,4
 875 1270 875 1270 786 1270 c 0,5,6
 715 1270 715 1270 659 1246 c 128,-1,7
 603 1222 603 1222 560.5 1180.5 c 128,-1,8
 518 1139 518 1139 488 1083 c 128,-1,9
 458 1027 458 1027 439 962.5 c 128,-1,10
 420 898 420 898 411.5 828.5 c 128,-1,11
 403 759 403 759 403 690 c 0,12,13
 403 617 403 617 412.5 545 c 128,-1,14
 422 473 422 473 441 407 c 128,-1,15
 460 341 460 341 490 284 c 128,-1,16
 520 227 520 227 560 185.5 c 128,-1,17
 600 144 600 144 651.5 120 c 128,-1,18
 703 96 703 96 766 96 c 0,19,20
 834 96 834 96 889 120.5 c 128,-1,21
 944 145 944 145 986 187 c 128,-1,22
 1028 229 1028 229 1058 285 c 128,-1,23
 1088 341 1088 341 1107.5 405 c 128,-1,24
 1127 469 1127 469 1136 537.5 c 128,-1,25
 1145 606 1145 606 1145 672 c 0,0,1
1407 -330 m 1,26,27
 1301 -354 1301 -354 1214 -365.5 c 128,-1,28
 1127 -377 1127 -377 1044 -377 c 0,29,30
 934 -377 934 -377 856 -351.5 c 128,-1,31
 778 -326 778 -326 729 -279.5 c 128,-1,32
 680 -233 680 -233 657 -167 c 128,-1,33
 634 -101 634 -101 633 -20 c 1,34,35
 509 2 509 2 406.5 59.5 c 128,-1,36
 304 117 304 117 230.5 208 c 128,-1,37
 157 299 157 299 116.5 421.5 c 128,-1,38
 76 544 76 544 76 696 c 0,39,40
 76 847 76 847 123 977.5 c 128,-1,41
 170 1108 170 1108 258.5 1203 c 128,-1,42
 347 1298 347 1298 475.5 1352.5 c 128,-1,43
 604 1407 604 1407 768 1407 c 0,44,45
 874 1407 874 1407 968 1380.5 c 128,-1,46
 1062 1354 1062 1354 1140.5 1306.5 c 128,-1,47
 1219 1259 1219 1259 1281 1192.5 c 128,-1,48
 1343 1126 1343 1126 1386 1045 c 128,-1,49
 1429 964 1429 964 1452 871.5 c 128,-1,50
 1475 779 1475 779 1475 680 c 0,51,52
 1475 552 1475 552 1437 437 c 128,-1,53
 1399 322 1399 322 1329 229.5 c 128,-1,54
 1259 137 1259 137 1159.5 73 c 128,-1,55
 1060 9 1060 9 938 -16 c 1,56,57
 936 -72 936 -72 958.5 -114.5 c 128,-1,58
 981 -157 981 -157 1019.5 -186.5 c 128,-1,59
 1058 -216 1058 -216 1109.5 -231 c 128,-1,60
 1161 -246 1161 -246 1217 -246 c 0,61,62
 1247 -246 1247 -246 1293 -241.5 c 128,-1,63
 1339 -237 1339 -237 1407 -221 c 1,64,-1
 1407 -330 l 1,26,27
EndSplineSet
EndChar

StartChar: R
Encoding: 82 82 53
Width: 1442
Flags: W
LayerCount: 2
Fore
SplineSet
1442 0 m 1,0,1
 1374 -8 1374 -8 1325.5 -20.5 c 128,-1,2
 1277 -33 1277 -33 1239 -33 c 0,3,4
 1140 -33 1140 -33 1074 -5.5 c 128,-1,5
 1008 22 1008 22 964.5 66.5 c 128,-1,6
 921 111 921 111 894 168 c 128,-1,7
 867 225 867 225 845.5 284.5 c 128,-1,8
 824 344 824 344 803 401 c 128,-1,9
 782 458 782 458 750 502.5 c 128,-1,10
 718 547 718 547 670 574.5 c 128,-1,11
 622 602 622 602 547 602 c 2,12,-1
 506 602 l 1,13,-1
 506 160 l 2,14,15
 506 140 506 140 519 128.5 c 128,-1,16
 532 117 532 117 551 115 c 2,17,-1
 664 104 l 1,18,-1
 664 0 l 1,19,-1
 57 0 l 1,20,-1
 57 104 l 1,21,-1
 166 115 l 2,22,23
 184 117 184 117 198.5 128.5 c 128,-1,24
 213 140 213 140 213 160 c 2,25,-1
 213 1214 l 2,26,27
 213 1234 213 1234 198.5 1246 c 128,-1,28
 184 1258 184 1258 166 1260 c 2,29,-1
 57 1270 l 1,30,-1
 57 1374 l 1,31,-1
 737 1374 l 2,32,33
 775 1374 775 1374 823 1369 c 128,-1,34
 871 1364 871 1364 920.5 1350.5 c 128,-1,35
 970 1337 970 1337 1017.5 1313 c 128,-1,36
 1065 1289 1065 1289 1102 1251.5 c 128,-1,37
 1139 1214 1139 1214 1161.5 1160.5 c 128,-1,38
 1184 1107 1184 1107 1184 1034 c 0,39,40
 1184 965 1184 965 1165.5 913 c 128,-1,41
 1147 861 1147 861 1116.5 822.5 c 128,-1,42
 1086 784 1086 784 1047.5 757.5 c 128,-1,43
 1009 731 1009 731 969 714.5 c 128,-1,44
 929 698 929 698 892 689 c 128,-1,45
 855 680 855 680 827 676 c 1,46,47
 894 663 894 663 941 637.5 c 128,-1,48
 988 612 988 612 1020 578 c 128,-1,49
 1052 544 1052 544 1072.5 504 c 128,-1,50
 1093 464 1093 464 1107.5 421.5 c 128,-1,51
 1122 379 1122 379 1133.5 337 c 128,-1,52
 1145 295 1145 295 1160 257 c 128,-1,53
 1175 219 1175 219 1195.5 187.5 c 128,-1,54
 1216 156 1216 156 1248 134.5 c 128,-1,55
 1280 113 1280 113 1327 104.5 c 128,-1,56
 1374 96 1374 96 1442 104 c 1,57,-1
 1442 0 l 1,0,1
877 995 m 0,58,59
 877 1125 877 1125 799 1188 c 128,-1,60
 721 1251 721 1251 571 1251 c 1,61,62
 563 1252 563 1252 552 1252 c 2,63,-1
 531 1252 l 2,64,65
 519 1252 519 1252 506 1251 c 1,66,-1
 506 727 l 1,67,68
 532 725 532 725 548.5 724 c 128,-1,69
 565 723 565 723 573 723 c 0,70,71
 621 723 621 723 674.5 732.5 c 128,-1,72
 728 742 728 742 773 771.5 c 128,-1,73
 818 801 818 801 847.5 854.5 c 128,-1,74
 877 908 877 908 877 995 c 0,58,59
EndSplineSet
EndChar

StartChar: S
Encoding: 83 83 54
Width: 1098
Flags: W
LayerCount: 2
Fore
SplineSet
1022 401 m 0,0,1
 1022 293 1022 293 977 211.5 c 128,-1,2
 932 130 932 130 856.5 76 c 128,-1,3
 781 22 781 22 682 -5.5 c 128,-1,4
 583 -33 583 -33 475 -33 c 0,5,6
 394 -33 394 -33 322.5 -21 c 128,-1,7
 251 -9 251 -9 196 6 c 0,8,9
 132 23 132 23 76 45 c 1,10,-1
 76 420 l 1,11,-1
 238 420 l 1,12,-1
 272 172 l 2,13,14
 274 160 274 160 284 150.5 c 128,-1,15
 294 141 294 141 299 141 c 1,16,17
 323 131 323 131 349 123 c 0,18,19
 372 116 372 116 400 111 c 128,-1,20
 428 106 428 106 457 106 c 0,21,22
 502 106 502 106 549 117 c 128,-1,23
 596 128 596 128 634.5 151 c 128,-1,24
 673 174 673 174 697 211 c 128,-1,25
 721 248 721 248 721 299 c 0,26,27
 721 363 721 363 691 409.5 c 128,-1,28
 661 456 661 456 613 493.5 c 128,-1,29
 565 531 565 531 504.5 562.5 c 128,-1,30
 444 594 444 594 383 627 c 0,31,32
 329 656 329 656 278.5 689.5 c 128,-1,33
 228 723 228 723 189 766 c 128,-1,34
 150 809 150 809 127 864 c 128,-1,35
 104 919 104 919 104 991 c 0,36,37
 104 1091 104 1091 144 1168.5 c 128,-1,38
 184 1246 184 1246 252 1299 c 128,-1,39
 320 1352 320 1352 409.5 1379.5 c 128,-1,40
 499 1407 499 1407 598 1407 c 0,41,42
 676 1407 676 1407 746 1394 c 128,-1,43
 816 1381 816 1381 870 1366 c 0,44,45
 932 1348 932 1348 985 1325 c 1,46,-1
 985 989 l 1,47,-1
 827 989 l 1,48,-1
 793 1208 l 2,49,50
 792 1212 792 1212 787.5 1217 c 128,-1,51
 783 1222 783 1222 778 1227 c 0,52,53
 772 1232 772 1232 764 1237 c 1,54,55
 753 1246 753 1246 735 1253 c 0,56,57
 720 1259 720 1259 697 1264.5 c 128,-1,58
 674 1270 674 1270 641 1270 c 0,59,60
 590 1270 590 1270 544.5 1258 c 128,-1,61
 499 1246 499 1246 464.5 1223 c 128,-1,62
 430 1200 430 1200 409.5 1165 c 128,-1,63
 389 1130 389 1130 389 1085 c 0,64,65
 389 1031 389 1031 412 989.5 c 128,-1,66
 435 948 435 948 473.5 915 c 128,-1,67
 512 882 512 882 562 855 c 128,-1,68
 612 828 612 828 666 801 c 0,69,70
 730 769 730 769 793.5 734 c 128,-1,71
 857 699 857 699 908 653.5 c 128,-1,72
 959 608 959 608 990.5 547 c 128,-1,73
 1022 486 1022 486 1022 401 c 0,0,1
EndSplineSet
EndChar

StartChar: T
Encoding: 84 84 55
Width: 1247
Flags: W
LayerCount: 2
Fore
SplineSet
1065 999 m 1,0,-1
 1028 1227 l 2,1,2
 1025 1251 1025 1251 999 1251 c 2,3,-1
 770 1251 l 1,4,-1
 770 160 l 2,5,6
 770 140 770 140 783.5 128.5 c 128,-1,7
 797 117 797 117 815 115 c 2,8,-1
 936 104 l 1,9,-1
 936 0 l 1,10,-1
 311 0 l 1,11,-1
 311 104 l 1,12,-1
 430 115 l 2,13,14
 449 117 449 117 463 128.5 c 128,-1,15
 477 140 477 140 477 160 c 2,16,-1
 477 1251 l 1,17,-1
 248 1251 l 2,18,19
 220 1251 220 1251 217 1227 c 2,20,-1
 180 999 l 1,21,-1
 33 999 l 1,22,-1
 33 1374 l 1,23,-1
 1214 1374 l 1,24,-1
 1214 999 l 1,25,-1
 1065 999 l 1,0,-1
EndSplineSet
EndChar

StartChar: U
Encoding: 85 85 56
Width: 1493
Flags: W
LayerCount: 2
Fore
SplineSet
1331 1260 m 2,0,1
 1314 1258 1314 1258 1300 1246 c 128,-1,2
 1286 1234 1286 1234 1286 1214 c 2,3,-1
 1286 520 l 2,4,5
 1286 369 1286 369 1252 263.5 c 128,-1,6
 1218 158 1218 158 1149 92 c 128,-1,7
 1080 26 1080 26 974.5 -3.5 c 128,-1,8
 869 -33 869 -33 725 -33 c 0,9,10
 461 -33 461 -33 332 108.5 c 128,-1,11
 203 250 203 250 203 520 c 2,12,-1
 203 1214 l 2,13,14
 203 1234 203 1234 188.5 1246 c 128,-1,15
 174 1258 174 1258 156 1260 c 2,16,-1
 45 1270 l 1,17,-1
 45 1374 l 1,18,-1
 651 1374 l 1,19,-1
 651 1270 l 1,20,-1
 541 1260 l 2,21,22
 524 1258 524 1258 510 1246 c 128,-1,23
 496 1234 496 1234 496 1214 c 2,24,-1
 496 504 l 2,25,26
 496 312 496 312 577 224.5 c 128,-1,27
 658 137 658 137 827 137 c 0,28,29
 908 137 908 137 965 163.5 c 128,-1,30
 1022 190 1022 190 1059 238 c 128,-1,31
 1096 286 1096 286 1113 353.5 c 128,-1,32
 1130 421 1130 421 1130 504 c 2,33,-1
 1130 1214 l 2,34,35
 1130 1234 1130 1234 1117 1246 c 128,-1,36
 1104 1258 1104 1258 1085 1260 c 2,37,-1
 969 1270 l 1,38,-1
 969 1374 l 1,39,-1
 1440 1374 l 1,40,-1
 1440 1270 l 1,41,-1
 1331 1260 l 2,0,1
EndSplineSet
EndChar

StartChar: V
Encoding: 86 86 57
Width: 1446
Flags: W
LayerCount: 2
Fore
SplineSet
1296 1253 m 1,0,-1
 825 -33 l 1,1,-1
 631 -33 l 1,2,-1
 152 1251 l 1,3,-1
 20 1270 l 1,4,-1
 20 1374 l 1,5,-1
 604 1374 l 1,6,-1
 604 1270 l 1,7,-1
 489 1255 l 2,8,9
 471 1252 471 1252 467.5 1237.5 c 128,-1,10
 464 1223 464 1223 469 1210 c 2,11,-1
 793 319 l 1,12,-1
 1106 1212 l 1,13,14
 1109 1225 1109 1225 1104.5 1238.5 c 128,-1,15
 1100 1252 1100 1252 1077 1255 c 2,16,-1
 967 1270 l 1,17,-1
 967 1374 l 1,18,-1
 1425 1374 l 1,19,-1
 1425 1270 l 1,20,-1
 1296 1253 l 1,0,-1
EndSplineSet
EndChar

StartChar: W
Encoding: 87 87 58
Width: 1978
Flags: W
LayerCount: 2
Fore
SplineSet
1833 1253 m 1,0,-1
 1511 -33 l 1,1,-1
 1317 -33 l 1,2,-1
 997 1032 l 1,3,-1
 684 -33 l 1,4,-1
 487 -33 l 1,5,-1
 145 1253 l 1,6,-1
 20 1270 l 1,7,-1
 20 1374 l 1,8,-1
 578 1374 l 1,9,-1
 578 1270 l 1,10,-1
 457 1257 l 2,11,12
 438 1255 438 1255 436.5 1241 c 128,-1,13
 435 1227 435 1227 438 1214 c 2,14,-1
 655 403 l 1,15,-1
 942 1374 l 1,16,-1
 1163 1374 l 1,17,-1
 1460 381 l 1,18,-1
 1665 1214 l 2,19,20
 1668 1227 1668 1227 1663 1240.5 c 128,-1,21
 1658 1254 1658 1254 1636 1257 c 2,22,-1
 1505 1270 l 1,23,-1
 1505 1374 l 1,24,-1
 1958 1374 l 1,25,-1
 1958 1270 l 1,26,-1
 1833 1253 l 1,0,-1
EndSplineSet
EndChar

StartChar: X
Encoding: 88 88 59
Width: 1374
Flags: W
LayerCount: 2
Fore
SplineSet
739 0 m 1,0,-1
 739 104 l 1,1,-1
 864 113 l 2,2,3
 878 115 878 115 882.5 129 c 128,-1,4
 887 143 887 143 874 162 c 2,5,-1
 645 522 l 1,6,-1
 369 164 l 2,7,8
 361 155 361 155 360 146.5 c 128,-1,9
 359 138 359 138 362 131 c 128,-1,10
 365 124 365 124 370.5 120 c 128,-1,11
 376 116 376 116 381 115 c 2,12,-1
 504 104 l 1,13,-1
 504 0 l 1,14,-1
 20 0 l 1,15,-1
 20 104 l 1,16,-1
 152 121 l 1,17,-1
 559 655 l 1,18,-1
 176 1251 l 1,19,-1
 47 1270 l 1,20,-1
 47 1374 l 1,21,-1
 647 1374 l 1,22,-1
 647 1270 l 1,23,-1
 539 1260 l 1,24,25
 528 1260 528 1260 522 1245 c 128,-1,26
 516 1230 516 1230 528 1210 c 2,27,-1
 733 887 l 1,28,-1
 985 1212 l 2,29,30
 999 1229 999 1229 993 1245.5 c 128,-1,31
 987 1262 987 1262 973 1262 c 1,32,-1
 864 1270 l 1,33,-1
 864 1374 l 1,34,-1
 1331 1374 l 1,35,-1
 1331 1270 l 1,36,-1
 1202 1251 l 1,37,-1
 819 754 l 1,38,-1
 1225 121 l 1,39,-1
 1354 104 l 1,40,-1
 1354 0 l 1,41,-1
 739 0 l 1,0,-1
EndSplineSet
EndChar

StartChar: Y
Encoding: 89 89 60
Width: 1358
Flags: W
LayerCount: 2
Fore
SplineSet
1219 1251 m 1,0,-1
 840 594 l 1,1,-1
 840 160 l 2,2,3
 840 140 840 140 853 128.5 c 128,-1,4
 866 117 866 117 885 115 c 2,5,-1
 1010 104 l 1,6,-1
 1010 0 l 1,7,-1
 375 0 l 1,8,-1
 375 104 l 1,9,-1
 500 115 l 2,10,11
 517 117 517 117 532 128.5 c 128,-1,12
 547 140 547 140 547 160 c 2,13,-1
 547 537 l 1,14,-1
 152 1251 l 1,15,-1
 20 1270 l 1,16,-1
 20 1374 l 1,17,-1
 602 1374 l 1,18,-1
 602 1270 l 1,19,-1
 494 1260 l 1,20,21
 483 1260 483 1260 477.5 1245 c 128,-1,22
 472 1230 472 1230 483 1210 c 2,23,-1
 741 725 l 1,24,-1
 1020 1212 l 2,25,26
 1031 1231 1031 1231 1027.5 1246.5 c 128,-1,27
 1024 1262 1024 1262 1010 1262 c 2,28,-1
 885 1270 l 1,29,-1
 885 1374 l 1,30,-1
 1337 1374 l 1,31,-1
 1337 1270 l 1,32,-1
 1219 1251 l 1,0,-1
EndSplineSet
EndChar

StartChar: Z
Encoding: 90 90 61
Width: 1190
Flags: W
LayerCount: 2
Fore
SplineSet
76 0 m 1,0,-1
 76 121 l 1,1,-1
 778 1249 l 1,2,-1
 326 1249 l 2,3,4
 300 1249 300 1249 297 1225 c 2,5,-1
 260 1001 l 1,6,-1
 111 1001 l 1,7,-1
 111 1374 l 1,8,-1
 1104 1374 l 1,9,-1
 1104 1253 l 1,10,-1
 403 127 l 1,11,-1
 893 127 l 2,12,13
 918 127 918 127 924 150 c 1,14,-1
 965 403 l 1,15,-1
 1114 403 l 1,16,-1
 1114 0 l 1,17,-1
 76 0 l 1,0,-1
EndSplineSet
EndChar

StartChar: bracketleft
Encoding: 91 91 62
Width: 1122
Flags: W
LayerCount: 2
Fore
SplineSet
480 -270 m 1,0,-1
 480 1450 l 1,1,-1
 1048 1450 l 1,2,-1
 1048 1327 l 1,3,-1
 734 1327 l 1,4,-1
 734 -152 l 1,5,-1
 1048 -152 l 1,6,-1
 1048 -270 l 1,7,-1
 480 -270 l 1,0,-1
EndSplineSet
EndChar

StartChar: backslash
Encoding: 92 92 63
Width: 1012
Flags: W
LayerCount: 2
Fore
SplineSet
852 -190 m 1,0,-1
 0 1374 l 1,1,-1
 160 1374 l 1,2,-1
 1012 -190 l 1,3,-1
 852 -190 l 1,0,-1
EndSplineSet
EndChar

StartChar: bracketright
Encoding: 93 93 64
Width: 1206
Flags: W
LayerCount: 2
Fore
SplineSet
74 -270 m 1,0,-1
 74 -152 l 1,1,-1
 387 -152 l 1,2,-1
 387 1327 l 1,3,-1
 74 1327 l 1,4,-1
 74 1450 l 1,5,-1
 641 1450 l 1,6,-1
 641 -270 l 1,7,-1
 74 -270 l 1,0,-1
EndSplineSet
EndChar

StartChar: asciicircum
Encoding: 94 94 65
Width: 696
Flags: W
LayerCount: 2
Fore
SplineSet
526 1128 m 1,0,-1
 348 1323 l 1,1,-1
 170 1128 l 1,2,-1
 0 1128 l 1,3,-1
 227 1479 l 1,4,-1
 469 1479 l 1,5,-1
 696 1128 l 1,6,-1
 526 1128 l 1,0,-1
EndSplineSet
EndChar

StartChar: underscore
Encoding: 95 95 66
Width: 696
Flags: W
LayerCount: 2
Fore
SplineSet
0 -340 m 1,0,-1
 0 -175 l 1,1,-1
 696 -175 l 1,2,-1
 696 -340 l 1,3,-1
 0 -340 l 1,0,-1
EndSplineSet
EndChar

StartChar: grave
Encoding: 96 96 67
Width: 766
Flags: W
LayerCount: 2
Fore
SplineSet
383 1128 m 1,0,-1
 51 1309 l 2,1,2
 40 1315 40 1315 31 1325.5 c 128,-1,3
 22 1336 22 1336 15 1348 c 128,-1,4
 8 1360 8 1360 4 1372.5 c 128,-1,5
 0 1385 0 1385 0 1395 c 0,6,7
 0 1413 0 1413 6 1432.5 c 128,-1,8
 12 1452 12 1452 25.5 1467.5 c 128,-1,9
 39 1483 39 1483 61.5 1493 c 128,-1,10
 84 1503 84 1503 117 1503 c 0,11,12
 138 1503 138 1503 154 1500 c 128,-1,13
 170 1497 170 1497 184.5 1489.5 c 128,-1,14
 199 1482 199 1482 213.5 1469.5 c 128,-1,15
 228 1457 228 1457 246 1438 c 2,16,-1
 526 1128 l 1,17,-1
 383 1128 l 1,0,-1
EndSplineSet
EndChar

StartChar: a
Encoding: 97 97 68
Width: 1133
Flags: W
LayerCount: 2
Fore
SplineSet
717 0 m 1,0,-1
 690 102 l 1,1,2
 637 66 637 66 579 38 c 0,3,4
 528 14 528 14 465 -5.5 c 128,-1,5
 402 -25 402 -25 334 -25 c 0,6,7
 278 -25 278 -25 229.5 -6.5 c 128,-1,8
 181 12 181 12 144.5 46.5 c 128,-1,9
 108 81 108 81 87 130 c 128,-1,10
 66 179 66 179 66 240 c 0,11,12
 66 286 66 286 73.5 325 c 128,-1,13
 81 364 81 364 103.5 397.5 c 128,-1,14
 126 431 126 431 168 461.5 c 128,-1,15
 210 492 210 492 279.5 521 c 128,-1,16
 349 550 349 550 450 579 c 128,-1,17
 551 608 551 608 692 639 c 1,18,-1
 692 664 l 2,19,20
 692 679 692 679 693 691 c 1,21,22
 693 705 693 705 694 719 c 0,23,24
 695 748 695 748 688 781.5 c 128,-1,25
 681 815 681 815 660 843.5 c 128,-1,26
 639 872 639 872 601 890.5 c 128,-1,27
 563 909 563 909 502 909 c 0,28,29
 481 909 481 909 464.5 908 c 128,-1,30
 448 907 448 907 437 905 c 0,31,32
 424 903 424 903 414 901 c 1,33,-1
 414 707 l 1,34,-1
 203 707 l 1,35,36
 177 705 177 705 157 712 c 0,37,38
 140 718 140 718 125.5 733 c 128,-1,39
 111 748 111 748 111 780 c 0,40,41
 111 837 111 837 151.5 882 c 128,-1,42
 192 927 192 927 257.5 958.5 c 128,-1,43
 323 990 323 990 404.5 1007 c 128,-1,44
 486 1024 486 1024 567 1024 c 0,45,46
 655 1024 655 1024 728 1011 c 128,-1,47
 801 998 801 998 853.5 960.5 c 128,-1,48
 906 923 906 923 934.5 855 c 128,-1,49
 963 787 963 787 963 676 c 2,50,-1
 963 150 l 2,51,52
 963 131 963 131 976 117.5 c 128,-1,53
 989 104 989 104 1008 102 c 2,54,-1
 1098 96 l 1,55,-1
 1098 0 l 1,56,-1
 717 0 l 1,0,-1
690 528 m 1,57,58
 591 508 591 508 526.5 487 c 128,-1,59
 462 466 462 466 424 439 c 128,-1,60
 386 412 386 412 371 377.5 c 128,-1,61
 356 343 356 343 356 297 c 0,62,63
 356 265 356 265 366.5 237.5 c 128,-1,64
 377 210 377 210 396.5 189.5 c 128,-1,65
 416 169 416 169 443 157 c 128,-1,66
 470 145 470 145 502 145 c 0,67,68
 535 145 535 145 568.5 152 c 128,-1,69
 602 159 602 159 629 167 c 0,70,71
 661 177 661 177 690 190 c 1,72,-1
 690 528 l 1,57,58
EndSplineSet
EndChar

StartChar: b
Encoding: 98 98 69
Width: 1225
Flags: W
LayerCount: 2
Fore
SplineSet
1159 561 m 0,0,1
 1159 443 1159 443 1119 340.5 c 128,-1,2
 1079 238 1079 238 1002.5 162.5 c 128,-1,3
 926 87 926 87 814.5 43.5 c 128,-1,4
 703 0 703 0 559 0 c 2,5,-1
 184 0 l 1,6,-1
 184 1329 l 1,7,-1
 41 1329 l 1,8,-1
 41 1413 l 1,9,-1
 354 1516 l 1,10,-1
 459 1516 l 1,11,-1
 459 930 l 1,12,13
 502 956 502 956 550 977 c 1,14,15
 592 994 592 994 645 1009 c 128,-1,16
 698 1024 698 1024 756 1024 c 0,17,18
 838 1024 838 1024 911.5 993 c 128,-1,19
 985 962 985 962 1040 902.5 c 128,-1,20
 1095 843 1095 843 1127 757 c 128,-1,21
 1159 671 1159 671 1159 561 c 0,0,1
862 500 m 0,22,23
 862 583 862 583 843 648.5 c 128,-1,24
 824 714 824 714 787 760 c 128,-1,25
 750 806 750 806 694.5 830 c 128,-1,26
 639 854 639 854 567 854 c 0,27,28
 548 854 548 854 529.5 852 c 128,-1,29
 511 850 511 850 495 848 c 2,30,-1
 459 842 l 1,31,-1
 459 115 l 1,32,33
 477 115 477 115 484.5 114 c 128,-1,34
 492 113 492 113 502 113 c 0,35,36
 587 113 587 113 654 132.5 c 128,-1,37
 721 152 721 152 767 197.5 c 128,-1,38
 813 243 813 243 837.5 317 c 128,-1,39
 862 391 862 391 862 500 c 0,22,23
EndSplineSet
EndChar

StartChar: c
Encoding: 99 99 70
Width: 1028
Flags: W
LayerCount: 2
Fore
SplineSet
965 90 m 1,0,1
 939 78 939 78 901.5 59 c 128,-1,2
 864 40 864 40 814.5 21 c 128,-1,3
 765 2 765 2 702 -11.5 c 128,-1,4
 639 -25 639 -25 561 -25 c 0,5,6
 441 -25 441 -25 349 16 c 128,-1,7
 257 57 257 57 194 126.5 c 128,-1,8
 131 196 131 196 98.5 287 c 128,-1,9
 66 378 66 378 66 479 c 0,10,11
 66 600 66 600 107.5 700.5 c 128,-1,12
 149 801 149 801 220.5 873 c 128,-1,13
 292 945 292 945 388 984.5 c 128,-1,14
 484 1024 484 1024 594 1024 c 0,15,16
 675 1024 675 1024 740 1007.5 c 128,-1,17
 805 991 805 991 851.5 961 c 128,-1,18
 898 931 898 931 923 889.5 c 128,-1,19
 948 848 948 848 948 799 c 0,20,21
 948 764 948 764 935.5 736 c 128,-1,22
 923 708 923 708 903 687.5 c 128,-1,23
 883 667 883 667 857 656 c 128,-1,24
 831 645 831 645 803 645 c 0,25,26
 771 645 771 645 749.5 649 c 128,-1,27
 728 653 728 653 713 659.5 c 128,-1,28
 698 666 698 666 687 673.5 c 128,-1,29
 676 681 676 681 666 688 c 1,30,-1
 666 918 l 1,31,32
 653 918 653 918 645.5 919 c 128,-1,33
 638 920 638 920 627 920 c 0,34,35
 580 920 580 920 533.5 896 c 128,-1,36
 487 872 487 872 450 824.5 c 128,-1,37
 413 777 413 777 390 705.5 c 128,-1,38
 367 634 367 634 367 539 c 0,39,40
 367 449 367 449 388.5 376.5 c 128,-1,41
 410 304 410 304 450 253 c 128,-1,42
 490 202 490 202 548 174.5 c 128,-1,43
 606 147 606 147 678 147 c 0,44,45
 725 147 725 147 772 160 c 128,-1,46
 819 173 819 173 858.5 190 c 128,-1,47
 898 207 898 207 926.5 223.5 c 128,-1,48
 955 240 955 240 965 248 c 1,49,-1
 965 90 l 1,0,1
EndSplineSet
EndChar

StartChar: d
Encoding: 100 100 71
Width: 1247
Flags: W
LayerCount: 2
Fore
SplineSet
791 864 m 1,0,1
 767 874 767 874 741 882 c 0,2,3
 719 889 719 889 693.5 895 c 128,-1,4
 668 901 668 901 645 901 c 0,5,6
 574 901 574 901 521 872 c 128,-1,7
 468 843 468 843 433.5 792 c 128,-1,8
 399 741 399 741 382 672 c 128,-1,9
 365 603 365 603 365 524 c 0,10,11
 365 443 365 443 381.5 377 c 128,-1,12
 398 311 398 311 431 263.5 c 128,-1,13
 464 216 464 216 514 190 c 128,-1,14
 564 164 564 164 631 164 c 0,15,16
 659 164 659 164 687.5 169.5 c 128,-1,17
 716 175 716 175 739 183 c 0,18,19
 766 192 766 192 791 203 c 1,20,-1
 791 864 l 1,0,1
791 0 m 1,21,-1
 791 119 l 1,22,23
 779 113 779 113 748 89.5 c 128,-1,24
 717 66 717 66 673 40.5 c 128,-1,25
 629 15 629 15 576 -5 c 128,-1,26
 523 -25 523 -25 467 -25 c 0,27,28
 373 -25 373 -25 298.5 13 c 128,-1,29
 224 51 224 51 172.5 118 c 128,-1,30
 121 185 121 185 93.5 277 c 128,-1,31
 66 369 66 369 66 477 c 0,32,33
 66 609 66 609 106 711 c 128,-1,34
 146 813 146 813 217 882.5 c 128,-1,35
 288 952 288 952 386 988 c 128,-1,36
 484 1024 484 1024 600 1024 c 0,37,38
 629 1024 629 1024 662.5 1020 c 128,-1,39
 696 1016 696 1016 725 1011 c 0,40,41
 758 1006 758 1006 791 999 c 1,42,-1
 791 1329 l 1,43,-1
 639 1329 l 1,44,-1
 639 1413 l 1,45,-1
 958 1516 l 1,46,-1
 1063 1516 l 1,47,-1
 1063 150 l 2,48,49
 1063 131 1063 131 1076 117.5 c 128,-1,50
 1089 104 1089 104 1108 102 c 2,51,-1
 1194 96 l 1,52,-1
 1194 0 l 1,53,-1
 791 0 l 1,21,-1
EndSplineSet
EndChar

StartChar: e
Encoding: 101 101 72
Width: 1083
Flags: W
LayerCount: 2
Fore
SplineSet
727 668 m 2,0,1
 727 717 727 717 718 760 c 128,-1,2
 709 803 709 803 688.5 834.5 c 128,-1,3
 668 866 668 866 636 884.5 c 128,-1,4
 604 903 604 903 559 903 c 0,5,6
 502 903 502 903 463.5 877.5 c 128,-1,7
 425 852 425 852 401.5 811.5 c 128,-1,8
 378 771 378 771 368 721 c 128,-1,9
 358 671 358 671 358 623 c 1,10,-1
 727 623 l 1,11,-1
 727 668 l 2,0,1
1020 96 m 1,12,13
 967 61 967 61 901 35 c 0,14,15
 844 12 844 12 765 -6.5 c 128,-1,16
 686 -25 686 -25 588 -25 c 0,17,18
 457 -25 457 -25 359.5 15 c 128,-1,19
 262 55 262 55 196.5 124.5 c 128,-1,20
 131 194 131 194 98.5 287 c 128,-1,21
 66 380 66 380 66 487 c 0,22,23
 66 603 66 603 102.5 701.5 c 128,-1,24
 139 800 139 800 206.5 871.5 c 128,-1,25
 274 943 274 943 369.5 983.5 c 128,-1,26
 465 1024 465 1024 582 1024 c 0,27,28
 702 1024 702 1024 785.5 984.5 c 128,-1,29
 869 945 869 945 921 879.5 c 128,-1,30
 973 814 973 814 996.5 730 c 128,-1,31
 1020 646 1020 646 1020 557 c 2,32,-1
 1020 508 l 1,33,-1
 348 508 l 1,34,35
 348 424 348 424 369 357 c 128,-1,36
 390 290 390 290 430.5 243 c 128,-1,37
 471 196 471 196 530 170.5 c 128,-1,38
 589 145 589 145 664 145 c 0,39,40
 742 145 742 145 806.5 162.5 c 128,-1,41
 871 180 871 180 919 202 c 0,42,43
 974 228 974 228 1020 260 c 1,44,-1
 1020 96 l 1,12,13
EndSplineSet
EndChar

StartChar: f
Encoding: 102 102 73
Width: 711
Flags: W
LayerCount: 2
Fore
SplineSet
860 1352 m 0,0,1
 860 1328 860 1328 849.5 1307 c 128,-1,2
 839 1286 839 1286 821.5 1268.5 c 128,-1,3
 804 1251 804 1251 781 1238 c 128,-1,4
 758 1225 758 1225 733 1217 c 1,5,-1
 530 1407 l 1,6,7
 515 1384 515 1384 502.5 1358.5 c 128,-1,8
 490 1333 490 1333 482 1297.5 c 128,-1,9
 474 1262 474 1262 469.5 1213 c 128,-1,10
 465 1164 465 1164 465 1094 c 2,11,-1
 465 975 l 1,12,-1
 688 975 l 1,13,-1
 688 844 l 1,14,-1
 467 844 l 1,15,-1
 467 150 l 2,16,17
 467 131 467 131 479.5 116.5 c 128,-1,18
 492 102 492 102 512 102 c 2,19,-1
 637 96 l 1,20,-1
 637 0 l 1,21,-1
 43 0 l 1,22,-1
 43 96 l 1,23,-1
 147 102 l 2,24,25
 166 104 166 104 179.5 117.5 c 128,-1,26
 193 131 193 131 193 150 c 2,27,-1
 193 844 l 1,28,-1
 59 844 l 1,29,-1
 59 926 l 1,30,-1
 190 993 l 1,31,32
 190 1074 190 1074 212.5 1146 c 128,-1,33
 235 1218 235 1218 279 1286 c 1,34,35
 309 1336 309 1336 349.5 1378 c 128,-1,36
 390 1420 390 1420 439 1451 c 128,-1,37
 488 1482 488 1482 544.5 1499 c 128,-1,38
 601 1516 601 1516 664 1516 c 0,39,40
 694 1516 694 1516 728.5 1506.5 c 128,-1,41
 763 1497 763 1497 792.5 1477.5 c 128,-1,42
 822 1458 822 1458 841 1426.5 c 128,-1,43
 860 1395 860 1395 860 1352 c 0,0,1
EndSplineSet
EndChar

StartChar: g
Encoding: 103 103 74
Width: 1137
Flags: W
LayerCount: 2
Fore
SplineSet
793 -141 m 0,0,1
 793 -105 793 -105 771 -79 c 128,-1,2
 749 -53 749 -53 714 -34.5 c 128,-1,3
 679 -16 679 -16 635 -4 c 128,-1,4
 591 8 591 8 547 15.5 c 128,-1,5
 503 23 503 23 464 26.5 c 128,-1,6
 425 30 425 30 399 33 c 1,7,8
 389 18 389 18 378 2 c 128,-1,9
 367 -14 367 -14 357.5 -33 c 128,-1,10
 348 -52 348 -52 342 -75.5 c 128,-1,11
 336 -99 336 -99 336 -127 c 0,12,13
 335 -176 335 -176 355 -218.5 c 128,-1,14
 375 -261 375 -261 407 -292.5 c 128,-1,15
 439 -324 439 -324 479.5 -342 c 128,-1,16
 520 -360 520 -360 561 -360 c 256,17,18
 602 -360 602 -360 643.5 -344.5 c 128,-1,19
 685 -329 685 -329 718 -300.5 c 128,-1,20
 751 -272 751 -272 772 -231.5 c 128,-1,21
 793 -191 793 -191 793 -141 c 0,0,1
709 688 m 0,22,23
 709 730 709 730 699.5 772.5 c 128,-1,24
 690 815 690 815 670.5 848.5 c 128,-1,25
 651 882 651 882 622 903 c 128,-1,26
 593 924 593 924 555 924 c 0,27,28
 509 924 509 924 477 903.5 c 128,-1,29
 445 883 445 883 425.5 849 c 128,-1,30
 406 815 406 815 397.5 772.5 c 128,-1,31
 389 730 389 730 389 686 c 0,32,33
 389 641 389 641 398.5 596.5 c 128,-1,34
 408 552 408 552 427.5 517.5 c 128,-1,35
 447 483 447 483 478 461.5 c 128,-1,36
 509 440 509 440 551 440 c 256,37,38
 593 440 593 440 622.5 461.5 c 128,-1,39
 652 483 652 483 671.5 518.5 c 128,-1,40
 691 554 691 554 700 598.5 c 128,-1,41
 709 643 709 643 709 688 c 0,22,23
938 840 m 1,42,43
 949 818 949 818 958 793 c 0,44,45
 966 771 966 771 972.5 743.5 c 128,-1,46
 979 716 979 716 979 684 c 0,47,48
 979 615 979 615 956 562.5 c 128,-1,49
 933 510 933 510 894.5 471.5 c 128,-1,50
 856 433 856 433 806 407 c 128,-1,51
 756 381 756 381 701.5 366 c 128,-1,52
 647 351 647 351 592 346 c 128,-1,53
 537 341 537 341 489 344 c 1,54,55
 471 332 471 332 456.5 319 c 128,-1,56
 442 306 442 306 434 291.5 c 128,-1,57
 426 277 426 277 425.5 260 c 128,-1,58
 425 243 425 243 434 221 c 1,59,60
 602 207 602 207 720.5 182 c 128,-1,61
 839 157 839 157 914 120 c 128,-1,62
 989 83 989 83 1023 32.5 c 128,-1,63
 1057 -18 1057 -18 1057 -82 c 0,64,65
 1057 -141 1057 -141 1034.5 -193 c 128,-1,66
 1012 -245 1012 -245 973 -288.5 c 128,-1,67
 934 -332 934 -332 881 -366.5 c 128,-1,68
 828 -401 828 -401 766.5 -424.5 c 128,-1,69
 705 -448 705 -448 638 -460.5 c 128,-1,70
 571 -473 571 -473 504 -473 c 0,71,72
 423 -473 423 -473 344.5 -454.5 c 128,-1,73
 266 -436 266 -436 204 -397 c 128,-1,74
 142 -358 142 -358 104 -298 c 128,-1,75
 66 -238 66 -238 66 -156 c 0,76,77
 66 -92 66 -92 90 -49.5 c 128,-1,78
 114 -7 114 -7 147 18.5 c 128,-1,79
 180 44 180 44 214.5 53 c 128,-1,80
 249 62 249 62 270 59 c 1,81,82
 256 87 256 87 250 117.5 c 128,-1,83
 244 148 244 148 244 168 c 0,84,85
 244 194 244 194 251 217.5 c 128,-1,86
 258 241 258 241 272 263.5 c 128,-1,87
 286 286 286 286 307.5 309 c 128,-1,88
 329 332 329 332 358 358 c 1,89,90
 331 364 331 364 288.5 383 c 128,-1,91
 246 402 246 402 205.5 438.5 c 128,-1,92
 165 475 165 475 135.5 530.5 c 128,-1,93
 106 586 106 586 106 666 c 0,94,95
 106 758 106 758 141.5 825.5 c 128,-1,96
 177 893 177 893 238.5 937 c 128,-1,97
 300 981 300 981 382.5 1002.5 c 128,-1,98
 465 1024 465 1024 559 1024 c 0,99,100
 607 1024 607 1024 649.5 1017 c 128,-1,101
 692 1010 692 1010 728.5 1000.5 c 128,-1,102
 765 991 765 991 795.5 980 c 128,-1,103
 826 969 826 969 852 961 c 1,104,-1
 1118 961 l 1,105,-1
 1118 840 l 1,106,-1
 938 840 l 1,42,43
EndSplineSet
EndChar

StartChar: h
Encoding: 104 104 75
Width: 1282
Flags: W
LayerCount: 2
Fore
SplineSet
713 0 m 1,0,-1
 713 96 l 1,1,-1
 778 102 l 2,2,3
 797 104 797 104 810 117.5 c 128,-1,4
 823 131 823 131 823 150 c 2,5,-1
 823 633 l 2,6,7
 823 658 823 658 817.5 693 c 128,-1,8
 812 728 812 728 794 759.5 c 128,-1,9
 776 791 776 791 742 813.5 c 128,-1,10
 708 836 708 836 651 836 c 0,11,12
 620 836 620 836 586.5 831.5 c 128,-1,13
 553 827 553 827 524 822 c 0,14,15
 491 816 491 816 459 809 c 1,16,-1
 459 150 l 2,17,18
 459 131 459 131 472 117.5 c 128,-1,19
 485 104 485 104 504 102 c 2,20,-1
 575 96 l 1,21,-1
 575 0 l 1,22,-1
 55 0 l 1,23,-1
 55 96 l 1,24,-1
 139 102 l 2,25,26
 158 104 158 104 171 117.5 c 128,-1,27
 184 131 184 131 184 150 c 2,28,-1
 184 1329 l 1,29,-1
 39 1329 l 1,30,-1
 39 1413 l 1,31,-1
 352 1516 l 1,32,-1
 459 1516 l 1,33,-1
 459 897 l 1,34,35
 516 932 516 932 578 960 c 0,36,37
 604 972 604 972 633.5 983.5 c 128,-1,38
 663 995 663 995 693.5 1004 c 128,-1,39
 724 1013 724 1013 755.5 1018.5 c 128,-1,40
 787 1024 787 1024 817 1024 c 0,41,42
 877 1024 877 1024 921.5 1008.5 c 128,-1,43
 966 993 966 993 997.5 967.5 c 128,-1,44
 1029 942 1029 942 1048.5 908.5 c 128,-1,45
 1068 875 1068 875 1079 839 c 128,-1,46
 1090 803 1090 803 1094 767.5 c 128,-1,47
 1098 732 1098 732 1098 702 c 2,48,-1
 1098 150 l 2,49,50
 1098 131 1098 131 1111 117.5 c 128,-1,51
 1124 104 1124 104 1143 102 c 2,52,-1
 1229 96 l 1,53,-1
 1229 0 l 1,54,-1
 713 0 l 1,0,-1
EndSplineSet
EndChar

StartChar: i
Encoding: 105 105 76
Width: 682
Flags: W
LayerCount: 2
Fore
SplineSet
66 0 m 1,0,-1
 66 96 l 1,1,-1
 160 102 l 2,2,3
 178 104 178 104 191.5 117.5 c 128,-1,4
 205 131 205 131 205 150 c 2,5,-1
 205 838 l 1,6,-1
 74 838 l 1,7,-1
 74 922 l 1,8,-1
 373 1024 l 1,9,-1
 477 1024 l 1,10,-1
 477 150 l 2,11,12
 477 131 477 131 491.5 117.5 c 128,-1,13
 506 104 506 104 524 102 c 2,14,-1
 623 96 l 1,15,-1
 623 0 l 1,16,-1
 66 0 l 1,0,-1
506 1358 m 256,17,18
 506 1325 506 1325 493.5 1296 c 128,-1,19
 481 1267 481 1267 459 1245 c 128,-1,20
 437 1223 437 1223 408 1210.5 c 128,-1,21
 379 1198 379 1198 346 1198 c 256,22,23
 313 1198 313 1198 284 1210.5 c 128,-1,24
 255 1223 255 1223 234 1245 c 128,-1,25
 213 1267 213 1267 200.5 1296 c 128,-1,26
 188 1325 188 1325 188 1358 c 256,27,28
 188 1391 188 1391 200.5 1420 c 128,-1,29
 213 1449 213 1449 234 1470 c 128,-1,30
 255 1491 255 1491 284 1503.5 c 128,-1,31
 313 1516 313 1516 346 1516 c 256,32,33
 379 1516 379 1516 408 1503.5 c 128,-1,34
 437 1491 437 1491 459 1470 c 128,-1,35
 481 1449 481 1449 493.5 1420 c 128,-1,36
 506 1391 506 1391 506 1358 c 256,17,18
EndSplineSet
EndChar

StartChar: j
Encoding: 106 106 77
Width: 664
Flags: W
LayerCount: 2
Fore
SplineSet
477 96 m 2,0,1
 477 -16 477 -16 450 -121 c 128,-1,2
 423 -226 423 -226 365 -307 c 1,3,4
 309 -383 309 -383 224 -428 c 128,-1,5
 139 -473 139 -473 20 -473 c 0,6,7
 -21 -473 -21 -473 -58 -463 c 128,-1,8
 -95 -453 -95 -453 -123 -433 c 128,-1,9
 -151 -413 -151 -413 -167.5 -384 c 128,-1,10
 -184 -355 -184 -355 -184 -317 c 0,11,12
 -184 -290 -184 -290 -173.5 -266 c 128,-1,13
 -163 -242 -163 -242 -145 -223.5 c 128,-1,14
 -127 -205 -127 -205 -103 -193.5 c 128,-1,15
 -79 -182 -79 -182 -53 -180 c 1,16,-1
 147 -383 l 1,17,18
 159 -364 159 -364 168 -337.5 c 128,-1,19
 177 -311 177 -311 183 -281 c 128,-1,20
 189 -251 189 -251 193 -219.5 c 128,-1,21
 197 -188 197 -188 200 -158 c 0,22,23
 205 -88 205 -88 205 -10 c 2,24,-1
 205 838 l 1,25,-1
 59 838 l 1,26,-1
 59 922 l 1,27,-1
 373 1024 l 1,28,-1
 477 1024 l 1,29,-1
 477 96 l 2,0,1
498 1358 m 256,30,31
 498 1325 498 1325 485.5 1296 c 128,-1,32
 473 1267 473 1267 452 1245 c 128,-1,33
 431 1223 431 1223 402 1210.5 c 128,-1,34
 373 1198 373 1198 340 1198 c 256,35,36
 307 1198 307 1198 278 1210.5 c 128,-1,37
 249 1223 249 1223 227 1245 c 128,-1,38
 205 1267 205 1267 192.5 1296 c 128,-1,39
 180 1325 180 1325 180 1358 c 256,40,41
 180 1391 180 1391 192.5 1420 c 128,-1,42
 205 1449 205 1449 227 1470 c 128,-1,43
 249 1491 249 1491 278 1503.5 c 128,-1,44
 307 1516 307 1516 340 1516 c 256,45,46
 373 1516 373 1516 402 1503.5 c 128,-1,47
 431 1491 431 1491 452 1470 c 128,-1,48
 473 1449 473 1449 485.5 1420 c 128,-1,49
 498 1391 498 1391 498 1358 c 256,30,31
EndSplineSet
EndChar

StartChar: k
Encoding: 107 107 78
Width: 1212
Flags: W
LayerCount: 2
Fore
SplineSet
780 0 m 1,0,-1
 780 84 l 1,1,-1
 555 463 l 1,2,-1
 459 463 l 1,3,-1
 459 150 l 2,4,5
 459 131 459 131 471.5 117.5 c 128,-1,6
 484 104 484 104 504 102 c 2,7,-1
 586 96 l 1,8,-1
 586 0 l 1,9,-1
 53 0 l 1,10,-1
 53 96 l 1,11,-1
 139 102 l 2,12,13
 158 104 158 104 171 117.5 c 128,-1,14
 184 131 184 131 184 150 c 2,15,-1
 184 1329 l 1,16,-1
 41 1329 l 1,17,-1
 41 1413 l 1,18,-1
 354 1516 l 1,19,-1
 459 1516 l 1,20,-1
 459 532 l 1,21,-1
 504 532 l 1,22,-1
 778 860 l 2,23,24
 788 871 788 871 783.5 882 c 128,-1,25
 779 893 779 893 764 895 c 2,26,-1
 686 903 l 1,27,-1
 686 999 l 1,28,-1
 1112 999 l 1,29,-1
 1112 903 l 1,30,-1
 977 887 l 1,31,-1
 758 637 l 1,32,-1
 1073 106 l 1,33,-1
 1194 96 l 1,34,-1
 1194 0 l 1,35,-1
 780 0 l 1,0,-1
EndSplineSet
EndChar

StartChar: l
Encoding: 108 108 79
Width: 682
Flags: W
LayerCount: 2
Fore
SplineSet
59 0 m 1,0,-1
 59 96 l 1,1,-1
 160 102 l 2,2,3
 180 104 180 104 192.5 117 c 128,-1,4
 205 130 205 130 205 150 c 2,5,-1
 205 1329 l 1,6,-1
 59 1329 l 1,7,-1
 59 1413 l 1,8,-1
 373 1516 l 1,9,-1
 477 1516 l 1,10,-1
 477 150 l 2,11,12
 477 130 477 130 489.5 117 c 128,-1,13
 502 104 502 104 522 102 c 2,14,-1
 625 96 l 1,15,-1
 625 0 l 1,16,-1
 59 0 l 1,0,-1
EndSplineSet
EndChar

StartChar: m
Encoding: 109 109 80
Width: 1855
Flags: W
LayerCount: 2
Fore
SplineSet
1296 0 m 1,0,-1
 1296 96 l 1,1,-1
 1360 102 l 2,2,3
 1378 104 1378 104 1392.5 117.5 c 128,-1,4
 1407 131 1407 131 1407 150 c 2,5,-1
 1407 643 l 2,6,7
 1407 680 1407 680 1398 715 c 128,-1,8
 1389 750 1389 750 1368.5 777 c 128,-1,9
 1348 804 1348 804 1314 820 c 128,-1,10
 1280 836 1280 836 1229 836 c 0,11,12
 1196 836 1196 836 1166.5 830.5 c 128,-1,13
 1137 825 1137 825 1114 819 c 0,14,15
 1088 812 1088 812 1065 803 c 1,16,-1
 1065 150 l 2,17,18
 1065 131 1065 131 1078 117.5 c 128,-1,19
 1091 104 1091 104 1110 102 c 2,20,-1
 1174 96 l 1,21,-1
 1174 0 l 1,22,-1
 682 0 l 1,23,-1
 682 96 l 1,24,-1
 745 102 l 2,25,26
 764 104 764 104 777.5 117.5 c 128,-1,27
 791 131 791 131 791 150 c 2,28,-1
 791 643 l 2,29,30
 791 680 791 680 781 715 c 128,-1,31
 771 750 771 750 750 777 c 128,-1,32
 729 804 729 804 695.5 820 c 128,-1,33
 662 836 662 836 614 836 c 0,34,35
 572 836 572 836 540.5 830.5 c 128,-1,36
 509 825 509 825 489 819 c 0,37,38
 465 812 465 812 449 803 c 1,39,-1
 449 150 l 2,40,41
 449 131 449 131 463 117.5 c 128,-1,42
 477 104 477 104 496 102 c 2,43,-1
 559 96 l 1,44,-1
 559 0 l 1,45,-1
 55 0 l 1,46,-1
 55 96 l 1,47,-1
 131 102 l 2,48,49
 150 104 150 104 163 117.5 c 128,-1,50
 176 131 176 131 176 150 c 2,51,-1
 176 836 l 1,52,-1
 45 836 l 1,53,-1
 45 920 l 1,54,-1
 346 1024 l 1,55,-1
 449 1024 l 1,56,-1
 449 899 l 1,57,58
 501 934 501 934 557 961 c 0,59,60
 605 984 605 984 664.5 1004 c 128,-1,61
 724 1024 724 1024 784 1024 c 0,62,63
 842 1024 842 1024 883 1008.5 c 128,-1,64
 924 993 924 993 952.5 971.5 c 128,-1,65
 981 950 981 950 999.5 926 c 128,-1,66
 1018 902 1018 902 1032 885 c 1,67,68
 1092 923 1092 923 1154 954 c 0,69,70
 1181 967 1181 967 1211 979.5 c 128,-1,71
 1241 992 1241 992 1272.5 1002 c 128,-1,72
 1304 1012 1304 1012 1335.5 1018 c 128,-1,73
 1367 1024 1367 1024 1397 1024 c 0,74,75
 1459 1024 1459 1024 1504 1007.5 c 128,-1,76
 1549 991 1549 991 1580.5 964 c 128,-1,77
 1612 937 1612 937 1631 903.5 c 128,-1,78
 1650 870 1650 870 1661 835 c 128,-1,79
 1672 800 1672 800 1675.5 767.5 c 128,-1,80
 1679 735 1679 735 1679 711 c 2,81,-1
 1679 150 l 2,82,83
 1679 131 1679 131 1692.5 117.5 c 128,-1,84
 1706 104 1706 104 1724 102 c 2,85,-1
 1798 96 l 1,86,-1
 1798 0 l 1,87,-1
 1296 0 l 1,0,-1
EndSplineSet
EndChar

StartChar: n
Encoding: 110 110 81
Width: 1280
Flags: W
LayerCount: 2
Fore
SplineSet
702 0 m 1,0,-1
 702 96 l 1,1,-1
 778 102 l 2,2,3
 797 104 797 104 810 117.5 c 128,-1,4
 823 131 823 131 823 150 c 2,5,-1
 823 631 l 2,6,7
 823 670 823 670 814 707 c 128,-1,8
 805 744 805 744 785 772.5 c 128,-1,9
 765 801 765 801 733 818.5 c 128,-1,10
 701 836 701 836 655 836 c 0,11,12
 613 836 613 836 577 831.5 c 128,-1,13
 541 827 541 827 515 822 c 0,14,15
 484 816 484 816 459 809 c 1,16,-1
 459 150 l 2,17,18
 459 131 459 131 473 117.5 c 128,-1,19
 487 104 487 104 506 102 c 2,20,-1
 567 96 l 1,21,-1
 567 0 l 1,22,-1
 66 0 l 1,23,-1
 66 96 l 1,24,-1
 139 102 l 2,25,26
 158 104 158 104 171 117.5 c 128,-1,27
 184 131 184 131 184 150 c 2,28,-1
 184 836 l 1,29,-1
 43 836 l 1,30,-1
 43 920 l 1,31,-1
 352 1024 l 1,32,-1
 459 1024 l 1,33,-1
 459 899 l 1,34,35
 512 934 512 934 572 961 c 0,36,37
 623 984 623 984 687 1004 c 128,-1,38
 751 1024 751 1024 817 1024 c 0,39,40
 905 1024 905 1024 960 993.5 c 128,-1,41
 1015 963 1015 963 1045 913 c 128,-1,42
 1075 863 1075 863 1085.5 799 c 128,-1,43
 1096 735 1096 735 1096 668 c 2,44,-1
 1096 150 l 2,45,46
 1096 131 1096 131 1110 117.5 c 128,-1,47
 1124 104 1124 104 1143 102 c 2,48,-1
 1206 96 l 1,49,-1
 1206 0 l 1,50,-1
 702 0 l 1,0,-1
EndSplineSet
EndChar

StartChar: o
Encoding: 111 111 82
Width: 1196
Flags: W
LayerCount: 2
Fore
SplineSet
827 496 m 0,0,1
 827 539 827 539 823 586.5 c 128,-1,2
 819 634 819 634 809.5 680 c 128,-1,3
 800 726 800 726 783 767 c 128,-1,4
 766 808 766 808 740.5 839 c 128,-1,5
 715 870 715 870 680 888.5 c 128,-1,6
 645 907 645 907 598 907 c 0,7,8
 529 907 529 907 485 869 c 128,-1,9
 441 831 441 831 416.5 771.5 c 128,-1,10
 392 712 392 712 382.5 641 c 128,-1,11
 373 570 373 570 373 504 c 0,12,13
 373 460 373 460 376.5 412 c 128,-1,14
 380 364 380 364 389.5 318 c 128,-1,15
 399 272 399 272 415 231 c 128,-1,16
 431 190 431 190 456.5 158.5 c 128,-1,17
 482 127 482 127 517 108.5 c 128,-1,18
 552 90 552 90 600 90 c 0,19,20
 670 90 670 90 714 127.5 c 128,-1,21
 758 165 758 165 783 224 c 128,-1,22
 808 283 808 283 817.5 355 c 128,-1,23
 827 427 827 427 827 496 c 0,0,1
1133 494 m 0,24,25
 1133 379 1133 379 1096.5 283.5 c 128,-1,26
 1060 188 1060 188 990 119.5 c 128,-1,27
 920 51 920 51 819.5 13 c 128,-1,28
 719 -25 719 -25 592 -25 c 0,29,30
 475 -25 475 -25 378.5 11 c 128,-1,31
 282 47 282 47 212.5 114 c 128,-1,32
 143 181 143 181 104.5 277.5 c 128,-1,33
 66 374 66 374 66 496 c 0,34,35
 66 622 66 622 106 720 c 128,-1,36
 146 818 146 818 217.5 885.5 c 128,-1,37
 289 953 289 953 388 988.5 c 128,-1,38
 487 1024 487 1024 606 1024 c 0,39,40
 733 1024 733 1024 831 985 c 128,-1,41
 929 946 929 946 996 875.5 c 128,-1,42
 1063 805 1063 805 1098 708 c 128,-1,43
 1133 611 1133 611 1133 494 c 0,24,25
EndSplineSet
EndChar

StartChar: p
Encoding: 112 112 83
Width: 1237
Flags: W
LayerCount: 2
Fore
SplineSet
868 498 m 0,0,1
 868 565 868 565 852.5 627 c 128,-1,2
 837 689 837 689 805.5 735.5 c 128,-1,3
 774 782 774 782 725.5 810 c 128,-1,4
 677 838 677 838 610 838 c 0,5,6
 583 838 583 838 556.5 833 c 128,-1,7
 530 828 530 828 508 822 c 0,8,9
 482 815 482 815 459 807 c 1,10,-1
 459 111 l 1,11,12
 479 103 479 103 499 98 c 0,13,14
 516 93 516 93 535 89.5 c 128,-1,15
 554 86 554 86 571 86 c 0,16,17
 645 86 645 86 700.5 118 c 128,-1,18
 756 150 756 150 793.5 205.5 c 128,-1,19
 831 261 831 261 849.5 336.5 c 128,-1,20
 868 412 868 412 868 498 c 0,0,1
1171 528 m 0,21,22
 1171 404 1171 404 1132 302 c 128,-1,23
 1093 200 1093 200 1021 127.5 c 128,-1,24
 949 55 949 55 847 15 c 128,-1,25
 745 -25 745 -25 618 -25 c 0,26,27
 587 -25 587 -25 559 -22 c 128,-1,28
 531 -19 531 -19 508 -15 c 0,29,30
 482 -11 482 -11 459 -4 c 1,31,-1
 459 -299 l 2,32,33
 459 -319 459 -319 471.5 -332.5 c 128,-1,34
 484 -346 484 -346 504 -346 c 1,35,-1
 612 -352 l 1,36,-1
 612 -449 l 1,37,-1
 49 -449 l 1,38,-1
 49 -352 l 1,39,-1
 139 -346 l 1,40,41
 158 -346 158 -346 171 -332.5 c 128,-1,42
 184 -319 184 -319 184 -299 c 2,43,-1
 184 836 l 1,44,-1
 49 836 l 1,45,-1
 49 920 l 1,46,-1
 352 1024 l 1,47,-1
 459 1024 l 1,48,-1
 459 895 l 1,49,50
 507 931 507 931 562 959 c 0,51,52
 609 983 609 983 667 1003.5 c 128,-1,53
 725 1024 725 1024 788 1024 c 0,54,55
 850 1024 850 1024 903 1004 c 128,-1,56
 956 984 956 984 998.5 949.5 c 128,-1,57
 1041 915 1041 915 1073.5 867.5 c 128,-1,58
 1106 820 1106 820 1127.5 765 c 128,-1,59
 1149 710 1149 710 1160 649.5 c 128,-1,60
 1171 589 1171 589 1171 528 c 0,21,22
EndSplineSet
EndChar

StartChar: q
Encoding: 113 113 84
Width: 1235
Flags: W
LayerCount: 2
Fore
SplineSet
776 895 m 1,0,1
 766 897 766 897 753 899 c 0,2,3
 742 901 742 901 726.5 902 c 128,-1,4
 711 903 711 903 694 903 c 0,5,6
 603 903 603 903 540 873.5 c 128,-1,7
 477 844 477 844 438 792 c 128,-1,8
 399 740 399 740 382 669 c 128,-1,9
 365 598 365 598 365 516 c 0,10,11
 365 432 365 432 384 365 c 128,-1,12
 403 298 403 298 439 251 c 128,-1,13
 475 204 475 204 527 179 c 128,-1,14
 579 154 579 154 645 154 c 0,15,16
 668 154 668 154 691 155 c 128,-1,17
 714 156 714 156 733 158 c 0,18,19
 755 160 755 160 776 162 c 1,20,-1
 776 895 l 1,0,1
618 -449 m 1,21,-1
 618 -352 l 1,22,-1
 731 -346 l 1,23,24
 751 -346 751 -346 763.5 -332.5 c 128,-1,25
 776 -319 776 -319 776 -299 c 2,26,-1
 776 80 l 1,27,28
 733 50 733 50 684 27 c 0,29,30
 641 7 641 7 585.5 -9 c 128,-1,31
 530 -25 530 -25 467 -25 c 0,32,33
 375 -25 375 -25 300.5 15 c 128,-1,34
 226 55 226 55 174 123 c 128,-1,35
 122 191 122 191 94 280.5 c 128,-1,36
 66 370 66 370 66 469 c 0,37,38
 66 614 66 614 115 719 c 128,-1,39
 164 824 164 824 251.5 891.5 c 128,-1,40
 339 959 339 959 460.5 991.5 c 128,-1,41
 582 1024 582 1024 727 1024 c 0,42,43
 779 1024 779 1024 836 1020 c 128,-1,44
 893 1016 893 1016 941 1011 c 0,45,46
 997 1006 997 1006 1051 999 c 1,47,-1
 1051 -299 l 2,48,49
 1051 -319 1051 -319 1064 -332.5 c 128,-1,50
 1077 -346 1077 -346 1096 -346 c 1,51,-1
 1180 -352 l 1,52,-1
 1180 -449 l 1,53,-1
 618 -449 l 1,21,-1
EndSplineSet
EndChar

StartChar: r
Encoding: 114 114 85
Width: 885
Flags: W
LayerCount: 2
Fore
SplineSet
725 676 m 1,0,1
 718 686 718 686 707.5 700 c 128,-1,2
 697 714 697 714 681.5 727 c 128,-1,3
 666 740 666 740 644 749 c 128,-1,4
 622 758 622 758 592 758 c 0,5,6
 563 758 563 758 538 752 c 128,-1,7
 513 746 513 746 496 739 c 0,8,9
 475 731 475 731 459 721 c 1,10,-1
 459 147 l 2,11,12
 459 129 459 129 471.5 114.5 c 128,-1,13
 484 100 484 100 504 100 c 2,14,-1
 635 94 l 1,15,-1
 635 -2 l 1,16,-1
 49 -2 l 1,17,-1
 49 94 l 1,18,-1
 139 100 l 2,19,20
 158 102 158 102 171 115.5 c 128,-1,21
 184 129 184 129 184 147 c 2,22,-1
 184 836 l 1,23,-1
 35 836 l 1,24,-1
 35 920 l 1,25,-1
 352 1024 l 1,26,-1
 459 1024 l 1,27,-1
 459 807 l 1,28,29
 478 831 478 831 510.5 868 c 128,-1,30
 543 905 543 905 581 939.5 c 128,-1,31
 619 974 619 974 659.5 999 c 128,-1,32
 700 1024 700 1024 735 1024 c 0,33,34
 753 1024 753 1024 772 1021 c 128,-1,35
 791 1018 791 1018 808.5 1012.5 c 128,-1,36
 826 1007 826 1007 840.5 1000.5 c 128,-1,37
 855 994 855 994 864 987 c 1,38,-1
 864 676 l 1,39,-1
 725 676 l 1,0,1
EndSplineSet
EndChar

StartChar: s
Encoding: 115 115 86
Width: 911
Flags: W
LayerCount: 2
Fore
SplineSet
815 686 m 1,0,-1
 688 686 l 1,1,-1
 666 850 l 1,2,3
 646 873 646 873 604 887 c 128,-1,4
 562 901 562 901 506 901 c 0,5,6
 434 901 434 901 393 871.5 c 128,-1,7
 352 842 352 842 352 788 c 0,8,9
 352 758 352 758 369 732 c 128,-1,10
 386 706 386 706 415 683 c 128,-1,11
 444 660 444 660 481 639.5 c 128,-1,12
 518 619 518 619 559 598 c 0,13,14
 610 572 610 572 662 545 c 128,-1,15
 714 518 714 518 755 485 c 128,-1,16
 796 452 796 452 822 411.5 c 128,-1,17
 848 371 848 371 848 319 c 0,18,19
 848 222 848 222 811 156.5 c 128,-1,20
 774 91 774 91 715 50.5 c 128,-1,21
 656 10 656 10 581 -7.5 c 128,-1,22
 506 -25 506 -25 430 -25 c 256,23,24
 354 -25 354 -25 288.5 -16.5 c 128,-1,25
 223 -8 223 -8 173 3 c 0,26,27
 115 15 115 15 66 31 c 1,28,-1
 66 342 l 1,29,-1
 195 342 l 1,30,31
 197 321 197 321 201 289 c 128,-1,32
 205 257 205 257 209 227 c 0,33,34
 213 192 213 192 219 154 c 1,35,36
 221 149 221 149 242 139.5 c 128,-1,37
 263 130 263 130 292 120 c 128,-1,38
 321 110 321 110 353 103 c 128,-1,39
 385 96 385 96 410 96 c 0,40,41
 462 96 462 96 496 110 c 128,-1,42
 530 124 530 124 550 144 c 128,-1,43
 570 164 570 164 578 186.5 c 128,-1,44
 586 209 586 209 586 227 c 0,45,46
 586 269 586 269 559.5 299.5 c 128,-1,47
 533 330 533 330 491 355 c 128,-1,48
 449 380 449 380 396.5 402.5 c 128,-1,49
 344 425 344 425 293 451 c 0,50,51
 250 472 250 472 211 497 c 128,-1,52
 172 522 172 522 142.5 553 c 128,-1,53
 113 584 113 584 95.5 623 c 128,-1,54
 78 662 78 662 78 713 c 0,55,56
 78 784 78 784 108.5 841.5 c 128,-1,57
 139 899 139 899 194 939.5 c 128,-1,58
 249 980 249 980 324 1002 c 128,-1,59
 399 1024 399 1024 489 1024 c 0,60,61
 565 1024 565 1024 625.5 1015.5 c 128,-1,62
 686 1007 686 1007 728 996 c 0,63,64
 777 984 777 984 815 969 c 1,65,-1
 815 686 l 1,0,-1
EndSplineSet
EndChar

StartChar: t
Encoding: 116 116 87
Width: 768
Flags: W
LayerCount: 2
Fore
SplineSet
760 45 m 1,0,1
 712 25 712 25 658 10 c 1,2,3
 612 -4 612 -4 553.5 -14.5 c 128,-1,4
 495 -25 495 -25 432 -25 c 0,5,6
 364 -25 364 -25 316.5 -10 c 128,-1,7
 269 5 269 5 239.5 36.5 c 128,-1,8
 210 68 210 68 197 115 c 128,-1,9
 184 162 184 162 184 227 c 2,10,-1
 184 868 l 1,11,-1
 49 868 l 1,12,-1
 49 950 l 1,13,-1
 207 1044 l 1,14,-1
 317 1262 l 1,15,-1
 459 1262 l 1,16,-1
 459 999 l 1,17,-1
 743 999 l 1,18,-1
 743 868 l 1,19,-1
 459 868 l 1,20,-1
 459 311 l 2,21,22
 459 213 459 213 502 173 c 128,-1,23
 545 133 545 133 627 133 c 0,24,25
 651 133 651 133 675 135 c 128,-1,26
 699 137 699 137 718 140 c 0,27,28
 740 143 740 143 760 147 c 1,29,-1
 760 45 l 1,0,1
EndSplineSet
EndChar

StartChar: u
Encoding: 117 117 88
Width: 1270
Flags: W
LayerCount: 2
Fore
SplineSet
811 0 m 1,0,-1
 811 113 l 1,1,2
 760 74 760 74 705 44 c 0,3,4
 658 18 658 18 601 -3.5 c 128,-1,5
 544 -25 544 -25 487 -25 c 0,6,7
 400 -25 400 -25 341.5 -2 c 128,-1,8
 283 21 283 21 248 64 c 128,-1,9
 213 107 213 107 198.5 169 c 128,-1,10
 184 231 184 231 184 309 c 2,11,-1
 184 838 l 1,12,-1
 51 838 l 1,13,-1
 51 922 l 1,14,-1
 352 1024 l 1,15,-1
 459 1024 l 1,16,-1
 459 389 l 2,17,18
 459 351 459 351 464 311 c 128,-1,19
 469 271 469 271 488 238 c 128,-1,20
 507 205 507 205 544.5 183.5 c 128,-1,21
 582 162 582 162 647 162 c 0,22,23
 679 162 679 162 708.5 167 c 128,-1,24
 738 172 738 172 761 179 c 0,25,26
 787 187 787 187 811 197 c 1,27,-1
 811 838 l 1,28,-1
 682 838 l 1,29,-1
 682 922 l 1,30,-1
 981 1024 l 1,31,-1
 1085 1024 l 1,32,-1
 1085 150 l 2,33,34
 1085 131 1085 131 1099.5 117.5 c 128,-1,35
 1114 104 1114 104 1133 102 c 2,36,-1
 1223 96 l 1,37,-1
 1223 0 l 1,38,-1
 811 0 l 1,0,-1
EndSplineSet
EndChar

StartChar: v
Encoding: 118 118 89
Width: 1159
Flags: W
LayerCount: 2
Fore
SplineSet
1024 889 m 1,0,-1
 672 0 l 1,1,-1
 469 0 l 1,2,-1
 141 891 l 1,3,-1
 20 903 l 1,4,-1
 20 999 l 1,5,-1
 559 999 l 1,6,-1
 559 903 l 1,7,-1
 465 897 l 2,8,9
 446 895 446 895 438 882 c 128,-1,10
 430 869 430 869 436 852 c 2,11,-1
 637 285 l 1,12,-1
 860 852 l 2,13,14
 866 867 866 867 856 881 c 128,-1,15
 846 895 846 895 829 897 c 2,16,-1
 743 903 l 1,17,-1
 743 999 l 1,18,-1
 1141 999 l 1,19,-1
 1141 903 l 1,20,-1
 1024 889 l 1,0,-1
EndSplineSet
EndChar

StartChar: w
Encoding: 119 119 90
Width: 1722
Flags: W
LayerCount: 2
Fore
SplineSet
1589 889 m 1,0,-1
 1315 0 l 1,1,-1
 1087 0 l 1,2,-1
 864 727 l 1,3,-1
 629 0 l 1,4,-1
 406 0 l 1,5,-1
 141 891 l 1,6,-1
 20 903 l 1,7,-1
 20 999 l 1,8,-1
 545 999 l 1,9,-1
 545 903 l 1,10,-1
 457 897 l 2,11,12
 440 895 440 895 430.5 882 c 128,-1,13
 421 869 421 869 426 852 c 2,14,-1
 586 289 l 1,15,-1
 815 999 l 1,16,-1
 1040 999 l 1,17,-1
 1260 285 l 1,18,-1
 1430 852 l 2,19,20
 1435 867 1435 867 1426.5 881 c 128,-1,21
 1418 895 1418 895 1401 897 c 2,22,-1
 1311 903 l 1,23,-1
 1311 999 l 1,24,-1
 1704 999 l 1,25,-1
 1704 903 l 1,26,-1
 1589 889 l 1,0,-1
EndSplineSet
EndChar

StartChar: x
Encoding: 120 120 91
Width: 1118
Flags: W
LayerCount: 2
Fore
SplineSet
580 0 m 1,0,-1
 580 96 l 1,1,-1
 659 104 l 2,2,3
 675 106 675 106 679.5 116.5 c 128,-1,4
 684 127 684 127 676 139 c 2,5,-1
 514 360 l 1,6,-1
 334 139 l 2,7,8
 325 128 325 128 329 117 c 128,-1,9
 333 106 333 106 348 104 c 2,10,-1
 420 96 l 1,11,-1
 420 0 l 1,12,-1
 20 0 l 1,13,-1
 20 96 l 1,14,-1
 143 113 l 1,15,-1
 436 467 l 1,16,-1
 133 889 l 1,17,-1
 25 903 l 1,18,-1
 25 999 l 1,19,-1
 528 999 l 1,20,-1
 528 903 l 1,21,-1
 469 897 l 2,22,23
 452 895 452 895 448.5 883 c 128,-1,24
 445 871 445 871 455 860 c 1,25,-1
 598 662 l 1,26,-1
 762 860 l 2,27,28
 770 871 770 871 766.5 883 c 128,-1,29
 763 895 763 895 748 897 c 2,30,-1
 682 903 l 1,31,-1
 682 999 l 1,32,-1
 1063 999 l 1,33,-1
 1063 903 l 1,34,-1
 948 889 l 1,35,-1
 676 553 l 1,36,-1
 991 113 l 1,37,-1
 1100 96 l 1,38,-1
 1100 0 l 1,39,-1
 580 0 l 1,0,-1
EndSplineSet
EndChar

StartChar: y
Encoding: 121 121 92
Width: 1159
Flags: W
LayerCount: 2
Fore
SplineSet
1032 889 m 1,0,-1
 678 20 l 2,1,2
 659 -26 659 -26 636 -80 c 128,-1,3
 613 -134 613 -134 584.5 -188.5 c 128,-1,4
 556 -243 556 -243 522 -293.5 c 128,-1,5
 488 -344 488 -344 446 -383 c 1,6,7
 403 -425 403 -425 352.5 -449 c 128,-1,8
 302 -473 302 -473 242 -473 c 0,9,10
 212 -473 212 -473 179.5 -461.5 c 128,-1,11
 147 -450 147 -450 120.5 -428.5 c 128,-1,12
 94 -407 94 -407 77 -376.5 c 128,-1,13
 60 -346 60 -346 61 -309 c 0,14,15
 61 -281 61 -281 71.5 -257.5 c 128,-1,16
 82 -234 82 -234 98.5 -215 c 128,-1,17
 115 -196 115 -196 136.5 -182 c 128,-1,18
 158 -168 158 -168 180 -158 c 1,19,-1
 354 -291 l 1,20,21
 382 -265 382 -265 406.5 -229 c 128,-1,22
 431 -193 431 -193 450.5 -154.5 c 128,-1,23
 470 -116 470 -116 484.5 -80 c 128,-1,24
 499 -44 499 -44 506 -18 c 1,25,-1
 141 891 l 1,26,-1
 20 903 l 1,27,-1
 20 999 l 1,28,-1
 559 999 l 1,29,-1
 559 903 l 1,30,-1
 465 897 l 2,31,32
 446 895 446 895 437 882 c 128,-1,33
 428 869 428 869 434 852 c 2,34,-1
 645 326 l 1,35,-1
 862 852 l 2,36,37
 868 867 868 867 858 881 c 128,-1,38
 848 895 848 895 831 897 c 2,39,-1
 741 903 l 1,40,-1
 741 999 l 1,41,-1
 1141 999 l 1,42,-1
 1141 903 l 1,43,-1
 1032 889 l 1,0,-1
EndSplineSet
EndChar

StartChar: z
Encoding: 122 122 93
Width: 1006
Flags: W
LayerCount: 2
Fore
SplineSet
66 0 m 1,0,-1
 66 133 l 1,1,-1
 590 883 l 1,2,-1
 281 883 l 2,3,4
 265 883 265 883 253.5 868.5 c 128,-1,5
 242 854 242 854 242 840 c 1,6,-1
 227 682 l 1,7,-1
 82 682 l 1,8,-1
 82 999 l 1,9,-1
 911 999 l 1,10,-1
 911 885 l 1,11,-1
 375 121 l 1,12,-1
 727 121 l 2,13,14
 734 121 734 121 741 126 c 128,-1,15
 748 131 748 131 754.5 138 c 128,-1,16
 761 145 761 145 765.5 153.5 c 128,-1,17
 770 162 770 162 772 170 c 2,18,-1
 799 344 l 1,19,-1
 940 344 l 1,20,-1
 940 0 l 1,21,-1
 66 0 l 1,0,-1
EndSplineSet
EndChar

StartChar: braceleft
Encoding: 123 123 94
Width: 1014
Flags: W
LayerCount: 2
Fore
SplineSet
864 -250 m 1,0,-1
 824 -250 l 2,1,2
 797 -250 797 -250 760.5 -248.5 c 128,-1,3
 724 -247 724 -247 682 -242.5 c 128,-1,4
 640 -238 640 -238 599 -228.5 c 128,-1,5
 558 -219 558 -219 521 -204 c 128,-1,6
 484 -189 484 -189 459 -166 c 0,7,8
 412 -125 412 -125 391 -69 c 128,-1,9
 370 -13 370 -13 363.5 48.5 c 128,-1,10
 357 110 357 110 358.5 173.5 c 128,-1,11
 360 237 360 237 359 295 c 128,-1,12
 358 353 358 353 348.5 401 c 128,-1,13
 339 449 339 449 309 479 c 256,14,15
 279 509 279 509 240 521.5 c 128,-1,16
 201 534 201 534 166 538 c 0,17,18
 126 542 126 542 84 537 c 1,19,-1
 84 659 l 1,20,21
 126 653 126 653 166 657 c 0,22,23
 201 660 201 660 240 672.5 c 128,-1,24
 279 685 279 685 309 715 c 256,25,26
 339 745 339 745 348.5 793.5 c 128,-1,27
 358 842 358 842 359 900 c 128,-1,28
 360 958 360 958 358.5 1022 c 128,-1,29
 357 1086 357 1086 363.5 1147.5 c 128,-1,30
 370 1209 370 1209 391 1265 c 128,-1,31
 412 1321 412 1321 459 1362 c 0,32,33
 484 1385 484 1385 521 1400 c 128,-1,34
 558 1415 558 1415 599 1424.5 c 128,-1,35
 640 1434 640 1434 682 1438.5 c 128,-1,36
 724 1443 724 1443 760.5 1444.5 c 128,-1,37
 797 1446 797 1446 824 1446 c 2,38,-1
 864 1446 l 1,39,-1
 864 1333 l 1,40,41
 827 1333 827 1333 791 1328 c 0,42,43
 760 1323 760 1323 726.5 1312 c 128,-1,44
 693 1301 693 1301 670 1278 c 0,45,46
 639 1248 639 1248 628 1203.5 c 128,-1,47
 617 1159 617 1159 615 1106.5 c 128,-1,48
 613 1054 613 1054 614 997 c 128,-1,49
 615 940 615 940 609 884.5 c 128,-1,50
 603 829 603 829 584.5 778 c 128,-1,51
 566 727 566 727 524 688 c 0,52,53
 492 657 492 657 457 639 c 128,-1,54
 422 621 422 621 392 612 c 128,-1,55
 362 603 362 603 339 600 c 0,56,57
 322 598 322 598 313 598 c 1,58,59
 322 597 322 597 339 595 c 0,60,61
 362 592 362 592 392 582.5 c 128,-1,62
 422 573 422 573 457 555 c 128,-1,63
 492 537 492 537 524 506 c 0,64,65
 566 466 566 466 584.5 415.5 c 128,-1,66
 603 365 603 365 609 309.5 c 128,-1,67
 615 254 615 254 614 197.5 c 128,-1,68
 613 141 613 141 615 89 c 128,-1,69
 617 37 617 37 628 -7.5 c 128,-1,70
 639 -52 639 -52 670 -82 c 0,71,72
 693 -105 693 -105 726.5 -116 c 128,-1,73
 760 -127 760 -127 791 -132 c 0,74,75
 827 -137 827 -137 864 -137 c 1,76,-1
 864 -250 l 1,0,-1
EndSplineSet
EndChar

StartChar: bar
Encoding: 124 124 95
Width: 815
Flags: W
LayerCount: 2
Fore
SplineSet
320 -528 m 1,0,-1
 320 1630 l 1,1,-1
 495 1630 l 1,2,-1
 495 -528 l 1,3,-1
 320 -528 l 1,0,-1
EndSplineSet
EndChar

StartChar: braceright
Encoding: 125 125 96
Width: 1014
Flags: W
LayerCount: 2
Fore
SplineSet
930 537 m 1,0,1
 887 542 887 542 847 538 c 0,2,3
 812 534 812 534 773 521.5 c 128,-1,4
 734 509 734 509 705 479 c 0,5,6
 675 448 675 448 665 400 c 128,-1,7
 655 352 655 352 653.5 294 c 128,-1,8
 652 236 652 236 653.5 172.5 c 128,-1,9
 655 109 655 109 648.5 47.5 c 128,-1,10
 642 -14 642 -14 621.5 -69.5 c 128,-1,11
 601 -125 601 -125 555 -166 c 0,12,13
 529 -189 529 -189 492.5 -204 c 128,-1,14
 456 -219 456 -219 415 -228.5 c 128,-1,15
 374 -238 374 -238 332 -242.5 c 128,-1,16
 290 -247 290 -247 253.5 -248.5 c 128,-1,17
 217 -250 217 -250 189 -250 c 2,18,-1
 150 -250 l 1,19,-1
 150 -137 l 1,20,21
 187 -137 187 -137 223 -132 c 0,22,23
 254 -127 254 -127 287 -116 c 128,-1,24
 320 -105 320 -105 344 -82 c 0,25,26
 375 -52 375 -52 386 -8 c 128,-1,27
 397 36 397 36 399 88 c 128,-1,28
 401 140 401 140 400 196.5 c 128,-1,29
 399 253 399 253 404.5 308.5 c 128,-1,30
 410 364 410 364 428.5 415 c 128,-1,31
 447 466 447 466 489 506 c 0,32,33
 521 536 521 536 555 554 c 128,-1,34
 589 572 589 572 619.5 581.5 c 128,-1,35
 650 591 650 591 673 594 c 128,-1,36
 696 597 696 597 705 598 c 1,37,38
 698 598 698 598 675.5 600 c 128,-1,39
 653 602 653 602 622.5 611 c 128,-1,40
 592 620 592 620 557 638 c 128,-1,41
 522 656 522 656 489 688 c 0,42,43
 447 728 447 728 428.5 779 c 128,-1,44
 410 830 410 830 404.5 885.5 c 128,-1,45
 399 941 399 941 400 998 c 128,-1,46
 401 1055 401 1055 399 1107.5 c 128,-1,47
 397 1160 397 1160 386 1204 c 128,-1,48
 375 1248 375 1248 344 1278 c 0,49,50
 320 1301 320 1301 287 1312 c 128,-1,51
 254 1323 254 1323 223 1328 c 0,52,53
 187 1333 187 1333 150 1333 c 1,54,-1
 150 1446 l 1,55,-1
 189 1446 l 2,56,57
 217 1446 217 1446 253.5 1444.5 c 128,-1,58
 290 1443 290 1443 332 1438.5 c 128,-1,59
 374 1434 374 1434 415 1424.5 c 128,-1,60
 456 1415 456 1415 493 1400 c 128,-1,61
 530 1385 530 1385 555 1362 c 0,62,63
 601 1320 601 1320 621.5 1264.5 c 128,-1,64
 642 1209 642 1209 648.5 1147.5 c 128,-1,65
 655 1086 655 1086 653.5 1022 c 128,-1,66
 652 958 652 958 653.5 900 c 128,-1,67
 655 842 655 842 665 793.5 c 128,-1,68
 675 745 675 745 705 715 c 0,69,70
 734 685 734 685 773 672.5 c 128,-1,71
 812 660 812 660 847 657 c 0,72,73
 887 653 887 653 930 659 c 1,74,-1
 930 537 l 1,0,1
EndSplineSet
EndChar

StartChar: asciitilde
Encoding: 126 126 97
Width: 1706
Flags: W
LayerCount: 2
Fore
SplineSet
1530 614 m 1,0,1
 1468 570 1468 570 1414.5 540 c 128,-1,2
 1361 510 1361 510 1313.5 492 c 128,-1,3
 1266 474 1266 474 1222 466.5 c 128,-1,4
 1178 459 1178 459 1135 459 c 0,5,6
 1060 459 1060 459 989.5 480.5 c 128,-1,7
 919 502 919 502 849.5 527.5 c 128,-1,8
 780 553 780 553 709 574.5 c 128,-1,9
 638 596 638 596 563 596 c 0,10,11
 492 596 492 596 398 552.5 c 128,-1,12
 304 509 304 509 176 412 c 1,13,-1
 176 606 l 1,14,15
 292 694 292 694 392 729 c 128,-1,16
 492 764 492 764 575 764 c 0,17,18
 633 764 633 764 688 751.5 c 128,-1,19
 743 739 743 739 796.5 721 c 128,-1,20
 850 703 850 703 903 682.5 c 128,-1,21
 956 662 956 662 1010 647 c 0,22,23
 1042 638 1042 638 1074 632.5 c 128,-1,24
 1106 627 1106 627 1137 627 c 0,25,26
 1170 627 1170 627 1208 635 c 128,-1,27
 1246 643 1246 643 1293.5 663.5 c 128,-1,28
 1341 684 1341 684 1399 719.5 c 128,-1,29
 1457 755 1457 755 1530 809 c 1,30,-1
 1530 614 l 1,0,1
EndSplineSet
EndChar

StartChar: quoteleft
Encoding: 8216 8216 98
Width: 563
Flags: W
LayerCount: 2
Fore
SplineSet
442 1346 m 1,0,1
 431 1343 431 1343 399.5 1325.5 c 128,-1,2
 368 1308 368 1308 333.5 1274.5 c 128,-1,3
 299 1241 299 1241 272.5 1189.5 c 128,-1,4
 246 1138 246 1138 246 1067 c 2,5,-1
 246 1059 l 2,6,7
 246 1055 246 1055 247 1052 c 1,8,9
 247 1048 247 1048 248 1044 c 1,10,-1
 369 1044 l 1,11,12
 380 1029 380 1029 389 1011 c 0,13,14
 397 996 397 996 403.5 975.5 c 128,-1,15
 410 955 410 955 410 932 c 0,16,17
 410 897 410 897 398 869.5 c 128,-1,18
 386 842 386 842 365.5 823 c 128,-1,19
 345 804 345 804 318 794 c 128,-1,20
 291 784 291 784 260 784 c 0,21,22
 217 784 217 784 183 800.5 c 128,-1,23
 149 817 149 817 125 846 c 128,-1,24
 101 875 101 875 88.5 914 c 128,-1,25
 76 953 76 953 76 997 c 0,26,27
 76 1060 76 1060 90.5 1111.5 c 128,-1,28
 105 1163 105 1163 128.5 1204.5 c 128,-1,29
 152 1246 152 1246 182 1278.5 c 128,-1,30
 212 1311 212 1311 244 1335 c 0,31,32
 318 1392 318 1392 412 1423 c 1,33,-1
 442 1346 l 1,0,1
EndSplineSet
EndChar

StartChar: quoteright
Encoding: 8217 8217 99
Width: 563
Flags: W
LayerCount: 2
Fore
SplineSet
487 1210 m 0,0,1
 487 1147 487 1147 472.5 1095 c 128,-1,2
 458 1043 458 1043 434.5 1001.5 c 128,-1,3
 411 960 411 960 380.5 927.5 c 128,-1,4
 350 895 350 895 319 871 c 0,5,6
 245 814 245 814 152 784 c 1,7,-1
 121 862 l 1,8,9
 181 895 181 895 221 928.5 c 128,-1,10
 261 962 261 962 284 996.5 c 128,-1,11
 307 1031 307 1031 314.5 1067 c 128,-1,12
 322 1103 322 1103 317 1141 c 0,13,14
 317 1143 317 1143 316.5 1145.5 c 128,-1,15
 316 1148 316 1148 316 1152 c 0,16,17
 315 1156 315 1156 315 1161 c 1,18,-1
 195 1161 l 1,19,20
 183 1175 183 1175 174 1193 c 0,21,22
 166 1208 166 1208 160 1229 c 128,-1,23
 154 1250 154 1250 154 1274 c 0,24,25
 154 1306 154 1306 163 1333.5 c 128,-1,26
 172 1361 172 1361 190.5 1381 c 128,-1,27
 209 1401 209 1401 237 1412 c 128,-1,28
 265 1423 265 1423 303 1423 c 0,29,30
 344 1423 344 1423 378 1406.5 c 128,-1,31
 412 1390 412 1390 436 1361.5 c 128,-1,32
 460 1333 460 1333 473.5 1294 c 128,-1,33
 487 1255 487 1255 487 1210 c 0,0,1
EndSplineSet
EndChar

StartChar: quotedblleft
Encoding: 8220 8220 100
Width: 1030
Flags: W
LayerCount: 2
Fore
SplineSet
909 1346 m 1,0,1
 853 1323 853 1323 809 1286 c 0,2,3
 790 1270 790 1270 772 1249.5 c 128,-1,4
 754 1229 754 1229 740 1203 c 128,-1,5
 726 1177 726 1177 717.5 1146 c 128,-1,6
 709 1115 709 1115 709 1079 c 2,7,-1
 709 1044 l 1,8,-1
 831 1044 l 1,9,10
 842 1029 842 1029 851 1011 c 0,11,12
 859 996 859 996 865.5 977 c 128,-1,13
 872 958 872 958 872 938 c 0,14,15
 872 903 872 903 860.5 874.5 c 128,-1,16
 849 846 849 846 829 826 c 128,-1,17
 809 806 809 806 781.5 795 c 128,-1,18
 754 784 754 784 723 784 c 0,19,20
 676 784 676 784 641.5 803 c 128,-1,21
 607 822 607 822 584 853 c 128,-1,22
 561 884 561 884 550 924.5 c 128,-1,23
 539 965 539 965 539 1008 c 0,24,25
 539 1067 539 1067 553.5 1116.5 c 128,-1,26
 568 1166 568 1166 591 1206.5 c 128,-1,27
 614 1247 614 1247 644 1278.5 c 128,-1,28
 674 1310 674 1310 705 1334 c 0,29,30
 778 1390 778 1390 872 1423 c 1,31,-1
 909 1346 l 1,0,1
444 1346 m 1,32,33
 406 1324 406 1324 370 1299 c 128,-1,34
 334 1274 334 1274 306.5 1241.5 c 128,-1,35
 279 1209 279 1209 262.5 1166.5 c 128,-1,36
 246 1124 246 1124 246 1067 c 0,37,38
 246 1054 246 1054 247 1050 c 0,39,40
 247 1046 247 1046 248 1044 c 1,41,-1
 369 1044 l 1,42,43
 380 1033 380 1033 389 1017 c 0,44,45
 397 1003 397 1003 403.5 981.5 c 128,-1,46
 410 960 410 960 410 930 c 0,47,48
 410 862 410 862 368.5 823 c 128,-1,49
 327 784 327 784 262 784 c 0,50,51
 217 784 217 784 182.5 801.5 c 128,-1,52
 148 819 148 819 124.5 848 c 128,-1,53
 101 877 101 877 88.5 915.5 c 128,-1,54
 76 954 76 954 76 995 c 0,55,56
 76 1058 76 1058 90.5 1109.5 c 128,-1,57
 105 1161 105 1161 128 1202.5 c 128,-1,58
 151 1244 151 1244 181 1276.5 c 128,-1,59
 211 1309 211 1309 243 1333 c 0,60,61
 316 1390 316 1390 410 1421 c 1,62,-1
 444 1346 l 1,32,33
EndSplineSet
EndChar

StartChar: quotedblright
Encoding: 8221 8221 101
Width: 1028
Flags: W
LayerCount: 2
Fore
SplineSet
489 1198 m 0,0,1
 489 1138 489 1138 474.5 1089 c 128,-1,2
 460 1040 460 1040 436.5 999.5 c 128,-1,3
 413 959 413 959 382.5 927.5 c 128,-1,4
 352 896 352 896 321 872 c 0,5,6
 247 816 247 816 154 784 c 1,7,-1
 121 862 l 1,8,9
 176 885 176 885 219 922 c 0,10,11
 237 938 237 938 255 958.5 c 128,-1,12
 273 979 273 979 286.5 1004.5 c 128,-1,13
 300 1030 300 1030 308.5 1061 c 128,-1,14
 317 1092 317 1092 317 1128 c 2,15,-1
 317 1163 l 1,16,-1
 195 1163 l 1,17,18
 183 1177 183 1177 174 1195 c 0,19,20
 166 1209 166 1209 160 1228.5 c 128,-1,21
 154 1248 154 1248 154 1268 c 0,22,23
 154 1304 154 1304 166 1332.5 c 128,-1,24
 178 1361 178 1361 198 1381.5 c 128,-1,25
 218 1402 218 1402 245.5 1412.5 c 128,-1,26
 273 1423 273 1423 305 1423 c 0,27,28
 352 1423 352 1423 386.5 1404 c 128,-1,29
 421 1385 421 1385 444 1353.5 c 128,-1,30
 467 1322 467 1322 478 1281.5 c 128,-1,31
 489 1241 489 1241 489 1198 c 0,0,1
952 1212 m 0,32,33
 952 1149 952 1149 937.5 1097.5 c 128,-1,34
 923 1046 923 1046 899.5 1004 c 128,-1,35
 876 962 876 962 845.5 929.5 c 128,-1,36
 815 897 815 897 784 873 c 0,37,38
 710 816 710 816 616 786 c 1,39,-1
 582 862 l 1,40,41
 621 884 621 884 657 909 c 128,-1,42
 693 934 693 934 721 967 c 128,-1,43
 749 1000 749 1000 765.5 1042.5 c 128,-1,44
 782 1085 782 1085 782 1141 c 0,45,46
 782 1146 782 1146 781.5 1150 c 128,-1,47
 781 1154 781 1154 781 1157 c 0,48,49
 780 1161 780 1161 780 1163 c 1,50,-1
 657 1163 l 1,51,52
 645 1173 645 1173 636 1190 c 0,53,54
 628 1204 628 1204 622 1226 c 128,-1,55
 616 1248 616 1248 616 1278 c 0,56,57
 616 1312 616 1312 627.5 1338.5 c 128,-1,58
 639 1365 639 1365 659 1384 c 128,-1,59
 679 1403 679 1403 706.5 1413 c 128,-1,60
 734 1423 734 1423 766 1423 c 0,61,62
 811 1423 811 1423 845.5 1405.5 c 128,-1,63
 880 1388 880 1388 903.5 1359 c 128,-1,64
 927 1330 927 1330 939.5 1292 c 128,-1,65
 952 1254 952 1254 952 1212 c 0,32,33
EndSplineSet
EndChar

StartChar: u0950
Encoding: 2384 2384 102
Width: 2136
Flags: W
LayerCount: 2
Fore
SplineSet
1321 1395 m 1,0,1
 1329 1381 1329 1381 1331 1356 c 1,2,3
 1331 1335 1331 1335 1322 1316 c 1,4,-1
 1310 1294 l 1,5,-1
 1067 1224 l 1,6,-1
 1038 1281 l 1,7,-1
 1234 1436 l 1,8,-1
 1256 1440 l 1,9,10
 1274 1440 1274 1440 1290.5 1432 c 128,-1,11
 1307 1424 1307 1424 1321 1395 c 1,0,1
1645 1297 m 1,12,13
 1559 1149 1559 1149 1438 1078.5 c 128,-1,14
 1317 1008 1317 1008 1147 1008 c 0,15,16
 989 1008 989 1008 865 1111 c 0,17,18
 770 1189 770 1189 705 1319 c 1,19,-1
 807 1373 l 1,20,21
 861 1267 861 1267 931 1209 c 1,22,23
 1027 1125 1027 1125 1147 1125 c 0,24,25
 1282 1125 1282 1125 1376.5 1180 c 128,-1,26
 1471 1235 1471 1235 1539 1351 c 1,27,-1
 1645 1297 l 1,12,13
2028 499 m 0,28,29
 2028 387 2028 387 1964 285 c 0,30,31
 1872 138 1872 138 1690 138 c 0,32,33
 1510 138 1510 138 1404 250 c 0,34,35
 1344 313 1344 313 1311 404 c 1,36,-1
 1425 437 l 1,37,38
 1434 409 1434 409 1448.5 384 c 128,-1,39
 1463 359 1463 359 1485 336 c 0,40,41
 1560 257 1560 257 1688 257 c 0,42,43
 1807 257 1807 257 1864 356 c 1,44,45
 1906 426 1906 426 1906 500 c 0,46,47
 1906 640 1906 640 1832 739 c 0,48,49
 1767 827 1767 827 1655 827 c 0,50,51
 1583 827 1583 827 1530 791 c 0,52,53
 1467 749 1467 749 1398 628 c 128,-1,54
 1329 507 1329 507 1310 479 c 0,55,56
 1259 400 1259 400 1212 364 c 0,57,58
 1154 318 1154 318 1083 318 c 0,59,60
 1036 318 1036 318 996 333 c 1,61,-1
 996 296 l 2,62,63
 996 145 996 145 900 70 c 1,64,65
 815 5 815 5 675 5 c 0,66,67
 517 5 517 5 384 100 c 0,68,69
 284 171 284 171 199 299 c 0,70,71
 148 377 148 377 111 468 c 1,72,-1
 223 514 l 1,73,74
 294 324 294 324 417 221 c 1,75,76
 533 122 533 122 677 122 c 0,77,78
 763 122 763 122 816 161 c 0,79,80
 877 207 877 207 877 296 c 0,81,82
 877 402 877 402 816 476 c 1,83,84
 784 513 784 513 714 557 c 1,85,86
 682 543 682 543 643.5 531.5 c 128,-1,87
 605 520 605 520 549 509 c 1,88,-1
 468 498 l 1,89,-1
 460 612 l 1,90,91
 573 623 573 623 631 641 c 0,92,93
 804 695 804 695 804 826 c 0,94,95
 804 896 804 896 758 953 c 0,96,97
 700 1023 700 1023 591 1023 c 0,98,99
 510 1023 510 1023 424 984 c 1,100,-1
 303 933 l 1,101,-1
 271 1043 l 1,102,-1
 405 1100 l 2,103,104
 501 1140 501 1140 591 1140 c 0,105,106
 763 1140 763 1140 854 1028 c 0,107,108
 925 940 925 940 925 826 c 0,109,110
 925 763 925 763 901.5 713.5 c 128,-1,111
 878 664 878 664 829 620 c 1,112,113
 864 601 864 601 891 575.5 c 128,-1,114
 918 550 918 550 946 504 c 1,115,116
 969 475 969 475 1005 454 c 1,117,118
 1030 443 1030 443 1048 439.5 c 128,-1,119
 1066 436 1066 436 1084 436 c 0,120,121
 1138 436 1138 436 1181 483 c 1,122,-1
 1298 684 l 1,123,124
 1366 805 1366 805 1438 866 c 0,125,126
 1531 944 1531 944 1657 944 c 0,127,128
 1794 944 1794 944 1890 848 c 1,129,130
 1960 776 1960 776 2000 655 c 1,131,132
 2028 564 2028 564 2028 499 c 0,28,29
EndSplineSet
EndChar

StartChar: u0C01
Encoding: 3073 3073 103
Width: 949
Flags: W
LayerCount: 2
Fore
SplineSet
828 364 m 1,0,1
 786 184 786 184 704 98 c 0,2,3
 613 2 613 2 462 2 c 0,4,5
 303 2 303 2 210 142 c 1,6,7
 170 205 170 205 149 283 c 128,-1,8
 128 361 128 361 128 457 c 0,9,10
 128 653 128 653 216 791 c 1,11,12
 326 960 326 960 540 960 c 1,13,-1
 540 832 l 1,14,15
 386 832 386 832 308 706 c 1,16,17
 279 656 279 656 264 595.5 c 128,-1,18
 249 535 249 535 249 458 c 0,19,20
 249 331 249 331 303 236 c 1,21,22
 364 131 364 131 463 131 c 0,23,24
 568 131 568 131 628 203 c 1,25,26
 677 264 677 264 714 411 c 1,27,-1
 828 364 l 1,0,1
EndSplineSet
AnchorPoint: "BR" -69 188 mark 0
EndChar

StartChar: u0C03
Encoding: 3075 3075 105
Width: 676
Flags: W
LayerCount: 2
Fore
SplineSet
519 653 m 0,0,1
 519 582 519 582 464.5 526 c 128,-1,2
 410 470 410 470 336 470 c 0,3,4
 261 470 261 470 208.5 524.5 c 128,-1,5
 156 579 156 579 156 653 c 0,6,7
 156 728 156 728 208.5 780.5 c 128,-1,8
 261 833 261 833 336 833 c 256,9,10
 411 833 411 833 464.5 781.5 c 128,-1,11
 518 730 518 730 519 653 c 0,0,1
518 191 m 0,12,13
 518 120 518 120 463.5 64 c 128,-1,14
 409 8 409 8 335 8 c 0,15,16
 263 8 263 8 209.5 63 c 128,-1,17
 156 118 156 118 156 190 c 0,18,19
 156 265 156 265 208.5 317.5 c 128,-1,20
 261 370 261 370 336 370 c 256,21,22
 411 370 411 370 464.5 318.5 c 128,-1,23
 518 267 518 267 518 191 c 0,12,13
412 652 m 0,24,25
 412 682 412 682 390.5 703.5 c 128,-1,26
 369 725 369 725 336 725 c 0,27,28
 306 725 306 725 284 705 c 128,-1,29
 262 685 262 685 262 652 c 0,30,31
 262 622 262 622 283.5 599 c 128,-1,32
 305 576 305 576 337 576 c 256,33,34
 369 576 369 576 391 598 c 128,-1,35
 413 620 413 620 412 652 c 0,24,25
413 191 m 0,36,37
 413 221 413 221 391.5 242.5 c 128,-1,38
 370 264 370 264 337 264 c 0,39,40
 307 264 307 264 285 244 c 128,-1,41
 263 224 263 224 263 191 c 0,42,43
 263 161 263 161 284.5 138 c 128,-1,44
 306 115 306 115 338 115 c 256,45,46
 370 115 370 115 392 137 c 128,-1,47
 414 159 414 159 413 191 c 0,36,37
EndSplineSet
AnchorPoint: "BR" -69 188 mark 0
EndChar

StartChar: u0C05
Encoding: 3077 3077 106
Width: 1519
Flags: W
LayerCount: 2
Fore
SplineSet
1393 506 m 1,0,1
 1393 260 1393 260 1181 119 c 1,2,3
 1093 62 1093 62 989 31.5 c 128,-1,4
 885 1 885 1 768 1 c 0,5,6
 521 1 521 1 342 114 c 1,7,8
 130 251 130 251 130 507 c 0,9,10
 130 752 130 752 260 873 c 0,11,12
 353 959 353 959 470 959 c 0,13,14
 546 959 546 959 600.5 899.5 c 128,-1,15
 655 840 655 840 655 754 c 0,16,17
 655 666 655 666 599 605.5 c 128,-1,18
 543 545 543 545 466 545 c 0,19,20
 388 545 388 545 333 605.5 c 128,-1,21
 278 666 278 666 278 754 c 2,22,-1
 278 705 l 1,23,24
 273 700 273 700 261 636 c 0,25,26
 256 604 256 604 253.5 575 c 128,-1,27
 251 546 251 546 251 509 c 0,28,29
 251 311 251 311 426 212 c 0,30,31
 564 133 564 133 769 133 c 0,32,33
 958 133 958 133 1100 217 c 0,34,35
 1275 320 1275 320 1275 510 c 0,36,37
 1275 679 1275 679 1197 763 c 0,38,39
 1132 834 1132 834 1039 834 c 0,40,41
 982 834 982 834 940 784 c 1,42,43
 903 735 903 735 903 665 c 0,44,45
 903 608 903 608 929.5 555.5 c 128,-1,46
 956 503 956 503 1012 463 c 1,47,-1
 1129 463 l 1,48,-1
 1129 337 l 1,49,-1
 404 337 l 1,50,-1
 404 463 l 1,51,-1
 847 463 l 1,52,53
 821 502 821 502 799 563 c 1,54,55
 783 617 783 617 783 670 c 0,56,57
 783 789 783 789 854 875.5 c 128,-1,58
 925 962 925 962 1039 962 c 0,59,60
 1180 962 1180 962 1275 869 c 0,61,62
 1396 752 1396 752 1393 506 c 1,0,1
537 757 m 0,63,64
 537 786 537 786 517.5 809.5 c 128,-1,65
 498 833 498 833 469 833 c 256,66,67
 440 833 440 833 420.5 810 c 128,-1,68
 401 787 401 787 401 757 c 0,69,70
 401 722 401 722 419.5 699 c 128,-1,71
 438 676 438 676 468 676 c 0,72,73
 496 676 496 676 516 698 c 128,-1,74
 536 720 536 720 537 757 c 0,63,64
EndSplineSet
EndChar

StartChar: u0C06
Encoding: 3078 3078 107
Width: 1479
Flags: W
LayerCount: 2
Fore
SplineSet
1353 714 m 0,0,1
 1353 636 1353 636 1331.5 570 c 128,-1,2
 1310 504 1310 504 1267 461 c 1,3,4
 1318 401 1318 401 1318 315 c 0,5,6
 1318 143 1318 143 1115 64 c 0,7,8
 1038 35 1038 35 938 20 c 128,-1,9
 838 5 838 5 711 5 c 0,10,11
 469 5 469 5 299 122 c 1,12,13
 102 259 102 259 102 510 c 0,14,15
 102 748 102 748 222 869 c 0,16,17
 315 962 315 962 438 962 c 0,18,19
 517 962 517 962 572 902 c 128,-1,20
 627 842 627 842 627 757 c 0,21,22
 627 671 627 671 572 609.5 c 128,-1,23
 517 548 517 548 438 548 c 0,24,25
 360 548 360 548 305 608.5 c 128,-1,26
 250 669 250 669 250 757 c 2,27,-1
 250 711 l 1,28,29
 222 683 222 683 222 510 c 0,30,31
 222 326 222 326 383 221 c 1,32,33
 520 133 520 133 711 133 c 0,34,35
 907 133 907 133 1031 166 c 1,36,37
 1197 212 1197 212 1197 315 c 0,38,39
 1197 340 1197 340 1188 355 c 128,-1,40
 1179 370 1179 370 1160 385 c 1,41,-1
 1075 370 l 1,42,-1
 1024 363 l 1,43,-1
 373 363 l 1,44,-1
 373 494 l 1,45,-1
 912 494 l 1,46,47
 862 526 862 526 830 577 c 1,48,49
 795 638 795 638 795 713 c 0,50,51
 795 846 795 846 895 911 c 1,52,53
 973 958 973 958 1072 958 c 0,54,55
 1167 958 1167 958 1249 904 c 1,56,57
 1352 834 1352 834 1353 714 c 0,0,1
1232 713 m 0,58,59
 1232 769 1232 769 1172 804 c 1,60,61
 1123 830 1123 830 1072 830 c 0,62,63
 1015 830 1015 830 973 809 c 0,64,65
 915 780 915 780 915 713 c 0,66,67
 915 641 915 641 987 591 c 0,68,69
 1041 554 1041 554 1143 529 c 1,70,71
 1183 551 1183 551 1207.5 603.5 c 128,-1,72
 1232 656 1232 656 1232 713 c 0,58,59
506 755 m 0,73,74
 506 784 506 784 487 807 c 1,75,76
 471 830 471 830 439 830 c 0,77,78
 413 830 413 830 392 807 c 128,-1,79
 371 784 371 784 371 754 c 0,80,81
 371 721 371 721 390.5 697.5 c 128,-1,82
 410 674 410 674 439 674 c 0,83,84
 467 674 467 674 487 697 c 128,-1,85
 507 720 507 720 506 755 c 0,73,74
EndSplineSet
EndChar

StartChar: u0C07
Encoding: 3079 3079 108
Width: 1230
Flags: W
LayerCount: 2
Fore
SplineSet
1103 564 m 0,0,1
 1103 506 1103 506 1085 435 c 0,2,3
 1077 400 1077 400 1064.5 366.5 c 128,-1,4
 1052 333 1052 333 1033 300 c 1,5,6
 1093 201 1093 201 1093 52 c 0,7,8
 1093 -67 1093 -67 1032 -137 c 0,9,10
 978 -200 978 -200 889 -212 c 1,11,-1
 875 -85 l 1,12,13
 921 -77 921 -77 947.5 -42 c 128,-1,14
 974 -7 974 -7 974 51 c 0,15,16
 974 87 974 87 969 116 c 2,17,-1
 955 184 l 1,18,19
 883 103 883 103 774.5 51 c 128,-1,20
 666 -1 666 -1 535 -1 c 0,21,22
 369 -1 369 -1 274.5 78.5 c 128,-1,23
 180 158 180 158 180 282 c 0,24,25
 180 381 180 381 279 470 c 0,26,27
 391 570 391 570 546 570 c 0,28,29
 645 570 645 570 757 530.5 c 128,-1,30
 869 491 869 491 953 407 c 1,31,32
 957 418 957 418 964 442.5 c 128,-1,33
 971 467 971 467 976 489 c 1,34,-1
 985 563 l 1,35,36
 985 677 985 677 931.5 751.5 c 128,-1,37
 878 826 878 826 800 826 c 0,38,39
 737 826 737 826 698 787.5 c 128,-1,40
 659 749 659 749 647 689 c 1,41,-1
 533 689 l 1,42,43
 528 750 528 750 486.5 787.5 c 128,-1,44
 445 825 445 825 371 825 c 0,45,46
 322 825 322 825 286 800 c 1,47,48
 254 775 254 775 254 733 c 0,49,50
 254 693 254 693 276 644 c 1,51,52
 278 636 278 636 283.5 625.5 c 128,-1,53
 289 615 289 615 298 603 c 1,54,-1
 203 524 l 1,55,-1
 168 592 l 1,56,57
 132 677 132 677 132 734 c 0,58,59
 132 823 132 823 197.5 890 c 128,-1,60
 263 957 263 957 369 957 c 0,61,62
 443 957 443 957 498.5 930 c 128,-1,63
 554 903 554 903 591 854 c 1,64,65
 623 896 623 896 678 926.5 c 128,-1,66
 733 957 733 957 798 957 c 0,67,68
 921 957 921 957 1012.5 847.5 c 128,-1,69
 1104 738 1104 738 1103 564 c 0,0,1
885 296 m 1,70,71
 822 370 822 370 719 409 c 0,72,73
 634 441 634 441 545 441 c 0,74,75
 445 441 445 441 372.5 391 c 128,-1,76
 300 341 300 341 300 280 c 0,77,78
 300 210 300 210 363 166 c 1,79,80
 427 126 427 126 534 126 c 0,81,82
 647 126 647 126 743 176 c 0,83,84
 822 218 822 218 885 296 c 1,70,71
EndSplineSet
EndChar

StartChar: u0C08
Encoding: 3080 3080 109
Width: 2015
Flags: W
LayerCount: 2
Fore
SplineSet
1889 306 m 1,0,1
 1889 183 1889 183 1805.5 91.5 c 128,-1,2
 1722 0 1722 0 1609 0 c 0,3,4
 1495 0 1495 0 1412 91 c 128,-1,5
 1329 182 1329 182 1329 306 c 0,6,7
 1329 409 1329 409 1383 500 c 1,8,-1
 1123 500 l 1,9,10
 1123 289 1123 289 1003.5 144.5 c 128,-1,11
 884 0 884 0 708 0 c 0,12,13
 534 0 534 0 414 140 c 128,-1,14
 294 280 294 280 294 501 c 1,15,-1
 136 501 l 1,16,-1
 136 631 l 1,17,-1
 310 631 l 1,18,19
 343 738 343 738 416.5 822.5 c 128,-1,20
 490 907 490 907 587 947 c 1,21,22
 544 970 544 970 507 1012 c 0,23,24
 475 1048 475 1048 457 1088 c 1,25,-1
 561 1156 l 1,26,27
 600 1106 600 1106 622 1085 c 1,28,29
 668 1044 668 1044 707 1044 c 0,30,31
 784 1044 784 1044 861 1130 c 1,32,-1
 996 1291 l 1,33,34
 1089 1377 1089 1377 1206 1377 c 2,35,-1
 1381 1377 l 1,36,-1
 1381 1235 l 1,37,-1
 1204 1235 l 2,38,39
 1133 1235 1133 1235 1068 1177 c 0,40,41
 1054 1165 1054 1165 965 1055 c 1,42,43
 901 974 901 974 840 942 c 1,44,45
 928 903 928 903 998.5 819 c 128,-1,46
 1069 735 1069 735 1102 630 c 1,47,-1
 1610 630 l 2,48,49
 1656 630 1656 630 1695 656 c 1,50,51
 1741 689 1741 689 1741 746 c 0,52,53
 1741 789 1741 789 1700 824 c 128,-1,54
 1659 859 1659 859 1613 859 c 0,55,56
 1541 859 1541 859 1505 827 c 1,57,58
 1469 798 1469 798 1469 747 c 1,59,-1
 1349 755 l 1,60,61
 1349 847 1349 847 1409 911 c 1,62,63
 1480 989 1480 989 1614 989 c 0,64,65
 1706 989 1706 989 1784 913 c 128,-1,66
 1862 837 1862 837 1862 746 c 0,67,68
 1862 689 1862 689 1842.5 641.5 c 128,-1,69
 1823 594 1823 594 1786 559 c 1,70,71
 1839 512 1839 512 1865.5 450 c 128,-1,72
 1892 388 1892 388 1889 306 c 1,0,1
1772 306 m 0,73,74
 1772 383 1772 383 1724 441.5 c 128,-1,75
 1676 500 1676 500 1612 500 c 256,76,77
 1548 500 1548 500 1500 440.5 c 128,-1,78
 1452 381 1452 381 1452 306 c 0,79,80
 1452 237 1452 237 1498 183 c 1,81,82
 1544 133 1544 133 1612 133 c 0,83,84
 1679 133 1679 133 1725.5 184 c 128,-1,85
 1772 235 1772 235 1772 306 c 0,73,74
972 632 m 1,86,87
 937 720 937 720 866 780 c 128,-1,88
 795 840 795 840 710 840 c 256,89,90
 625 840 625 840 551 779 c 0,91,92
 487 726 487 726 444 633 c 1,93,-1
 972 632 l 1,86,87
1006 503 m 1,94,-1
 416 503 l 1,95,96
 416 340 416 340 498.5 237.5 c 128,-1,97
 581 135 581 135 711 135 c 0,98,99
 838 135 838 135 921.5 239.5 c 128,-1,100
 1005 344 1005 344 1006 503 c 1,94,-1
EndSplineSet
EndChar

StartChar: u0C09
Encoding: 3081 3081 110
Width: 1671
Flags: W
LayerCount: 2
Fore
SplineSet
1545 602 m 1,0,-1
 462 602 l 1,1,2
 446 572 446 572 434 528 c 0,3,4
 429 506 429 506 426.5 488 c 128,-1,5
 424 470 424 470 424 447 c 0,6,7
 424 282 424 282 468.5 209 c 128,-1,8
 513 136 513 136 598 136 c 0,9,10
 684 136 684 136 742 225 c 1,11,12
 789 331 789 331 801 350 c 1,13,-1
 893 350 l 1,14,-1
 947 223 l 1,15,16
 1000 135 1000 135 1095 135 c 0,17,18
 1177 135 1177 135 1227 195 c 0,19,20
 1269 245 1269 245 1269 306 c 2,21,-1
 1269 335 l 1,22,23
 1253 275 1253 275 1205.5 239 c 128,-1,24
 1158 203 1158 203 1101 203 c 0,25,26
 1032 203 1032 203 979 258 c 128,-1,27
 926 313 926 313 926 392 c 0,28,29
 926 474 926 474 977.5 534 c 128,-1,30
 1029 594 1029 594 1101 594 c 0,31,32
 1253 594 1253 594 1332 481 c 0,33,34
 1389 399 1389 399 1389 306 c 0,35,36
 1389 197 1389 197 1331 113 c 1,37,38
 1250 3 1250 3 1095 3 c 0,39,40
 1004 3 1004 3 934 53 c 0,41,42
 883 90 883 90 844 165 c 1,43,44
 801 94 801 94 751 55 c 0,45,46
 683 2 683 2 597 2 c 0,47,48
 459 2 459 2 387 97 c 0,49,50
 303 206 303 206 303 445 c 0,51,52
 303 526 303 526 325 603 c 1,53,-1
 131 603 l 1,54,-1
 131 715 l 1,55,-1
 380 715 l 1,56,57
 445 815 445 815 553.5 879 c 128,-1,58
 662 943 662 943 789 959 c 1,59,-1
 789 1159 l 1,60,-1
 909 1159 l 1,61,-1
 909 962 l 1,62,63
 998 954 998 954 1081 921 c 1,64,65
 1114 909 1114 909 1147.5 891.5 c 128,-1,66
 1181 874 1181 874 1216 852 c 1,67,-1
 1162 738 l 1,68,69
 1088 781 1088 781 1023 804 c 0,70,71
 981 818 981 818 937 826 c 128,-1,72
 893 834 893 834 849 834 c 0,73,74
 757 834 757 834 677.5 804 c 128,-1,75
 598 774 598 774 538 714 c 1,76,-1
 1547 714 l 1,77,-1
 1545 602 l 1,0,-1
1162 397 m 256,78,79
 1162 423 1162 423 1146 442.5 c 128,-1,80
 1130 462 1130 462 1105 462 c 256,81,82
 1080 462 1080 462 1062 443 c 0,83,84
 1050 429 1050 429 1050 397 c 0,85,86
 1050 369 1050 369 1065 350 c 1,87,88
 1083 332 1083 332 1105 332 c 256,89,90
 1127 332 1127 332 1144.5 351.5 c 128,-1,91
 1162 371 1162 371 1162 397 c 256,78,79
EndSplineSet
EndChar

StartChar: u0C0A
Encoding: 3082 3082 111
Width: 2251
Flags: W
LayerCount: 2
Fore
SplineSet
2125 399 m 1,0,1
 2125 276 2125 276 2041 184.5 c 128,-1,2
 1957 93 1957 93 1844 93 c 0,3,4
 1730 93 1730 93 1647 184 c 128,-1,5
 1564 275 1564 275 1564 399 c 0,6,7
 1564 449 1564 449 1580.5 501.5 c 128,-1,8
 1597 554 1597 554 1629 596 c 1,9,-1
 452 596 l 1,10,-1
 430 521 l 1,11,12
 425 485 425 485 424.5 470 c 128,-1,13
 424 455 424 455 424 446 c 0,14,15
 424 362 424 362 435 304 c 128,-1,16
 446 246 446 246 472 206 c 1,17,18
 516 135 516 135 597 135 c 0,19,20
 683 135 683 135 741 224 c 1,21,22
 788 330 788 330 800 349 c 1,23,-1
 892 349 l 1,24,-1
 946 221 l 1,25,26
 1002 132 1002 132 1094 132 c 0,27,28
 1175 132 1175 132 1226 189 c 0,29,30
 1268 235 1268 235 1268 295 c 0,31,32
 1268 320 1268 320 1266 328 c 1,33,34
 1247 271 1247 271 1202.5 237 c 128,-1,35
 1158 203 1158 203 1101 203 c 0,36,37
 1032 203 1032 203 979 258 c 128,-1,38
 926 313 926 313 926 392 c 0,39,40
 926 474 926 474 977.5 534 c 128,-1,41
 1029 594 1029 594 1101 594 c 0,42,43
 1245 594 1245 594 1326 487 c 1,44,45
 1390 399 1390 399 1390 294 c 0,46,47
 1390 194 1390 194 1322 109 c 0,48,49
 1237 3 1237 3 1096 3 c 0,50,51
 1005 3 1005 3 935 53 c 0,52,53
 884 90 884 90 845 165 c 1,54,55
 802 94 802 94 752 55 c 0,56,57
 684 2 684 2 598 2 c 0,58,59
 474 2 474 2 397 97 c 0,60,61
 304 211 304 211 304 444 c 0,62,63
 304 519 304 519 326 596 c 1,64,-1
 137 596 l 1,65,-1
 137 710 l 1,66,-1
 380 710 l 1,67,68
 429 788 429 788 502.5 844 c 128,-1,69
 576 900 576 900 669 933 c 1,70,-1
 669 1158 l 1,71,-1
 789 1158 l 1,72,-1
 789 958 l 1,73,-1
 927 958 l 1,74,-1
 927 1158 l 1,75,-1
 1047 1158 l 1,76,-1
 1047 930 l 1,77,78
 1080 921 1080 921 1124 902 c 0,79,80
 1140 896 1140 896 1239 840 c 1,81,-1
 1179 726 l 1,82,83
 1084 787 1084 787 1001.5 810.5 c 128,-1,84
 919 834 919 834 847 834 c 0,85,86
 754 834 754 834 675 804 c 128,-1,87
 596 774 596 774 533 711 c 1,88,-1
 1843 711 l 2,89,90
 1892 711 1892 711 1928 734 c 0,91,92
 1974 763 1974 763 1974 821 c 0,93,94
 1974 865 1974 865 1933 902.5 c 128,-1,95
 1892 940 1892 940 1846 940 c 0,96,97
 1774 940 1774 940 1737 910 c 128,-1,98
 1700 880 1700 880 1700 831 c 1,99,-1
 1580 831 l 1,100,101
 1580 923 1580 923 1640 988 c 1,102,103
 1711 1067 1711 1067 1846 1067 c 0,104,105
 1938 1067 1938 1067 2016 989 c 128,-1,106
 2094 911 2094 911 2094 819 c 0,107,108
 2094 759 2094 759 2072.5 719.5 c 128,-1,109
 2051 680 2051 680 2009 648 c 1,110,111
 2058 608 2058 608 2090.5 539 c 128,-1,112
 2123 470 2123 470 2125 399 c 1,0,1
2003 398 m 0,113,114
 2003 470 2003 470 1956.5 525 c 128,-1,115
 1910 580 1910 580 1843 580 c 0,116,117
 1779 580 1779 580 1731 525 c 128,-1,118
 1683 470 1683 470 1683 398 c 256,119,120
 1683 326 1683 326 1729.5 273.5 c 128,-1,121
 1776 221 1776 221 1843 221 c 0,122,123
 1908 221 1908 221 1955.5 272.5 c 128,-1,124
 2003 324 2003 324 2003 398 c 0,113,114
1159 395 m 256,125,126
 1159 421 1159 421 1143 440.5 c 128,-1,127
 1127 460 1127 460 1102 460 c 256,128,129
 1077 460 1077 460 1059 441 c 0,130,131
 1047 427 1047 427 1047 395 c 0,132,133
 1047 367 1047 367 1062 348 c 1,134,135
 1080 330 1080 330 1102 330 c 256,136,137
 1124 330 1124 330 1141.5 349.5 c 128,-1,138
 1159 369 1159 369 1159 395 c 256,125,126
EndSplineSet
EndChar

StartChar: u0C0C
Encoding: 3084 3084 113
Width: 1537
Flags: W
LayerCount: 2
Fore
SplineSet
1411 344 m 1,0,1
 1411 32 1411 32 1287 -170 c 1,2,3
 1140 -412 1140 -412 860 -412 c 0,4,5
 629 -412 629 -412 512 -278 c 0,6,7
 420 -174 420 -174 420 -18 c 0,8,9
 420 110 420 110 529 213 c 1,10,-1
 663 320 l 1,11,-1
 790 408 l 1,12,13
 853 450 853 450 903 529 c 0,14,15
 922 559 922 559 922 610 c 0,16,17
 922 670 922 670 894 710 c 0,18,19
 861 759 861 759 794 759 c 0,20,21
 723 759 723 759 677 687 c 0,22,23
 670 676 670 676 630 577 c 1,24,-1
 541 577 l 1,25,-1
 488 686 l 1,26,27
 438 760 438 760 345 760 c 0,28,29
 305 760 305 760 278 746 c 128,-1,30
 251 732 251 732 251 709 c 0,31,32
 251 676 251 676 267 623 c 1,33,-1
 285 579 l 1,34,-1
 182 519 l 1,35,-1
 157 583 l 1,36,37
 131 665 131 665 131 709 c 0,38,39
 131 779 131 779 190 835.5 c 128,-1,40
 249 892 249 892 345 892 c 0,41,42
 434 892 434 892 499 845 c 0,43,44
 538 817 538 817 581 753 c 1,45,46
 611 810 611 810 655 846 c 0,47,48
 713 892 713 892 792 892 c 0,49,50
 923 892 923 892 988 793 c 1,51,52
 1042 714 1042 714 1042 604 c 0,53,54
 1042 553 1042 553 1028 517 c 0,55,56
 996 436 996 436 940 376 c 1,57,-1
 716 204 l 1,58,-1
 592 114 l 1,59,60
 536 61 536 61 536 -17 c 0,61,62
 536 -122 536 -122 606 -193 c 1,63,64
 690 -281 690 -281 856 -281 c 0,65,66
 1080 -281 1080 -281 1192 -81 c 1,67,68
 1287 85 1287 85 1287 344 c 0,69,70
 1287 514 1287 514 1243 648 c 0,71,72
 1185 827 1185 827 1073 827 c 1,73,-1
 1073 978 l 1,74,75
 1234 978 1234 978 1330 748 c 1,76,77
 1408 558 1408 558 1411 344 c 1,0,1
EndSplineSet
EndChar

StartChar: u0C0E
Encoding: 3086 3086 114
Width: 1192
Flags: W
LayerCount: 2
Fore
SplineSet
1230 639 m 0,0,1
 1230 501 1230 501 1214 396 c 0,2,3
 1186 221 1186 221 1119 128 c 1,4,5
 1030 1 1030 1 876 1 c 0,6,7
 694 1 694 1 617 119 c 1,8,-1
 533 341 l 2,9,10
 487 461 487 461 374 461 c 0,11,12
 318 461 318 461 278 411 c 1,13,14
 241 361 241 361 241 293 c 256,15,16
 241 225 241 225 283 177.5 c 128,-1,17
 325 130 325 130 386 130 c 0,18,19
 457 130 457 130 521 219 c 1,20,-1
 575 89 l 1,21,22
 535 49 535 49 485.5 25.5 c 128,-1,23
 436 2 436 2 386 2 c 0,24,25
 280 2 280 2 200.5 88 c 128,-1,26
 121 174 121 174 121 294 c 0,27,28
 121 420 121 420 194 507 c 128,-1,29
 267 594 267 594 374 594 c 0,30,31
 528 594 528 594 592 476 c 1,32,-1
 677 254 l 1,33,34
 735 134 735 134 875 134 c 0,35,36
 988 134 988 134 1048.5 262.5 c 128,-1,37
 1109 391 1109 391 1109 641 c 0,38,39
 1109 792 1109 792 1054 958 c 0,40,41
 983 1169 983 1169 846 1295 c 1,42,43
 674 1451 674 1451 427 1451 c 1,44,-1
 331 1447 l 1,45,46
 292 1443 292 1443 232 1431 c 1,47,-1
 213 1562 l 1,48,49
 329 1585 329 1585 435 1585 c 0,50,51
 724 1585 724 1585 922 1403 c 0,52,53
 1081 1256 1081 1256 1165 1012 c 1,54,55
 1230 818 1230 818 1230 639 c 0,0,1
EndSplineSet
EndChar

StartChar: u0C0F
Encoding: 3087 3087 115
Width: 1365
Flags: W
LayerCount: 2
Fore
SplineSet
684 1537 m 1,0,1
 591 1537 591 1537 526 1508 c 0,2,3
 441 1471 441 1471 401 1375 c 0,4,5
 386 1339 386 1339 375 1288 c 1,6,7
 370 1245 370 1245 369.5 1223.5 c 128,-1,8
 369 1202 369 1202 369 1190 c 0,9,10
 369 1162 369 1162 370 1134 c 128,-1,11
 371 1106 371 1106 375 1080 c 1,12,13
 375 1065 375 1065 389 1004 c 1,14,-1
 269 1004 l 1,15,-1
 254 1117 l 1,16,-1
 250 1203 l 1,17,18
 250 1235 250 1235 251 1264 c 128,-1,19
 252 1293 252 1293 256 1320 c 128,-1,20
 260 1347 260 1347 266 1371.5 c 128,-1,21
 272 1396 272 1396 286 1428 c 0,22,23
 342 1562 342 1562 463 1622 c 0,24,25
 555 1668 555 1668 685 1668 c 1,26,-1
 684 1537 l 1,0,1
1221 702 m 0,27,28
 1242 602 1242 602 1242 503 c 0,29,30
 1242 288 1242 288 1153 151 c 0,31,32
 1057 4 1057 4 891 4 c 0,33,34
 712 4 712 4 633 122 c 1,35,-1
 545 344 l 1,36,37
 496 464 496 464 384 464 c 0,38,39
 328 464 328 464 288 414 c 1,40,41
 251 364 251 364 251 296 c 0,42,43
 251 231 251 231 293 181 c 1,44,45
 336 134 336 134 397 134 c 0,46,47
 467 134 467 134 531 223 c 1,48,-1
 585 93 l 1,49,50
 545 53 545 53 495 28 c 0,51,52
 469 16 469 16 443.5 11.5 c 128,-1,53
 418 7 418 7 399 7 c 0,54,55
 290 7 290 7 211 93 c 128,-1,56
 132 179 132 179 132 299 c 0,57,58
 132 425 132 425 205.5 512 c 128,-1,59
 279 599 279 599 386 599 c 0,60,61
 540 599 540 599 607 481 c 1,62,63
 632 413 632 413 650.5 365.5 c 128,-1,64
 669 318 669 318 692 260 c 1,65,66
 750 140 750 140 891 140 c 0,67,68
 1008 140 1008 140 1068 239 c 0,69,70
 1122 330 1122 330 1122 481 c 0,71,72
 1122 577 1122 577 1101 680 c 0,73,74
 1055 916 1055 916 918 1065 c 1,75,76
 767 1233 767 1233 552 1233 c 1,77,-1
 544 1361 l 1,78,79
 801 1361 801 1361 988 1165 c 0,80,81
 1160 986 1160 986 1221 702 c 0,27,28
EndSplineSet
EndChar

StartChar: u0C10
Encoding: 3088 3088 116
Width: 1359
Flags: W
LayerCount: 2
Fore
SplineSet
1233 438 m 1,0,1
 1233 231 1233 231 1137 110 c 0,2,3
 1051 1 1051 1 924 1 c 0,4,5
 755 1 755 1 671 118 c 1,6,-1
 575 336 l 1,7,8
 525 453 525 453 425 453 c 0,9,10
 369 453 369 453 330 403.5 c 128,-1,11
 291 354 291 354 291 287 c 0,12,13
 291 222 291 222 333 174.5 c 128,-1,14
 375 127 375 127 436 127 c 0,15,16
 507 127 507 127 571 216 c 1,17,-1
 624 89 l 1,18,19
 584 49 584 49 534 24 c 0,20,21
 508 12 508 12 482.5 7.5 c 128,-1,22
 457 3 457 3 438 3 c 0,23,24
 333 3 333 3 253 87.5 c 128,-1,25
 173 172 173 172 173 289 c 0,26,27
 173 412 173 412 246 499 c 128,-1,28
 319 586 319 586 426 586 c 0,29,30
 578 586 578 586 643 469 c 1,31,-1
 727 250 l 1,32,33
 787 131 787 131 925 131 c 0,34,35
 1006 131 1006 131 1060.5 215.5 c 128,-1,36
 1115 300 1115 300 1115 440 c 0,37,38
 1115 619 1115 619 1053 726 c 128,-1,39
 991 833 991 833 884 833 c 0,40,41
 813 833 813 833 770 790 c 0,42,43
 744 764 744 764 714 694 c 1,44,-1
 616 694 l 1,45,46
 577 769 577 769 556 787 c 0,47,48
 506 833 506 833 408 833 c 0,49,50
 337 833 337 833 294 780 c 0,51,52
 257 734 257 734 257 677 c 0,53,54
 257 655 257 655 262 643 c 1,55,-1
 142 643 l 1,56,57
 138 658 138 658 138 683 c 0,58,59
 138 781 138 781 195 859 c 0,60,61
 270 962 270 962 408 962 c 0,62,63
 507 962 507 962 569 930 c 1,64,65
 615 908 615 908 658 854 c 1,66,67
 693 904 693 904 743 930 c 0,68,69
 803 962 803 962 884 962 c 0,70,71
 1036 962 1036 962 1136 822 c 128,-1,72
 1236 682 1236 682 1233 438 c 1,0,1
EndSplineSet
EndChar

StartChar: u0C12
Encoding: 3090 3090 117
Width: 1299
Flags: W
LayerCount: 2
Fore
SplineSet
1083 501 m 1,0,1
 1171 394 1171 394 1171 270 c 0,2,3
 1171 159 1171 159 1096.5 81 c 128,-1,4
 1022 3 1022 3 890 3 c 0,5,6
 783 3 783 3 715 42 c 0,7,8
 658 74 658 74 622 136 c 1,9,10
 578 76 578 76 510.5 39 c 128,-1,11
 443 2 443 2 355 2 c 0,12,13
 264 2 264 2 197.5 74.5 c 128,-1,14
 131 147 131 147 131 261 c 256,15,16
 131 375 131 375 206 453 c 1,17,18
 253 500 253 500 379 567 c 1,19,20
 465 607 465 607 491 629 c 0,21,22
 538 668 538 668 538 728 c 0,23,24
 538 775 538 775 502.5 801.5 c 128,-1,25
 467 828 467 828 404 828 c 0,26,27
 323 828 323 828 287 770 c 0,28,29
 278 754 278 754 270 712 c 1,30,-1
 150 712 l 1,31,32
 161 796 161 796 182 835 c 0,33,34
 214 896 214 896 268.5 926.5 c 128,-1,35
 323 957 323 957 405 957 c 0,36,37
 525 957 525 957 592 894 c 128,-1,38
 659 831 659 831 659 728 c 0,39,40
 659 623 659 623 596 556 c 0,41,42
 547 503 547 503 427 449 c 0,43,44
 355 416 355 416 308 373 c 0,45,46
 251 320 251 320 251 260 c 0,47,48
 251 207 251 207 280 168 c 128,-1,49
 309 129 309 129 353 129 c 0,50,51
 437 129 437 129 498 182 c 1,52,53
 551 226 551 226 576 308 c 1,54,-1
 683 308 l 1,55,56
 709 219 709 219 737 186 c 0,57,58
 786 129 786 129 889 129 c 0,59,60
 961 129 961 129 1002 173.5 c 128,-1,61
 1043 218 1043 218 1043 282 c 0,62,63
 1043 347 1043 347 995 408 c 1,64,-1
 1083 501 l 1,0,1
EndSplineSet
EndChar

StartChar: u0C13
Encoding: 3091 3091 118
Width: 1299
Flags: W
LayerCount: 2
Fore
SplineSet
1083 501 m 1,0,1
 1125 452 1125 452 1146 395 c 128,-1,2
 1167 338 1167 338 1167 281 c 0,3,4
 1167 165 1167 165 1095 87 c 0,5,6
 1017 2 1017 2 890 2 c 0,7,8
 783 2 783 2 715 41 c 0,9,10
 658 73 658 73 622 135 c 1,11,12
 578 75 578 75 510.5 38 c 128,-1,13
 443 1 443 1 355 1 c 0,14,15
 262 1 262 1 199 68 c 0,16,17
 132 139 132 139 132 260 c 0,18,19
 132 366 132 366 207 441 c 0,20,21
 254 488 254 488 380 553 c 1,22,23
 458 588 458 588 493 623 c 0,24,25
 540 670 540 670 540 730 c 0,26,27
 540 777 540 777 503 802 c 128,-1,28
 466 827 466 827 404 827 c 0,29,30
 323 827 323 827 288 766 c 1,31,32
 280 747 280 747 272 705 c 1,33,-1
 152 716 l 1,34,35
 157 777 157 777 172 813 c 0,36,37
 214 918 214 918 320 947 c 1,38,39
 316 956 316 956 306.5 986 c 128,-1,40
 297 1016 297 1016 293 1039.5 c 128,-1,41
 289 1063 289 1063 288.5 1080.5 c 128,-1,42
 288 1098 288 1098 288 1107 c 0,43,44
 288 1181 288 1181 321 1256 c 1,45,46
 346 1309 346 1309 389 1362 c 1,47,-1
 478 1267 l 1,48,49
 450 1239 450 1239 430 1195 c 128,-1,50
 410 1151 410 1151 410 1102 c 0,51,52
 410 1067 410 1067 418 1031 c 0,53,54
 422 1015 422 1015 429 997.5 c 128,-1,55
 436 980 436 980 448 957 c 1,56,57
 548 945 548 945 604 883 c 128,-1,58
 660 821 660 821 660 729 c 0,59,60
 660 623 660 623 596 549 c 0,61,62
 540 485 540 485 434 432.5 c 128,-1,63
 328 380 328 380 286 336 c 1,64,65
 251 297 251 297 251 258 c 0,66,67
 251 201 251 201 280 164 c 128,-1,68
 309 127 309 127 353 127 c 0,69,70
 432 127 432 127 491.5 178 c 128,-1,71
 551 229 551 229 576 307 c 1,72,-1
 683 307 l 1,73,74
 709 218 709 218 737 185 c 0,75,76
 786 128 786 128 889 128 c 0,77,78
 961 128 961 128 1002 172.5 c 128,-1,79
 1043 217 1043 217 1043 282 c 0,80,81
 1043 349 1043 349 995 407 c 1,82,-1
 1083 501 l 1,0,1
EndSplineSet
EndChar

StartChar: u0C14
Encoding: 3092 3092 119
Width: 1299
Flags: W
LayerCount: 2
Fore
SplineSet
1239 1009 m 0,0,1
 1239 928 1239 928 1184 866.5 c 128,-1,2
 1129 805 1129 805 1054 805 c 256,3,4
 979 805 979 805 923 866.5 c 128,-1,5
 867 928 867 928 867 1009 c 0,6,7
 867 1035 867 1035 869 1046 c 1,8,-1
 881 1085 l 1,9,-1
 671 1085 l 1,10,11
 682 1059 682 1059 682 1023 c 0,12,13
 682 976 682 976 665.5 940 c 128,-1,14
 649 904 649 904 617 879 c 1,15,16
 657 826 657 826 657 741 c 0,17,18
 657 625 657 625 593 553 c 0,19,20
 546 500 546 500 433 443.5 c 128,-1,21
 320 387 320 387 308 378 c 0,22,23
 250 336 250 336 250 268 c 0,24,25
 250 215 250 215 279 176 c 128,-1,26
 308 137 308 137 352 137 c 0,27,28
 430 137 430 137 491.5 190 c 128,-1,29
 553 243 553 243 575 320 c 1,30,-1
 682 320 l 1,31,32
 708 231 708 231 736 196 c 1,33,34
 785 138 785 138 888 138 c 0,35,36
 959 138 959 138 1000.5 184 c 128,-1,37
 1042 230 1042 230 1042 297 c 256,38,39
 1042 364 1042 364 996 418 c 1,40,-1
 1075 515 l 1,41,42
 1117 469 1117 469 1139 412 c 0,43,44
 1150 382 1150 382 1155.5 355 c 128,-1,45
 1161 328 1161 328 1161 296 c 0,46,47
 1161 178 1161 178 1087 93 c 128,-1,48
 1013 8 1013 8 886 8 c 0,49,50
 777 8 777 8 710 48 c 0,51,52
 653 81 653 81 617 146 c 1,53,54
 573 85 573 85 505.5 46 c 128,-1,55
 438 7 438 7 350 7 c 0,56,57
 258 7 258 7 192.5 81 c 128,-1,58
 127 155 127 155 127 269 c 0,59,60
 127 431 127 431 240 496 c 1,61,-1
 375 560 l 2,62,63
 449 596 449 596 485 633 c 0,64,65
 529 680 529 680 529 741 c 0,66,67
 529 787 529 787 495 812.5 c 128,-1,68
 461 838 461 838 399 838 c 0,69,70
 328 838 328 838 288 777 c 0,71,72
 277 761 277 761 265 717 c 1,73,-1
 148 717 l 1,74,-1
 152 756 l 1,75,76
 161 803 161 803 179 839 c 1,77,-1
 150 839 l 1,78,-1
 150 967 l 1,79,-1
 512 967 l 2,80,81
 531 967 531 967 546 980 c 128,-1,82
 561 993 561 993 561 1023 c 0,83,84
 561 1046 561 1046 545 1063 c 128,-1,85
 529 1080 529 1080 511 1084 c 1,86,-1
 153 1084 l 1,87,-1
 153 1212 l 1,88,-1
 1053 1212 l 2,89,90
 1127 1212 1127 1212 1183 1151.5 c 128,-1,91
 1239 1091 1239 1091 1239 1009 c 0,0,1
1119 1008 m 0,92,93
 1119 1042 1119 1042 1100 1061 c 1,94,95
 1082 1083 1082 1083 1054 1083 c 0,96,97
 1028 1083 1028 1083 1007 1061 c 1,98,99
 989 1039 989 1039 989 1007 c 0,100,101
 989 977 989 977 1006.5 955.5 c 128,-1,102
 1024 934 1024 934 1054 934 c 0,103,104
 1079 934 1079 934 1099 955.5 c 128,-1,105
 1119 977 1119 977 1119 1008 c 0,92,93
EndSplineSet
EndChar

StartChar: u0C15.base
Encoding: 65539 -1 121
Width: 1233
Flags: W
LayerCount: 2
Fore
SplineSet
1107 317 m 0,0,1
 1107 141 1107 141 945 60 c 1,2,3
 821 0 821 0 614 0 c 0,4,5
 391 0 391 0 250 138 c 1,6,7
 129 258 129 258 129 409 c 1,8,-1
 249 409 l 1,9,10
 249 304 249 304 348 218 c 0,11,12
 455 126 455 126 614 126 c 0,13,14
 765 126 765 126 860 161 c 0,15,16
 987 207 987 207 987 317 c 0,17,18
 987 426 987 426 874 459 c 1,19,20
 806 477 806 477 630 477 c 2,21,-1
 591 477 l 1,22,-1
 561 477 l 1,23,-1
 536 477 l 1,24,-1
 517 477 l 1,25,-1
 501 477 l 2,26,27
 441 477 441 477 419 482 c 1,28,29
 313 494 313 494 262 537 c 0,30,31
 201 590 201 590 201 704 c 0,32,33
 201 816 201 816 269 874 c 1,34,35
 367 955 367 955 610 955 c 0,36,37
 825 955 825 955 928 862 c 1,38,39
 1005 794 1005 794 1005 702 c 1,40,-1
 885 702 l 1,41,42
 885 746 885 746 825 783 c 1,43,44
 750 826 750 826 610 826 c 0,45,46
 445 826 445 826 375 787 c 0,47,48
 321 758 321 758 321 704 c 0,49,50
 321 643 321 643 367 618 c 1,51,52
 403 600 403 600 482 600 c 2,53,-1
 568 601 l 1,54,-1
 593 601 l 2,55,56
 602 601 602 601 611 601 c 1,57,58
 625 603 625 603 630 603 c 0,59,60
 789 603 789 603 864 588 c 0,61,62
 976 567 976 567 1039 507 c 1,63,64
 1107 439 1107 439 1107 317 c 0,0,1
EndSplineSet
AnchorPoint: "BLW" 203 0 basechar 0
AnchorPoint: "BR" 368 188 basechar 0
AnchorPoint: "V" 200 446 basechar 0
Ligature2: "'blws' Below Base Substitutions in Telugu lookup 3 subtable" u0C15.base u0C30.sub
MultipleSubs2: "Multiple Substitution lookup 13 subtable" u0C30.sub.alt u0C15.base
LCarets2: 1 0 
GlyphClass: 2

EndChar

StartChar: u0C15.sub
Encoding: 65540 -1 122
Width: 1124
Flags: W
LayerCount: 2
Fore
SplineSet
1100 -14 m 1,0,-1
 668 -14 l 1,1,2
 697 -81 697 -81 714.5 -165 c 128,-1,3
 732 -249 732 -249 732 -320 c 0,4,5
 732 -488 732 -488 653 -588 c 0,6,7
 558 -707 558 -707 365 -707 c 0,8,9
 220 -707 220 -707 109 -602 c 1,10,11
 48 -542 48 -542 17.5 -464.5 c 128,-1,12
 -13 -387 -13 -387 -13 -287 c 0,13,14
 -13 -118 -13 -118 45 8 c 0,15,16
 63 47 63 47 97 97 c 128,-1,17
 131 147 131 147 185 214 c 1,18,19
 281 327 281 327 296 350 c 0,20,21
 342 425 342 425 342 541 c 0,22,23
 342 704 342 704 261 775 c 1,24,25
 205 822 205 822 122 822 c 1,26,-1
 94 821 l 1,27,-1
 79 819 l 1,28,-1
 79 950 l 1,29,-1
 97 952 l 1,30,-1
 147 956 l 1,31,32
 268 956 268 956 345 888 c 0,33,34
 462 785 462 785 462 540 c 0,35,36
 462 367 462 367 384 255 c 1,37,-1
 277 122 l 1,38,39
 194 22 194 22 158 -45 c 1,40,41
 107 -151 107 -151 107 -289 c 0,42,43
 107 -422 107 -422 191 -505 c 1,44,45
 267 -577 267 -577 366 -577 c 0,46,47
 494 -577 494 -577 555 -495 c 0,48,49
 608 -425 608 -425 608 -306 c 0,50,51
 608 -255 608 -255 602.5 -216 c 128,-1,52
 597 -177 597 -177 581 -127 c 0,53,54
 553 -38 553 -38 513 11 c 1,55,-1
 549 117 l 1,56,-1
 1101 117 l 1,57,-1
 1100 -14 l 1,0,-1
EndSplineSet
AnchorPoint: "BR" 0 188 mark 0
Ligature2: "'blwf' Below Base Form (sub)" u0C15 u0C4D
LCarets2: 1 0 

EndChar

StartChar: u0C15_u0C4D_u0C37.base
Encoding: 65542 -1 124
Width: 1233
Flags: W
LayerCount: 2
Fore
SplineSet
1107 309 m 1,0,1
 1107 133 1107 133 945 51 c 1,2,3
 820 -10 820 -10 615 -10 c 0,4,5
 389 -10 389 -10 251 129 c 0,6,7
 130 250 130 250 130 403 c 1,8,-1
 250 403 l 1,9,10
 250 297 250 297 349 212 c 1,11,12
 458 120 458 120 616 120 c 0,13,14
 823 120 823 120 914 175 c 0,15,16
 989 221 989 221 989 307 c 0,17,18
 989 416 989 416 876 452 c 1,19,20
 808 470 808 470 632 470 c 2,21,-1
 593 470 l 1,22,-1
 563 470 l 1,23,-1
 538 470 l 1,24,-1
 519 470 l 1,25,-1
 503 470 l 2,26,27
 443 470 443 470 421 475 c 1,28,29
 316 487 316 487 263 531 c 1,30,31
 202 585 202 585 202 699 c 0,32,33
 202 812 202 812 270 870 c 0,34,35
 317 910 317 910 402 931 c 128,-1,36
 487 952 487 952 610 952 c 0,37,38
 825 952 825 952 928 857 c 0,39,40
 1005 787 1005 787 1005 695 c 1,41,-1
 885 695 l 1,42,43
 885 739 885 739 825 776 c 1,44,45
 750 819 750 819 610 819 c 0,46,47
 447 819 447 819 376 782 c 0,48,49
 322 753 322 753 322 697 c 0,50,51
 322 636 322 636 365 611 c 1,52,53
 400 592 400 592 474 592 c 1,54,-1
 563 594 l 1,55,-1
 634 596 l 1,56,57
 782 596 782 596 868 580 c 0,58,59
 984 558 984 558 1042 500 c 1,60,61
 1110 429 1110 429 1107 309 c 1,0,1
1132 -468 m 1,62,63
 1043 -468 1043 -468 994 -442.5 c 128,-1,64
 945 -417 945 -417 912 -352 c 1,65,66
 884 -367 884 -367 848 -378 c 1,67,68
 830 -382 830 -382 812 -384.5 c 128,-1,69
 794 -387 794 -387 771 -387 c 0,70,71
 713 -387 713 -387 667 -365.5 c 128,-1,72
 621 -344 621 -344 589 -308 c 1,73,74
 560 -341 560 -341 508.5 -364 c 128,-1,75
 457 -387 457 -387 383 -387 c 0,76,77
 231 -387 231 -387 168 -262 c 1,78,79
 132 -185 132 -185 132 -71 c 1,80,-1
 252 -71 l 1,81,82
 252 -153 252 -153 267 -192 c 0,83,84
 296 -270 296 -270 382 -270 c 0,85,86
 466 -270 466 -270 501 -209 c 1,87,88
 509 -190 509 -190 517 -148 c 1,89,-1
 634 -134 l 1,90,91
 646 -180 646 -180 660 -202 c 0,92,93
 700 -270 700 -270 770 -270 c 0,94,95
 870 -270 870 -270 899 -177 c 0,96,97
 910 -140 910 -140 910 -101 c 2,98,-1
 910 -86 l 1,99,-1
 909 -81 l 1,100,-1
 1029 -68 l 1,101,-1
 1030 -94 l 2,102,103
 1030 -119 1030 -119 1030 -144 c 1,104,105
 1026 -165 1026 -165 1024 -180 c 128,-1,106
 1022 -195 1022 -195 1017.5 -211 c 128,-1,107
 1013 -227 1013 -227 1002 -249 c 1,108,109
 1014 -303 1014 -303 1042 -327.5 c 128,-1,110
 1070 -352 1070 -352 1133 -352 c 1,111,-1
 1132 -468 l 1,62,63
EndSplineSet
AnchorPoint: "BR" 365 188 basechar 0
AnchorPoint: "V" 196 446 basechar 0
Ligature2: "'blws' Below Base Substitutions in Telugu lookup 3 subtable" u0C15_u0C4D_u0C37.base u0C30.sub
MultipleSubs2: "Multiple Substitution lookup 13 subtable" u0C30.sub.alt u0C15_u0C4D_u0C37.base
LCarets2: 1 0 
GlyphClass: 2

EndChar

StartChar: u0C16
Encoding: 3094 3094 125
Width: 1433
Flags: W
LayerCount: 2
Fore
SplineSet
1307 432 m 0,0,1
 1307 241 1307 241 1226.5 116.5 c 128,-1,2
 1146 -8 1146 -8 1001 -8 c 0,3,4
 912 -8 912 -8 831 40 c 0,5,6
 764 79 764 79 707 151 c 1,7,8
 653 76 653 76 580.5 33.5 c 128,-1,9
 508 -9 508 -9 413 -9 c 0,10,11
 293 -9 293 -9 207 66 c 1,12,13
 130 136 130 136 130 228 c 0,14,15
 130 317 130 317 199 384 c 128,-1,16
 268 451 268 451 384 451 c 0,17,18
 475 451 475 451 553 418 c 0,19,20
 614 393 614 393 672 340 c 1,21,22
 679 358 679 358 681.5 368.5 c 128,-1,23
 684 379 684 379 691 415 c 1,24,-1
 698 493 l 1,25,26
 698 593 698 593 660.5 661.5 c 128,-1,27
 623 730 623 730 538 762 c 1,28,29
 546 730 546 730 546 702 c 0,30,31
 546 621 546 621 494.5 567.5 c 128,-1,32
 443 514 443 514 369 514 c 0,33,34
 298 514 298 514 246.5 567.5 c 128,-1,35
 195 621 195 621 195 702 c 0,36,37
 195 802 195 802 260.5 854.5 c 128,-1,38
 326 907 326 907 438 907 c 0,39,40
 621 907 621 907 726 786 c 1,41,42
 772 730 772 730 795.5 656.5 c 128,-1,43
 819 583 819 583 819 493 c 0,44,45
 819 372 819 372 768 256 c 1,46,47
 840 184 840 184 869 163 c 1,48,49
 934 120 934 120 1001 120 c 0,50,51
 1092 120 1092 120 1139.5 206 c 128,-1,52
 1187 292 1187 292 1187 432 c 0,53,54
 1187 606 1187 606 1127 708 c 0,55,56
 1060 821 1060 821 933 821 c 1,57,-1
 924 949 l 1,58,59
 1086 949 1086 949 1184 829 c 0,60,61
 1255 741 1255 741 1288 594 c 1,62,63
 1307 503 1307 503 1307 432 c 0,0,1
424 703 m 0,64,65
 424 728 424 728 407.5 748 c 128,-1,66
 391 768 391 768 368 768 c 256,67,68
 345 768 345 768 330 748.5 c 128,-1,69
 315 729 315 729 315 703 c 0,70,71
 315 678 315 678 330 660.5 c 128,-1,72
 345 643 345 643 368 643 c 0,73,74
 390 643 390 643 407.5 660.5 c 128,-1,75
 425 678 425 678 424 703 c 0,64,65
616 233 m 1,76,77
 567 276 567 276 517 295 c 1,78,79
 456 320 456 320 382 320 c 0,80,81
 322 320 322 320 285 294.5 c 128,-1,82
 248 269 248 269 248 228 c 0,83,84
 248 184 248 184 294 151 c 1,85,86
 343 121 343 121 411 121 c 0,87,88
 475 121 475 121 525 150 c 128,-1,89
 575 179 575 179 616 233 c 1,76,77
785 -266 m 1,90,-1
 602 -266 l 1,91,-1
 651 -3 l 1,92,-1
 736 -3 l 1,93,-1
 785 -266 l 1,90,-1
EndSplineSet
AnchorPoint: "BR" 578 188 basechar 0
AnchorPoint: "BLW" 298 0 basechar 0
Ligature2: "'blws' Below Base Substitutions in Telugu lookup 3 subtable" u0C16 u0C30.sub
AlternateSubs2: "Alternate Substitution lookup 14 subtable" u0C16.base
MultipleSubs2: "Multiple Substitution lookup 13 subtable" u0C30.sub.alt u0C16

EndChar

StartChar: u0C16.base
Encoding: 65543 -1 126
Width: 1433
Flags: W
LayerCount: 2
Fore
SplineSet
1307 443 m 0,0,1
 1307 259 1307 259 1218 118 c 0,2,3
 1139 -8 1139 -8 1002 -8 c 0,4,5
 918 -8 918 -8 840 42 c 0,6,7
 796 70 796 70 714 155 c 1,8,9
 661 83 661 83 584 36 c 1,10,11
 506 -7 506 -7 414 -7 c 0,12,13
 294 -7 294 -7 208 68 c 1,14,15
 131 138 131 138 131 230 c 256,16,17
 131 322 131 322 198 385 c 0,18,19
 270 453 270 453 384 453 c 0,20,21
 475 453 475 453 553 420 c 0,22,23
 614 395 614 395 672 342 c 1,24,25
 679 360 679 360 681.5 370.5 c 128,-1,26
 684 381 684 381 691 417 c 1,27,-1
 698 495 l 1,28,29
 698 595 698 595 660.5 663.5 c 128,-1,30
 623 732 623 732 538 764 c 1,31,32
 546 732 546 732 546 704 c 0,33,34
 546 623 546 623 494.5 569.5 c 128,-1,35
 443 516 443 516 369 516 c 0,36,37
 298 516 298 516 246.5 569.5 c 128,-1,38
 195 623 195 623 195 704 c 0,39,40
 195 806 195 806 260.5 857.5 c 128,-1,41
 326 909 326 909 438 909 c 0,42,43
 621 909 621 909 726 788 c 1,44,45
 772 732 772 732 795.5 658.5 c 128,-1,46
 819 585 819 585 819 495 c 0,47,48
 819 368 819 368 770 261 c 1,49,50
 842 189 842 189 870 168 c 1,51,52
 933 125 933 125 1001 125 c 0,53,54
 1087 125 1087 125 1136.5 213.5 c 128,-1,55
 1186 302 1186 302 1186 444 c 0,56,57
 1186 593 1186 593 1115 698 c 1,58,59
 1024 828 1024 828 840 828 c 1,60,-1
 840 959 l 1,61,62
 1086 959 1086 959 1209 789 c 1,63,64
 1307 651 1307 651 1307 443 c 0,0,1
424 705 m 0,65,66
 424 730 424 730 407.5 750 c 128,-1,67
 391 770 391 770 368 770 c 256,68,69
 345 770 345 770 330 750.5 c 128,-1,70
 315 731 315 731 315 705 c 0,71,72
 315 680 315 680 330 662.5 c 128,-1,73
 345 645 345 645 368 645 c 0,74,75
 390 645 390 645 407.5 662.5 c 128,-1,76
 425 680 425 680 424 705 c 0,65,66
616 235 m 1,77,78
 567 278 567 278 517 297 c 1,79,80
 456 322 456 322 382 322 c 0,81,82
 322 322 322 322 285 296.5 c 128,-1,83
 248 271 248 271 248 230 c 0,84,85
 248 186 248 186 294 154 c 1,86,87
 340 125 340 125 411 125 c 0,88,89
 474 125 474 125 525.5 154 c 128,-1,90
 577 183 577 183 616 235 c 1,77,78
785 -265 m 1,91,-1
 602 -265 l 1,92,-1
 651 -2 l 1,93,-1
 736 -2 l 1,94,-1
 785 -265 l 1,91,-1
EndSplineSet
AnchorPoint: "BLW" 306 0 basechar 0
AnchorPoint: "BR" 580 188 basechar 0
AnchorPoint: "V" 391 457.5 basechar 0
Ligature2: "'blws' Below Base Substitutions in Telugu lookup 3 subtable" u0C16.base u0C30.sub
MultipleSubs2: "Multiple Substitution lookup 13 subtable" u0C30.sub.alt u0C16.base
LCarets2: 1 0 
GlyphClass: 2

EndChar

StartChar: u0C16.sub
Encoding: 65544 -1 127
Width: 28
Flags: W
LayerCount: 2
Fore
SplineSet
-212 -681 m 1,0,1
 -212 -815 -212 -815 -270.5 -904.5 c 128,-1,2
 -329 -994 -329 -994 -436 -994 c 0,3,4
 -497 -994 -497 -994 -540 -966 c 0,5,6
 -569 -948 -569 -948 -615 -899 c 1,7,8
 -637 -921 -637 -921 -660.5 -939 c 128,-1,9
 -684 -957 -684 -957 -709 -969 c 0,10,11
 -759 -995 -759 -995 -817 -995 c 0,12,13
 -903 -995 -903 -995 -961 -941.5 c 128,-1,14
 -1019 -888 -1019 -888 -1019 -821 c 256,15,16
 -1019 -754 -1019 -754 -969.5 -706 c 128,-1,17
 -920 -658 -920 -658 -836 -658 c 0,18,19
 -779 -658 -779 -658 -731 -674.5 c 128,-1,20
 -683 -691 -683 -691 -637 -728 c 1,21,-1
 -630 -685 l 1,22,-1
 -626 -645 l 1,23,-1
 -625 -623 l 1,24,25
 -625 -573 -625 -573 -647 -530.5 c 128,-1,26
 -669 -488 -669 -488 -716 -459 c 1,27,-1
 -714 -468 l 1,28,-1
 -714 -480 l 2,29,30
 -714 -538 -714 -538 -752.5 -578.5 c 128,-1,31
 -791 -619 -791 -619 -845 -619 c 256,32,33
 -899 -619 -899 -619 -936 -580 c 128,-1,34
 -973 -541 -973 -541 -973 -480 c 0,35,36
 -973 -415 -973 -415 -927 -371 c 1,37,38
 -883 -331 -883 -331 -797 -331 c 0,39,40
 -664 -331 -664 -331 -590 -426 c 0,41,42
 -523 -512 -523 -512 -523 -645 c 0,43,44
 -523 -733 -523 -733 -553 -808 c 1,45,46
 -521 -844 -521 -844 -501 -858 c 128,-1,47
 -481 -872 -481 -872 -467 -876.5 c 128,-1,48
 -453 -881 -453 -881 -434 -881 c 0,49,50
 -376 -881 -376 -881 -341 -825 c 1,51,52
 -326 -799 -326 -799 -318 -763 c 128,-1,53
 -310 -727 -310 -727 -310 -681 c 0,54,55
 -310 -585 -310 -585 -364.5 -509 c 128,-1,56
 -419 -433 -419 -433 -504 -433 c 1,57,-1
 -513 -324 l 1,58,59
 -386 -324 -386 -324 -307 -416 c 0,60,61
 -254 -477 -254 -477 -226 -587 c 1,62,-1
 -212 -681 l 1,0,1
-553 -1180 m 1,63,-1
 -679 -1180 l 1,64,-1
 -646 -965 l 1,65,-1
 -589 -965 l 1,66,-1
 -553 -1180 l 1,63,-1
-818 -481 m 0,67,68
 -818 -446 -818 -446 -848 -446 c 0,69,70
 -862 -446 -862 -446 -869.5 -457 c 128,-1,71
 -877 -468 -877 -468 -877 -480 c 0,72,73
 -877 -491 -877 -491 -870 -500 c 128,-1,74
 -863 -509 -863 -509 -848 -511 c 1,75,76
 -818 -511 -818 -511 -818 -481 c 0,67,68
-687 -820 m 1,77,78
 -716 -794 -716 -794 -753 -779 c 1,79,80
 -789 -767 -789 -767 -839 -767 c 0,81,82
 -876 -767 -876 -767 -899 -781.5 c 128,-1,83
 -922 -796 -922 -796 -922 -821 c 0,84,85
 -922 -849 -922 -849 -891.5 -867.5 c 128,-1,86
 -861 -886 -861 -886 -819 -886 c 0,87,88
 -783 -886 -783 -886 -747 -870 c 1,89,90
 -717 -854 -717 -854 -687 -820 c 1,77,78
EndSplineSet
AnchorPoint: "BLW" -312 0 mark 0
Ligature2: "'blwf' Below Base Form (sub)" u0C16 u0C4D
LCarets2: 1 0 

EndChar

StartChar: u0C16_u0C3F
Encoding: 65545 -1 128
Width: 1218
Flags: W
LayerCount: 2
Fore
SplineSet
1293 550 m 1,0,1
 1293 419 1293 419 1277 319 c 1,2,3
 1252 174 1252 174 1196 96 c 0,4,5
 1125 -3 1125 -3 1000 -3 c 0,6,7
 918 -3 918 -3 840 47 c 0,8,9
 791 79 791 79 717 160 c 1,10,11
 668 86 668 86 587 41.5 c 128,-1,12
 506 -3 506 -3 414 -3 c 0,13,14
 290 -3 290 -3 210.5 67.5 c 128,-1,15
 131 138 131 138 131 229 c 0,16,17
 131 319 131 319 198 384 c 0,18,19
 270 454 270 454 384 454 c 0,20,21
 483 454 483 454 554 426 c 1,22,23
 617 404 617 404 675 351 c 1,24,25
 686 386 686 386 692 427.5 c 128,-1,26
 698 469 698 469 698 501 c 0,27,28
 698 603 698 603 659.5 672 c 128,-1,29
 621 741 621 741 537 770 c 1,30,31
 545 745 545 745 545 713 c 0,32,33
 545 634 545 634 493.5 578 c 128,-1,34
 442 522 442 522 368 522 c 0,35,36
 298 522 298 522 246 577 c 128,-1,37
 194 632 194 632 194 713 c 0,38,39
 194 813 194 813 259 865.5 c 128,-1,40
 324 918 324 918 437 918 c 0,41,42
 621 918 621 918 724 797 c 1,43,44
 817 683 817 683 817 502 c 0,45,46
 817 438 817 438 805.5 376 c 128,-1,47
 794 314 794 314 769 260 c 1,48,49
 843 182 843 182 894 155.5 c 128,-1,50
 945 129 945 129 998 129 c 0,51,52
 1111 129 1111 129 1151 284 c 0,53,54
 1172 368 1172 368 1172 547 c 0,55,56
 1172 800 1172 800 1040 1032 c 0,57,58
 885 1303 885 1303 643 1325 c 1,59,60
 664 1296 664 1296 676.5 1258.5 c 128,-1,61
 689 1221 689 1221 689 1181 c 0,62,63
 689 1089 689 1089 627.5 1019.5 c 128,-1,64
 566 950 566 950 483 950 c 0,65,66
 402 950 402 950 338.5 1019.5 c 128,-1,67
 275 1089 275 1089 275 1181 c 0,68,69
 275 1311 275 1311 361 1385 c 1,70,71
 405 1421 405 1421 463 1439 c 128,-1,72
 521 1457 521 1457 602 1457 c 0,73,74
 821 1457 821 1457 987 1303 c 0,75,76
 1129 1170 1129 1170 1215 946 c 1,77,78
 1290 746 1290 746 1293 550 c 1,0,1
558 1185 m 0,79,80
 558 1229 558 1229 536 1259.5 c 128,-1,81
 514 1290 514 1290 477 1290 c 256,82,83
 440 1290 440 1290 419 1260 c 128,-1,84
 398 1230 398 1230 398 1184 c 0,85,86
 398 1137 398 1137 419 1104 c 1,87,88
 441 1074 441 1074 477 1074 c 0,89,90
 514 1074 514 1074 536 1106.5 c 128,-1,91
 558 1139 558 1139 558 1185 c 0,79,80
421 715 m 0,92,93
 421 740 421 740 405 758.5 c 128,-1,94
 389 777 389 777 364 777 c 0,95,96
 342 777 342 777 326 759 c 128,-1,97
 310 741 310 741 310 715 c 0,98,99
 310 690 310 690 325 671.5 c 128,-1,100
 340 653 340 653 363 653 c 0,101,102
 385 653 385 653 402.5 670.5 c 128,-1,103
 420 688 420 688 421 715 c 0,92,93
617 240 m 1,104,105
 574 277 574 277 514 299 c 128,-1,106
 454 321 454 321 377 321 c 0,107,108
 319 321 319 321 281.5 295.5 c 128,-1,109
 244 270 244 270 244 229 c 0,110,111
 244 183 244 183 288 155 c 1,112,113
 337 129 337 129 407 129 c 0,114,115
 475 129 475 129 526 157 c 128,-1,116
 577 185 577 185 617 240 c 1,104,105
781 -263 m 1,117,-1
 598 -263 l 1,118,-1
 647 0 l 1,119,-1
 732 0 l 1,120,-1
 781 -263 l 1,117,-1
EndSplineSet
AnchorPoint: "BLW" 296 0 basechar 0
AnchorPoint: "BR" 576 188 basechar 0
Ligature2: "'psts' Post Base Sub 0C3F short i" u0C16.base u0C3F
LCarets2: 1 0 
GlyphClass: 2

EndChar

StartChar: u0C17.base
Encoding: 65546 -1 130
Width: 1192
Flags: W
LayerCount: 2
Fore
SplineSet
1066 481 m 1,0,1
 1066 320 1066 320 1036 209.5 c 128,-1,2
 1006 99 1006 99 920 -28 c 1,3,-1
 829 51 l 1,4,5
 892 148 892 148 920 250 c 1,6,7
 932 299 932 299 939 356 c 128,-1,8
 946 413 946 413 946 478 c 0,9,10
 946 629 946 629 834 732 c 1,11,12
 781 779 781 779 722.5 802.5 c 128,-1,13
 664 826 664 826 594 826 c 0,14,15
 456 826 456 826 356 731 c 1,16,17
 249 631 249 631 249 478 c 0,18,19
 249 343 249 343 272 254.5 c 128,-1,20
 295 166 295 166 369 50 c 1,21,-1
 276 -29 l 1,22,23
 190 105 190 105 157 229 c 1,24,25
 145 279 145 279 138 341 c 128,-1,26
 131 403 131 403 131 478 c 0,27,28
 131 687 131 687 275 825 c 1,29,30
 409 955 409 955 597 955 c 0,31,32
 783 955 783 955 920 827 c 0,33,34
 1069 689 1069 689 1066 481 c 1,0,1
EndSplineSet
AnchorPoint: "BLW" 224 0 basechar 0
AnchorPoint: "BR" 426 188 basechar 0
AnchorPoint: "TR" 364 384 basechar 0
AnchorPoint: "V" 230 458 basechar 0
Ligature2: "'blws' Below Base Substitutions in Telugu lookup 3 subtable" u0C17.base u0C30.sub
MultipleSubs2: "Multiple Substitution lookup 13 subtable" u0C30.sub.alt u0C17.base
LCarets2: 1 0 
GlyphClass: 2

EndChar

StartChar: u0C17.sub
Encoding: 65547 -1 131
Width: 28
Flags: W
LayerCount: 2
Fore
SplineSet
-212 -681 m 1,0,1
 -212 -816 -212 -816 -265 -949 c 1,2,3
 -280 -991 -280 -991 -319 -1059 c 1,4,-1
 -414 -994 l 1,5,6
 -400 -968 -400 -968 -391 -945 c 0,7,8
 -387 -936 -387 -936 -375 -904 c 0,9,10
 -333 -788 -333 -788 -333 -683 c 0,11,12
 -333 -577 -333 -577 -396 -512 c 0,13,14
 -453 -454 -453 -454 -538 -454 c 0,15,16
 -617 -454 -617 -454 -680 -515.5 c 128,-1,17
 -743 -577 -743 -577 -743 -684 c 0,18,19
 -743 -793 -743 -793 -704 -904 c 1,20,21
 -696 -930 -696 -930 -689 -946 c 128,-1,22
 -682 -962 -682 -962 -664 -995 c 1,23,-1
 -759 -1060 l 1,24,25
 -789 -1003 -789 -1003 -810 -952 c 1,26,27
 -863 -813 -863 -813 -863 -683 c 0,28,29
 -863 -518 -863 -518 -763 -418 c 1,30,31
 -671 -329 -671 -329 -538 -329 c 0,32,33
 -407 -329 -407 -329 -314 -418 c 0,34,35
 -214 -514 -214 -514 -212 -681 c 1,0,1
EndSplineSet
AnchorPoint: "BLW" -364 0 mark 0
Ligature2: "'blwf' Below Base Form (sub)" u0C17 u0C4D
LCarets2: 1 0 

EndChar

StartChar: u0C18.sub
Encoding: 65549 -1 134
Width: 28
Flags: W
LayerCount: 2
Fore
SplineSet
-212 -653 m 0,0,1
 -212 -766 -212 -766 -262 -854 c 1,2,3
 -325 -961 -325 -961 -442 -961 c 0,4,5
 -499 -961 -499 -961 -546.5 -940 c 128,-1,6
 -594 -919 -594 -919 -629 -884 c 1,7,8
 -658 -924 -658 -924 -704.5 -942 c 128,-1,9
 -751 -960 -751 -960 -795 -960 c 0,10,11
 -922 -960 -922 -960 -968.5 -812.5 c 128,-1,12
 -1015 -665 -1015 -665 -1083 -665 c 0,13,14
 -1118 -665 -1118 -665 -1141 -690 c 0,15,16
 -1148 -698 -1148 -698 -1153 -709 c 0,17,18
 -1162 -728 -1162 -728 -1162 -753 c 0,19,20
 -1162 -790 -1162 -790 -1139 -818 c 1,21,22
 -1118 -846 -1118 -846 -1082 -846 c 0,23,24
 -1066 -846 -1066 -846 -1052 -839 c 1,25,26
 -1040 -835 -1040 -835 -1015 -810 c 1,27,-1
 -972 -912 l 1,28,29
 -1030 -958 -1030 -958 -1083 -958 c 0,30,31
 -1157 -958 -1157 -958 -1210 -896.5 c 128,-1,32
 -1263 -835 -1263 -835 -1263 -753 c 0,33,34
 -1263 -667 -1263 -667 -1211.5 -611 c 128,-1,35
 -1160 -555 -1160 -555 -1083 -555 c 0,36,37
 -962 -555 -962 -555 -898 -753 c 1,38,39
 -869 -846 -869 -846 -795 -846 c 0,40,41
 -724 -846 -724 -846 -682 -774 c 1,42,43
 -650 -717 -650 -717 -650 -653 c 0,44,45
 -650 -582 -650 -582 -692 -511 c 1,46,47
 -746 -416 -746 -416 -838 -416 c 1,48,-1
 -838 -307 l 1,49,50
 -686 -307 -686 -307 -607 -442 c 0,51,52
 -550 -539 -550 -539 -550 -652 c 1,53,-1
 -554 -713 l 1,54,55
 -558 -741 -558 -741 -570 -777 c 1,56,57
 -562 -799 -562 -799 -532 -821 c 1,58,59
 -492 -847 -492 -847 -442 -847 c 0,60,61
 -374 -847 -374 -847 -338 -776 c 1,62,63
 -312 -719 -312 -719 -312 -648 c 0,64,65
 -312 -567 -312 -567 -347 -506 c 0,66,67
 -396 -420 -396 -420 -498 -420 c 1,68,-1
 -498 -311 l 1,69,70
 -347 -311 -347 -311 -270 -434 c 1,71,72
 -213 -527 -213 -527 -212 -653 c 0,0,1
-892 -1165 m 1,73,-1
 -1018 -1165 l 1,74,-1
 -983 -950 l 1,75,-1
 -927 -950 l 1,76,-1
 -892 -1165 l 1,73,-1
EndSplineSet
AnchorPoint: "BLW" -372 0 mark 0
Ligature2: "'blwf' Below Base Form (sub)" u0C18 u0C4D
LCarets2: 1 0 

EndChar

StartChar: u0C19
Encoding: 3097 3097 135
Width: 1419
Flags: W
LayerCount: 2
Fore
SplineSet
1261 421 m 1,0,1
 1273 386 1273 386 1280 352.5 c 128,-1,2
 1287 319 1287 319 1287 282 c 0,3,4
 1287 165 1287 165 1213.5 83.5 c 128,-1,5
 1140 2 1140 2 1012 2 c 0,6,7
 956 2 956 2 911.5 10 c 128,-1,8
 867 18 867 18 827 37 c 1,9,10
 756 73 756 73 716 134 c 1,11,12
 670 76 670 76 589.5 38.5 c 128,-1,13
 509 1 509 1 418 1 c 256,14,15
 327 1 327 1 261 73.5 c 128,-1,16
 195 146 195 146 195 260 c 0,17,18
 195 454 195 454 386 552 c 1,19,20
 464 589 464 589 499 622 c 1,21,22
 546 669 546 669 546 727 c 0,23,24
 546 774 546 774 506.5 800.5 c 128,-1,25
 467 827 467 827 404 827 c 0,26,27
 320 827 320 827 276 762 c 0,28,29
 264 743 264 743 250 697 c 1,30,-1
 130 716 l 1,31,32
 149 797 149 797 174 836 c 0,33,34
 249 956 249 956 404 956 c 0,35,36
 521 956 521 956 593.5 892 c 128,-1,37
 666 828 666 828 666 728 c 2,38,-1
 666 689 l 1,39,-1
 772 689 l 1,40,-1
 772 924 l 1,41,-1
 892 924 l 1,42,-1
 892 689 l 1,43,-1
 1075 689 l 1,44,-1
 1075 562 l 1,45,-1
 614 562 l 1,46,47
 553 493 553 493 437 435 c 0,48,49
 374 403 374 403 344 361 c 128,-1,50
 314 319 314 319 314 261 c 0,51,52
 314 208 314 208 343 169 c 128,-1,53
 372 130 372 130 416 130 c 0,54,55
 505 130 505 130 575.5 181 c 128,-1,56
 646 232 646 232 667 310 c 1,57,-1
 776 310 l 1,58,59
 797 231 797 231 844 188 c 1,60,61
 904 131 904 131 1010 131 c 0,62,63
 1079 131 1079 131 1119.5 177.5 c 128,-1,64
 1160 224 1160 224 1160 292 c 0,65,66
 1160 320 1160 320 1152 353 c 1,67,-1
 1261 421 l 1,0,1
EndSplineSet
AnchorPoint: "BR" 505 188 basechar 0
AnchorPoint: "BLW" 264 0 basechar 0
AnchorPoint: "V" 373 451 basechar 0
EndChar

StartChar: u0C19.sub
Encoding: 65550 -1 136
Width: 28
Flags: W
LayerCount: 2
Fore
SplineSet
-212 -590 m 1,0,-1
 -552 -590 l 1,1,2
 -573 -625 -573 -625 -613 -655 c 0,3,4
 -641 -677 -641 -677 -690 -700 c 1,5,6
 -723 -719 -723 -719 -739 -737 c 0,7,8
 -760 -760 -760 -760 -760 -792 c 0,9,10
 -760 -825 -760 -825 -746 -847 c 128,-1,11
 -732 -869 -732 -869 -706 -869 c 0,12,13
 -660 -869 -660 -869 -624 -840 c 1,14,15
 -595 -812 -595 -812 -576 -763 c 1,16,-1
 -478 -763 l 1,17,18
 -457 -828 -457 -828 -430.5 -848 c 128,-1,19
 -404 -868 -404 -868 -358 -868 c 0,20,21
 -319 -868 -319 -868 -294.5 -842.5 c 128,-1,22
 -270 -817 -270 -817 -270 -781 c 0,23,24
 -270 -746 -270 -746 -295 -709 c 1,25,-1
 -224 -638 l 1,26,27
 -198 -670 -198 -670 -182 -713 c 1,28,29
 -168 -757 -168 -757 -168 -792 c 0,30,31
 -168 -866 -168 -866 -218 -919.5 c 128,-1,32
 -268 -973 -268 -973 -359 -973 c 0,33,34
 -422 -973 -422 -973 -463 -953 c 128,-1,35
 -504 -933 -504 -933 -530 -891 c 1,36,37
 -567 -934 -567 -934 -606 -953.5 c 128,-1,38
 -645 -973 -645 -973 -706 -973 c 0,39,40
 -771 -973 -771 -973 -815 -921.5 c 128,-1,41
 -859 -870 -859 -870 -859 -791 c 0,42,43
 -859 -728 -859 -728 -823 -680.5 c 128,-1,44
 -787 -633 -787 -633 -731 -603 c 1,45,46
 -685 -582 -685 -582 -653 -550 c 0,47,48
 -614 -511 -614 -511 -614 -478 c 0,49,50
 -614 -453 -614 -453 -637.5 -440 c 128,-1,51
 -661 -427 -661 -427 -697 -427 c 0,52,53
 -732 -427 -732 -427 -748.5 -443.5 c 128,-1,54
 -765 -460 -765 -460 -773 -489 c 1,55,-1
 -879 -489 l 1,56,57
 -872 -424 -872 -424 -843 -385 c 1,58,59
 -797 -318 -797 -318 -697 -318 c 0,60,61
 -618 -318 -618 -318 -565 -358 c 1,62,63
 -515 -400 -515 -400 -515 -464 c 2,64,-1
 -515 -480 l 1,65,-1
 -434 -480 l 1,66,-1
 -434 -314 l 1,67,-1
 -335 -314 l 1,68,-1
 -335 -480 l 1,69,-1
 -212 -480 l 1,70,-1
 -212 -590 l 1,0,-1
EndSplineSet
AnchorPoint: "BLW" -330 0 mark 0
Ligature2: "'blwf' Below Base Form (sub)" u0C19 u0C4D
LCarets2: 1 0 

EndChar

StartChar: u0C1A.base
Encoding: 65551 -1 138
Width: 1304
Flags: W
LayerCount: 2
Fore
SplineSet
1307 438 m 0,0,1
 1307 272 1307 272 1228 144 c 0,2,3
 1140 2 1140 2 993 2 c 0,4,5
 898 2 898 2 823 48 c 1,6,7
 769 84 769 84 727 144 c 1,8,9
 691 82 691 82 637 47 c 1,10,11
 601 25 601 25 559 14 c 128,-1,12
 517 3 517 3 463 3 c 0,13,14
 396 3 396 3 333 67 c 0,15,16
 254 149 254 149 254 286 c 0,17,18
 254 365 254 365 283 432 c 1,19,20
 308 485 308 485 354 534 c 1,21,-1
 128 597 l 1,22,-1
 160 723 l 1,23,-1
 529 623 l 1,24,-1
 529 513 l 1,25,26
 480 485 480 485 453 459 c 0,27,28
 375 384 375 384 375 288 c 0,29,30
 375 217 375 217 405 173 c 0,31,32
 431 134 431 134 463 134 c 0,33,34
 565 134 565 134 618 208 c 1,35,36
 665 308 665 308 679 330 c 1,37,-1
 768 330 l 1,38,-1
 807 249 l 1,39,40
 870 133 870 133 994 133 c 0,41,42
 1087 133 1087 133 1141 235 c 0,43,44
 1187 323 1187 323 1187 442 c 0,45,46
 1187 586 1187 586 1101 693 c 0,47,48
 988 834 988 834 765 834 c 1,49,-1
 765 962 l 1,50,51
 962 962 962 962 1097 869 c 1,52,53
 1204 794 1204 794 1261 660 c 0,54,55
 1307 551 1307 551 1307 438 c 0,0,1
EndSplineSet
AnchorPoint: "BR" 582 188 basechar 0
AnchorPoint: "BLW" 334 0 basechar 0
AnchorPoint: "V" 322 454 basechar 0
Ligature2: "'blws' Below Base Substitutions in Telugu lookup 3 subtable" u0C1A.base u0C30.sub
MultipleSubs2: "Multiple Substitution lookup 13 subtable" u0C30.sub.alt u0C1A.base
LCarets2: 1 0 
GlyphClass: 2

EndChar

StartChar: u0C1A.sub
Encoding: 65552 -1 139
Width: 896
Flags: W
LayerCount: 2
Fore
SplineSet
817 -54 m 1,0,1
 817 -332 817 -332 736 -494 c 0,2,3
 645 -677 645 -677 468 -677 c 0,4,5
 407 -677 407 -677 351 -645.5 c 128,-1,6
 295 -614 295 -614 255 -563 c 1,7,8
 212 -620 212 -620 158 -653 c 1,9,10
 94 -689 94 -689 16 -689 c 0,11,12
 -72 -689 -72 -689 -131.5 -620.5 c 128,-1,13
 -191 -552 -191 -552 -205 -445 c 1,14,-1
 -207 -420 l 1,15,-1
 -207 -401 l 2,16,17
 -207 -361 -207 -361 -196 -323.5 c 128,-1,18
 -185 -286 -185 -286 -162 -247 c 1,19,-1
 -279 -231 l 1,20,-1
 -265 -97 l 1,21,-1
 -159 -113 l 1,22,23
 -67 -128 -67 -128 -25 -137 c 1,24,-1
 1 -240 l 1,25,26
 -53 -301 -53 -301 -69.5 -335 c 128,-1,27
 -86 -369 -86 -369 -86 -404 c 1,28,-1
 -85 -427 l 1,29,30
 -80 -480 -80 -480 -49.5 -519 c 128,-1,31
 -19 -558 -19 -558 28 -558 c 0,32,33
 86 -558 86 -558 137 -507 c 1,34,35
 179 -463 179 -463 198 -400 c 1,36,-1
 307 -400 l 1,37,38
 325 -458 325 -458 368 -501 c 128,-1,39
 411 -544 411 -544 465 -544 c 0,40,41
 589 -544 589 -544 647 -399 c 1,42,43
 693 -279 693 -279 693 -61 c 0,44,45
 693 245 693 245 524 504 c 0,46,47
 340 786 340 786 44 832 c 1,48,-1
 44 963 l 1,49,50
 394 926 394 926 616 597 c 0,51,52
 814 302 814 302 817 -54 c 1,0,1
EndSplineSet
Ligature2: "'blwf' Below Base Form (sub)" u0C1A u0C4D
LCarets2: 1 0 

EndChar

StartChar: u0C1A_u0C3F
Encoding: 65553 -1 140
Width: 1261
Flags: W
LayerCount: 2
Fore
SplineSet
1324 593 m 1,0,1
 1324 526 1324 526 1320 468 c 128,-1,2
 1316 410 1316 410 1307 354 c 0,3,4
 1282 199 1282 199 1214 113 c 1,5,6
 1130 1 1130 1 985 1 c 0,7,8
 889 1 889 1 819 44 c 0,9,10
 766 76 766 76 729 137 c 1,11,12
 696 77 696 77 639 42 c 0,13,14
 569 0 569 0 465 0 c 0,15,16
 395 0 395 0 335 60 c 0,17,18
 256 139 256 139 256 280 c 0,19,20
 256 359 256 359 285 426 c 1,21,22
 310 480 310 480 356 530 c 1,23,-1
 130 590 l 1,24,-1
 162 718 l 1,25,-1
 531 618 l 1,26,-1
 531 504 l 1,27,28
 482 476 482 476 455 450 c 0,29,30
 377 375 377 375 377 280 c 0,31,32
 377 209 377 209 407 166 c 1,33,34
 433 131 433 131 465 131 c 0,35,36
 567 131 567 131 620 201 c 1,37,-1
 681 319 l 1,38,-1
 770 319 l 1,39,-1
 826 209 l 1,40,41
 880 131 880 131 986 131 c 0,42,43
 1128 131 1128 131 1178 305 c 0,44,45
 1192 354 1192 354 1199 423 c 128,-1,46
 1206 492 1206 492 1206 591 c 256,47,48
 1206 690 1206 690 1164 835 c 0,49,50
 1110 1024 1110 1024 1017 1141 c 0,51,52
 897 1292 897 1292 727 1311 c 1,53,54
 739 1295 739 1295 746 1281 c 1,55,56
 748 1274 748 1274 762 1245 c 1,57,58
 777 1208 777 1208 777 1171 c 0,59,60
 777 1072 777 1072 714 995 c 128,-1,61
 651 918 651 918 553 918 c 0,62,63
 467 918 467 918 403.5 995.5 c 128,-1,64
 340 1073 340 1073 340 1171 c 0,65,66
 340 1301 340 1301 438 1375.5 c 128,-1,67
 536 1450 536 1450 695 1450 c 0,68,69
 912 1450 912 1450 1074 1270 c 1,70,71
 1200 1128 1200 1128 1271 900 c 0,72,73
 1327 720 1327 720 1324 593 c 1,0,1
654 1156 m 1,74,75
 654 1202 654 1202 628.5 1234.5 c 128,-1,76
 603 1267 603 1267 563 1267 c 256,77,78
 523 1267 523 1267 495 1235 c 128,-1,79
 467 1203 467 1203 467 1156 c 0,80,81
 467 1114 467 1114 493.5 1082.5 c 128,-1,82
 520 1051 520 1051 560 1051 c 0,83,84
 599 1051 599 1051 627 1081 c 128,-1,85
 655 1111 655 1111 654 1156 c 1,74,75
EndSplineSet
AnchorPoint: "BLW" 330 0 basechar 0
AnchorPoint: "BR" 580 188 basechar 0
Ligature2: "'psts' Post Base Sub 0C3F short i" u0C1A.base u0C3F
LCarets2: 1 0 
GlyphClass: 2

EndChar

StartChar: u0C1C
Encoding: 3100 3100 145
Width: 1362
Flags: W
LayerCount: 2
Fore
SplineSet
1149 501 m 1,0,1
 1192 450 1192 450 1212 393.5 c 128,-1,2
 1232 337 1232 337 1232 280 c 0,3,4
 1232 164 1232 164 1160 86 c 0,5,6
 1082 2 1082 2 955 2 c 0,7,8
 848 2 848 2 780 41 c 0,9,10
 723 73 723 73 687 135 c 1,11,12
 644 74 644 74 576 37 c 1,13,14
 544 22 544 22 503.5 12.5 c 128,-1,15
 463 3 463 3 420 3 c 0,16,17
 329 3 329 3 263 75.5 c 128,-1,18
 197 148 197 148 197 262 c 0,19,20
 197 361 197 361 243 439 c 128,-1,21
 289 517 289 517 388 568 c 1,22,23
 462 601 462 601 494 630 c 0,24,25
 534 667 534 667 534 728 c 0,26,27
 534 775 534 775 494.5 801.5 c 128,-1,28
 455 828 455 828 391 828 c 0,29,30
 312 828 312 828 275 765 c 0,31,32
 264 746 264 746 253 703 c 1,33,-1
 133 714 l 1,34,35
 145 793 145 793 166 835 c 1,36,37
 231 956 231 956 392 956 c 0,38,39
 508 956 508 956 582 898 c 128,-1,40
 656 840 656 840 656 741 c 1,41,42
 727 666 727 666 745 657 c 1,43,44
 787 632 787 632 836 632 c 0,45,46
 913 632 913 632 952 660 c 128,-1,47
 991 688 991 688 991 731 c 0,48,49
 991 770 991 770 956 798 c 128,-1,50
 921 826 921 826 854 826 c 0,51,52
 821 826 821 826 779 818 c 1,53,-1
 754 944 l 1,54,55
 821 955 821 955 858 955 c 0,56,57
 986 955 986 955 1054 881 c 1,58,59
 1110 818 1110 818 1110 732 c 0,60,61
 1110 641 1110 641 1049 580 c 0,62,63
 975 506 975 506 835 506 c 0,64,65
 770 506 770 506 713 536 c 0,66,67
 680 554 680 554 627 600 c 1,68,69
 578 509 578 509 441 449 c 1,70,71
 318 385 318 385 318 259 c 0,72,73
 318 206 318 206 347 167 c 128,-1,74
 376 128 376 128 420 128 c 0,75,76
 504 128 504 128 565 181 c 1,77,78
 618 225 618 225 643 307 c 1,79,-1
 752 307 l 1,80,81
 777 216 777 216 805 184 c 1,82,83
 851 127 851 127 957 127 c 0,84,85
 1029 127 1029 127 1070 171.5 c 128,-1,86
 1111 216 1111 216 1111 280 c 0,87,88
 1111 345 1111 345 1063 406 c 1,89,-1
 1149 501 l 1,0,1
EndSplineSet
AnchorPoint: "BR" 498 188 basechar 0
AnchorPoint: "BLW" 270 0 basechar 0
MultipleSubs2: "Multiple Substitution lookup 13 subtable" u0C30.sub.alt u0C1C

EndChar

StartChar: u0C1C.sub
Encoding: 65557 -1 146
Width: 28
Flags: W
LayerCount: 2
Fore
SplineSet
-212 -467 m 1,0,1
 -212 -524 -212 -524 -254 -568 c 0,2,3
 -304 -622 -304 -622 -403 -622 c 0,4,5
 -447 -622 -447 -622 -477 -611 c 128,-1,6
 -507 -600 -507 -600 -539 -575 c 1,7,8
 -565 -619 -565 -619 -604 -649 c 1,9,10
 -634 -675 -634 -675 -680 -698 c 0,11,12
 -710 -713 -710 -713 -732 -735 c 1,13,14
 -751 -757 -751 -757 -751 -790 c 256,15,16
 -751 -823 -751 -823 -736 -844 c 1,17,18
 -724 -867 -724 -867 -698 -867 c 0,19,20
 -652 -867 -652 -867 -616 -838 c 1,21,22
 -587 -810 -587 -810 -568 -761 c 1,23,-1
 -471 -761 l 1,24,25
 -450 -826 -450 -826 -423.5 -846 c 128,-1,26
 -397 -866 -397 -866 -351 -866 c 0,27,28
 -314 -866 -314 -866 -288 -840 c 1,29,30
 -265 -814 -265 -814 -265 -778 c 256,31,32
 -265 -742 -265 -742 -290 -705 c 1,33,-1
 -219 -637 l 1,34,35
 -193 -670 -193 -670 -177 -710 c 1,36,37
 -163 -752 -163 -752 -163 -789 c 0,38,39
 -163 -866 -163 -866 -213 -919 c 128,-1,40
 -263 -972 -263 -972 -353 -972 c 0,41,42
 -416 -972 -416 -972 -457 -952 c 128,-1,43
 -498 -932 -498 -932 -524 -890 c 1,44,45
 -561 -933 -561 -933 -600 -952.5 c 128,-1,46
 -639 -972 -639 -972 -700 -972 c 0,47,48
 -765 -972 -765 -972 -809 -920.5 c 128,-1,49
 -853 -869 -853 -869 -853 -790 c 0,50,51
 -853 -730 -853 -730 -816 -677 c 1,52,53
 -784 -633 -784 -633 -726 -600 c 1,54,55
 -683 -582 -683 -582 -646 -546 c 128,-1,56
 -609 -510 -609 -510 -609 -475 c 0,57,58
 -609 -450 -609 -450 -632.5 -437 c 128,-1,59
 -656 -424 -656 -424 -692 -424 c 0,60,61
 -727 -424 -727 -424 -743.5 -441 c 128,-1,62
 -760 -458 -760 -458 -768 -486 c 1,63,-1
 -874 -486 l 1,64,65
 -867 -421 -867 -421 -838 -382 c 1,66,67
 -792 -315 -792 -315 -692 -315 c 0,68,69
 -613 -315 -613 -315 -567 -353.5 c 128,-1,70
 -521 -392 -521 -392 -510 -459 c 1,71,72
 -474 -492 -474 -492 -458 -501 c 1,73,74
 -447 -506 -447 -506 -433 -510 c 128,-1,75
 -419 -514 -419 -514 -405 -514 c 0,76,77
 -313 -514 -313 -514 -313 -463 c 0,78,79
 -313 -420 -313 -420 -376 -420 c 0,80,81
 -401 -420 -401 -420 -438 -428 c 1,82,-1
 -461 -322 l 1,83,84
 -417 -314 -417 -314 -384 -314 c 0,85,86
 -298 -314 -298 -314 -252 -361 c 0,87,88
 -215 -398 -215 -398 -212 -467 c 1,0,1
EndSplineSet
AnchorPoint: "BLW" -362 0 mark 0
Ligature2: "'blwf' Below Base Form (sub)" u0C1C u0C4D
LCarets2: 1 0 

EndChar

StartChar: u0C1C_u0C3F
Encoding: 65558 -1 147
Width: 1362
Flags: W
LayerCount: 2
Fore
SplineSet
1173 954 m 0,0,1
 1173 779 1173 779 1098 666 c 1,2,3
 1016 545 1016 545 874 545 c 0,4,5
 803 545 803 545 736 570 c 0,6,7
 687 588 687 588 634 624 c 1,8,9
 609 568 609 568 559 520 c 128,-1,10
 509 472 509 472 443.5 440 c 128,-1,11
 378 408 378 408 347.5 368.5 c 128,-1,12
 317 329 317 329 317 268 c 0,13,14
 317 210 317 210 346 172.5 c 128,-1,15
 375 135 375 135 419 135 c 0,16,17
 501 135 501 135 564 189 c 1,18,19
 617 236 617 236 642 317 c 1,20,-1
 751 317 l 1,21,22
 783 204 783 204 829.5 169 c 128,-1,23
 876 134 876 134 955 134 c 0,24,25
 1027 134 1027 134 1068 178.5 c 128,-1,26
 1109 223 1109 223 1109 288 c 0,27,28
 1109 355 1109 355 1061 416 c 1,29,-1
 1149 511 l 1,30,31
 1191 461 1191 461 1212 401.5 c 128,-1,32
 1233 342 1233 342 1233 285 c 0,33,34
 1233 168 1233 168 1157.5 85 c 128,-1,35
 1082 2 1082 2 955 2 c 0,36,37
 846 2 846 2 779 42 c 0,38,39
 722 75 722 75 686 140 c 1,40,41
 646 79 646 79 576 40 c 128,-1,42
 506 1 506 1 418 1 c 0,43,44
 327 1 327 1 261 77 c 128,-1,45
 195 153 195 153 195 266 c 0,46,47
 195 460 195 460 386 557 c 0,48,49
 460 594 460 594 492 627 c 1,50,51
 532 671 532 671 532 735 c 0,52,53
 532 782 532 782 492.5 808.5 c 128,-1,54
 453 835 453 835 389 835 c 0,55,56
 310 835 310 835 273 772 c 0,57,58
 262 753 262 753 251 710 c 1,59,-1
 131 721 l 1,60,61
 143 802 143 802 164 844 c 1,62,63
 229 967 229 967 390 967 c 0,64,65
 500 967 500 967 570.5 913.5 c 128,-1,66
 641 860 641 860 653 768 c 1,67,68
 678 739 678 739 725 713 c 1,69,70
 799 674 799 674 873 674 c 0,71,72
 962 674 962 674 1011 758 c 1,73,74
 1053 832 1053 832 1053 952 c 0,75,76
 1053 1052 1053 1052 1007 1131 c 1,77,78
 1007 1036 1007 1036 947.5 970.5 c 128,-1,79
 888 905 888 905 792 905 c 0,80,81
 704 905 704 905 641 972.5 c 128,-1,82
 578 1040 578 1040 578 1142 c 0,83,84
 578 1247 578 1247 643 1313.5 c 128,-1,85
 708 1380 708 1380 806 1380 c 0,86,87
 971 1380 971 1380 1074 1247 c 0,88,89
 1173 1120 1173 1120 1173 954 c 0,0,1
887 1142 m 1,90,91
 887 1189 887 1189 859 1217 c 1,92,93
 833 1247 833 1247 793 1247 c 256,94,95
 753 1247 753 1247 726.5 1216.5 c 128,-1,96
 700 1186 700 1186 700 1142 c 256,97,98
 700 1098 700 1098 726.5 1067.5 c 128,-1,99
 753 1037 753 1037 793 1037 c 0,100,101
 832 1037 832 1037 860 1067 c 128,-1,102
 888 1097 888 1097 887 1142 c 1,90,91
EndSplineSet
AnchorPoint: "BR" 502 188 basechar 0
AnchorPoint: "BLW" 270 0 basechar 0
Ligature2: "'psts' Post Base Sub 0C3F short i" u0C1C u0C3F
LCarets2: 1 0 
GlyphClass: 2

EndChar

StartChar: u0C1D.sub
Encoding: 65560 -1 150
Width: 301
Flags: W
LayerCount: 2
Fore
SplineSet
287 -656 m 0,0,1
 287 -770 287 -770 233 -861 c 1,2,3
 166 -970 166 -970 47 -970 c 0,4,5
 -10 -970 -10 -970 -53 -949 c 128,-1,6
 -96 -928 -96 -928 -132 -888 c 1,7,8
 -190 -970 -190 -970 -292 -970 c 0,9,10
 -343 -970 -343 -970 -385.5 -948.5 c 128,-1,11
 -428 -927 -428 -927 -460 -891 c 1,12,13
 -502 -933 -502 -933 -550 -954.5 c 128,-1,14
 -598 -976 -598 -976 -651 -976 c 0,15,16
 -764 -976 -764 -976 -845 -884.5 c 128,-1,17
 -926 -793 -926 -793 -926 -670 c 0,18,19
 -926 -540 -926 -540 -846.5 -452 c 128,-1,20
 -767 -364 -767 -364 -651 -364 c 0,21,22
 -538 -364 -538 -364 -455.5 -452.5 c 128,-1,23
 -373 -541 -373 -541 -373 -669 c 0,24,25
 -373 -740 -373 -740 -402 -794 c 1,26,27
 -383 -822 -383 -822 -361 -837 c 1,28,29
 -328 -862 -328 -862 -292 -862 c 0,30,31
 -221 -862 -221 -862 -182 -784 c 0,32,33
 -153 -726 -153 -726 -153 -658 c 256,34,35
 -153 -590 -153 -590 -195 -516 c 0,36,37
 -249 -421 -249 -421 -341 -421 c 1,38,-1
 -341 -312 l 1,39,40
 -204 -312 -204 -312 -119 -447 c 0,41,42
 -52 -552 -52 -552 -52 -658 c 1,43,-1
 -56 -718 l 2,44,45
 -57 -730 -57 -730 -61 -748.5 c 128,-1,46
 -65 -767 -65 -767 -70 -785 c 1,47,48
 -58 -818 -58 -818 -24 -839.5 c 128,-1,49
 10 -861 10 -861 49 -861 c 0,50,51
 119 -861 119 -861 159 -786 c 1,52,53
 188 -728 188 -728 188 -654 c 0,54,55
 188 -570 188 -570 155 -512 c 0,56,57
 106 -426 106 -426 3 -426 c 1,58,-1
 3 -317 l 1,59,60
 152 -317 152 -317 231 -440 c 1,61,62
 288 -533 288 -533 287 -656 c 0,0,1
-67 -1205 m 1,63,-1
 -193 -1205 l 1,64,-1
 -160 -956 l 1,65,-1
 -103 -956 l 1,66,-1
 -67 -1205 l 1,63,-1
-478 -669 m 0,67,68
 -478 -588 -478 -588 -529 -531.5 c 128,-1,69
 -580 -475 -580 -475 -655 -475 c 0,70,71
 -727 -475 -727 -475 -778 -530 c 128,-1,72
 -829 -585 -829 -585 -829 -669 c 0,73,74
 -829 -750 -829 -750 -779.5 -808.5 c 128,-1,75
 -730 -867 -730 -867 -655 -867 c 0,76,77
 -581 -867 -581 -867 -529.5 -809 c 128,-1,78
 -478 -751 -478 -751 -478 -669 c 0,67,68
EndSplineSet
AnchorPoint: "BLW" -400 0 mark 0
Ligature2: "'blwf' Below Base Form (sub)" u0C1D u0C4D
LCarets2: 1 0 

EndChar

StartChar: u0C1E
Encoding: 3102 3102 151
Width: 1628
Flags: W
LayerCount: 2
Fore
SplineSet
1502 561 m 1,0,-1
 1101 561 l 1,1,-1
 1103 545 l 1,2,3
 1103 513 1103 513 1095 478 c 0,4,5
 1094 474 1094 474 1083 434 c 0,6,7
 1064 364 1064 364 1031 306 c 1,8,9
 1060 259 1060 259 1076.5 195 c 128,-1,10
 1093 131 1093 131 1093 56 c 0,11,12
 1093 -68 1093 -68 1035 -138 c 128,-1,13
 977 -208 977 -208 891 -208 c 1,14,-1
 872 -75 l 1,15,16
 916 -75 916 -75 944.5 -41 c 128,-1,17
 973 -7 973 -7 973 56 c 0,18,19
 973 77 973 77 973 99 c 1,20,21
 969 117 969 117 967 128.5 c 128,-1,22
 965 140 965 140 964 150.5 c 128,-1,23
 963 161 963 161 955 191 c 1,24,25
 879 103 879 103 781 56 c 0,26,27
 667 1 667 1 536 1 c 0,28,29
 371 1 371 1 275 80 c 1,30,31
 229 120 229 120 205.5 171 c 128,-1,32
 182 222 182 222 182 286 c 0,33,34
 182 385 182 385 281 474 c 0,35,36
 393 574 393 574 548 574 c 0,37,38
 646 574 646 574 757 534.5 c 128,-1,39
 868 495 868 495 952 411 c 1,40,41
 988 504 988 504 988 564 c 0,42,43
 988 678 988 678 934.5 752.5 c 128,-1,44
 881 827 881 827 803 827 c 0,45,46
 740 827 740 827 701 787.5 c 128,-1,47
 662 748 662 748 653 684 c 1,48,-1
 536 693 l 1,49,50
 531 750 531 750 489.5 788.5 c 128,-1,51
 448 827 448 827 374 827 c 0,52,53
 325 827 325 827 289 802 c 1,54,55
 257 777 257 777 257 735 c 0,56,57
 257 695 257 695 279 646 c 1,58,59
 281 638 281 638 286.5 627.5 c 128,-1,60
 292 617 292 617 301 605 c 1,61,-1
 206 526 l 1,62,-1
 171 594 l 1,63,64
 135 679 135 679 135 736 c 0,65,66
 135 825 135 825 200.5 892 c 128,-1,67
 266 959 266 959 372 959 c 0,68,69
 446 959 446 959 501.5 932 c 128,-1,70
 557 905 557 905 594 856 c 1,71,72
 626 898 626 898 681 928.5 c 128,-1,73
 736 959 736 959 801 959 c 0,74,75
 896 959 896 959 979 888 c 128,-1,76
 1062 817 1062 817 1092 694 c 1,77,-1
 1181 694 l 1,78,-1
 1181 919 l 1,79,-1
 1301 919 l 1,80,-1
 1301 694 l 1,81,-1
 1504 694 l 1,82,-1
 1502 561 l 1,0,-1
883 301 m 1,83,84
 823 375 823 375 720 414 c 0,85,86
 635 446 635 446 546 446 c 0,87,88
 446 446 446 446 373.5 396 c 128,-1,89
 301 346 301 346 301 285 c 0,90,91
 301 214 301 214 364 171 c 128,-1,92
 427 128 427 128 536 128 c 0,93,94
 649 128 649 128 742 179 c 1,95,96
 823 221 823 221 883 301 c 1,83,84
EndSplineSet
AnchorPoint: "BLW" 232 0 basechar 0
AnchorPoint: "V" 622 447 basechar 0
MultipleSubs2: "Multiple Substitution lookup 13 subtable" u0C30.sub.alt u0C1E

EndChar

StartChar: u0C1E.sub
Encoding: 65561 -1 152
Width: 28
Flags: W
LayerCount: 2
Fore
SplineSet
-212 -642 m 1,0,-1
 -472 -642 l 1,1,2
 -476 -678 -476 -678 -488 -714 c 0,3,4
 -495 -735 -495 -735 -503 -751 c 128,-1,5
 -511 -767 -511 -767 -527 -789 c 1,6,7
 -490 -859 -490 -859 -490 -949 c 0,8,9
 -490 -1035 -490 -1035 -541 -1082 c 0,10,11
 -584 -1122 -584 -1122 -649 -1122 c 0,12,13
 -689 -1122 -689 -1122 -722 -1106 c 1,14,-1
 -676 -1011 l 1,15,-1
 -651 -1013 l 1,16,17
 -588 -1013 -588 -1013 -588 -948 c 1,18,-1
 -592 -911 l 1,19,-1
 -599 -881 l 1,20,21
 -657 -932 -657 -932 -729 -966 c 128,-1,22
 -801 -1000 -801 -1000 -879 -1000 c 0,23,24
 -996 -1000 -996 -1000 -1061.5 -940.5 c 128,-1,25
 -1127 -881 -1127 -881 -1127 -793 c 0,26,27
 -1127 -726 -1127 -726 -1060 -661 c 1,28,29
 -981 -589 -981 -589 -871 -589 c 0,30,31
 -804 -589 -804 -589 -729.5 -616 c 128,-1,32
 -655 -643 -655 -643 -591 -703 c 1,33,-1
 -570 -645 l 1,34,-1
 -563 -603 l 1,35,36
 -563 -529 -563 -529 -606 -473 c 128,-1,37
 -649 -417 -649 -417 -699 -417 c 0,38,39
 -735 -417 -735 -417 -758 -437 c 128,-1,40
 -781 -457 -781 -457 -789 -496 c 1,41,-1
 -887 -496 l 1,42,43
 -892 -464 -892 -464 -921 -439 c 1,44,45
 -936 -428 -936 -428 -950.5 -422.5 c 128,-1,46
 -965 -417 -965 -417 -988 -417 c 0,47,48
 -1020 -417 -1020 -417 -1039.5 -425 c 128,-1,49
 -1059 -433 -1059 -433 -1059 -459 c 0,50,51
 -1059 -478 -1059 -478 -1054 -494 c 1,52,-1
 -1046 -529 l 1,53,-1
 -1123 -592 l 1,54,55
 -1131 -576 -1131 -576 -1138.5 -556.5 c 128,-1,56
 -1146 -537 -1146 -537 -1150 -526 c 1,57,58
 -1159 -492 -1159 -492 -1159 -460 c 0,59,60
 -1159 -396 -1159 -396 -1112.5 -352 c 128,-1,61
 -1066 -308 -1066 -308 -988 -308 c 0,62,63
 -942 -308 -942 -308 -906.5 -323 c 128,-1,64
 -871 -338 -871 -338 -836 -370 c 1,65,66
 -782 -307 -782 -307 -697 -307 c 0,67,68
 -626 -307 -626 -307 -558.5 -370 c 128,-1,69
 -491 -433 -491 -433 -466 -533 c 1,70,-1
 -429 -533 l 1,71,-1
 -429 -364 l 1,72,-1
 -330 -364 l 1,73,-1
 -330 -533 l 1,74,-1
 -207 -533 l 1,75,-1
 -212 -642 l 1,0,-1
-648 -787 m 1,76,77
 -688 -743 -688 -743 -752 -720 c 1,78,79
 -815 -701 -815 -701 -871 -701 c 0,80,81
 -939 -701 -939 -701 -983 -729 c 128,-1,82
 -1027 -757 -1027 -757 -1027 -794 c 0,83,84
 -1027 -840 -1027 -840 -987 -863 c 1,85,86
 -950 -888 -950 -888 -880 -888 c 0,87,88
 -812 -888 -812 -888 -758 -862 c 0,89,90
 -732 -850 -732 -850 -705 -832 c 128,-1,91
 -678 -814 -678 -814 -648 -787 c 1,76,77
EndSplineSet
AnchorPoint: "BLW" -446 0 mark 0
Ligature2: "'blwf' Below Base Form (sub)" u0C1E u0C4D
LCarets2: 1 0 

EndChar

StartChar: u0C1F
Encoding: 3103 3103 153
Width: 1491
Flags: W
LayerCount: 2
Fore
SplineSet
1365 450 m 0,0,1
 1365 255 1365 255 1316 156 c 1,2,3
 1242 1 1242 1 1053 1 c 0,4,5
 958 1 958 1 882 45 c 128,-1,6
 806 89 806 89 764 159 c 1,7,8
 718 88 718 88 642 45 c 128,-1,9
 566 2 566 2 478 2 c 0,10,11
 336 2 336 2 232.5 143 c 128,-1,12
 129 284 129 284 129 474 c 0,13,14
 129 690 129 690 238 811 c 0,15,16
 322 903 322 903 456 928 c 1,17,-1
 456 1125 l 1,18,-1
 590 1125 l 1,19,-1
 590 928 l 1,20,21
 661 903 661 903 707 849.5 c 128,-1,22
 753 796 753 796 753 725 c 0,23,24
 753 629 753 629 684.5 556 c 128,-1,25
 616 483 616 483 519 483 c 0,26,27
 442 483 442 483 378 529 c 128,-1,28
 314 575 314 575 293 646 c 1,29,30
 281 616 281 616 273 573 c 128,-1,31
 265 530 265 530 265 476 c 0,32,33
 265 346 265 346 328 240.5 c 128,-1,34
 391 135 391 135 480 135 c 0,35,36
 562 135 562 135 625 206 c 1,37,38
 671 260 671 260 706 363 c 1,39,-1
 832 363 l 1,40,41
 857 267 857 267 908 207 c 0,42,43
 969 135 969 135 1054 135 c 0,44,45
 1166 135 1166 135 1208 247 c 1,46,47
 1231 315 1231 315 1231 453 c 0,48,49
 1231 581 1231 581 1180 676 c 1,50,51
 1113 797 1113 797 973 826 c 1,52,-1
 1005 954 l 1,53,54
 1194 912 1194 912 1287 760 c 0,55,56
 1365 633 1365 633 1365 450 c 0,0,1
619 719 m 1,57,58
 615 759 615 759 586.5 781 c 128,-1,59
 558 803 558 803 518 803 c 0,60,61
 475 803 475 803 446.5 776.5 c 128,-1,62
 418 750 418 750 418 707 c 0,63,64
 418 671 418 671 447 640.5 c 128,-1,65
 476 610 476 610 518 610 c 0,66,67
 561 610 561 610 590 641.5 c 128,-1,68
 619 673 619 673 619 719 c 1,57,58
EndSplineSet
AnchorPoint: "BLW" 316 0 basechar 0
AnchorPoint: "BR" 594 188 basechar 0
Ligature2: "'blws' Below Base Substitutions in Telugu lookup 3 subtable" u0C1F u0C30.sub
AlternateSubs2: "Alternate Substitution lookup 14 subtable" u0C1F.base
MultipleSubs2: "Multiple Substitution lookup 13 subtable" u0C30.sub.alt u0C1F

EndChar

